<?xml version="1.0" encoding="UTF-8" standalone="no"?>
<!DOCTYPE svg PUBLIC "-//W3C//DTD SVG 1.1//EN"
 "http://www.w3.org/Graphics/SVG/1.1/DTD/svg11.dtd">
<!-- Generated by graphviz version 7.0.6 (20230106.0513)
 -->
<!-- Title: structs Pages: 1 -->
<svg width="87pt" height="79pt"
 viewBox="0.00 0.00 87.00 79.00" xmlns="http://www.w3.org/2000/svg" xmlns:xlink="http://www.w3.org/1999/xlink">
<g id="graph0" class="graph" transform="scale(1 1) rotate(0) translate(4 75)">
<title>structs</title>
<polygon fill="white" stroke="none" points="-4,4 -4,-75 83,-75 83,4 -4,4"/>
<!-- table -->
<g id="node1" class="node">
<title>table</title>
<polygon fill="none" stroke="black" points="8.5,-45.5 8.5,-66.5 71.5,-66.5 71.5,-45.5 8.5,-45.5"/>
<text text-anchor="start" x="11.5" y="-53.3" font-family="Times,serif" font-size="14.00">trian </text>
<text text-anchor="start" x="40.5" y="-53.3" font-family="Times,serif" font-size="14.00" fill="lightskyblue">==</text>
<text text-anchor="start" x="57.5" y="-53.3" font-family="Times,serif" font-size="14.00"> 0</text>
<polygon fill="lightskyblue" stroke="none" points="8.5,-24.5 8.5,-45.5 71.5,-45.5 71.5,-24.5 8.5,-24.5"/>
<polygon fill="none" stroke="black" points="8.5,-24.5 8.5,-45.5 71.5,-45.5 71.5,-24.5 8.5,-24.5"/>
<text text-anchor="start" x="29" y="-31.3" font-family="Times,serif" font-size="14.00">true</text>
<polygon fill="lightskyblue" stroke="none" points="8.5,-3.5 8.5,-24.5 71.5,-24.5 71.5,-3.5 8.5,-3.5"/>
<polygon fill="none" stroke="black" points="8.5,-3.5 8.5,-24.5 71.5,-24.5 71.5,-3.5 8.5,-3.5"/>
<text text-anchor="start" x="27" y="-10.3" font-family="Times,serif" font-size="14.00">false</text>
</g>
</g>
</svg>
