<?xml version="1.0" encoding="UTF-8" standalone="no"?>
<!DOCTYPE svg PUBLIC "-//W3C//DTD SVG 1.1//EN"
 "http://www.w3.org/Graphics/SVG/1.1/DTD/svg11.dtd">
<!-- Generated by graphviz version 7.0.6 (20230106.0513)
 -->
<!-- Title: structs Pages: 1 -->
<svg width="292pt" height="121pt"
 viewBox="0.00 0.00 292.00 121.00" xmlns="http://www.w3.org/2000/svg" xmlns:xlink="http://www.w3.org/1999/xlink">
<g id="graph0" class="graph" transform="scale(1 1) rotate(0) translate(4 117)">
<title>structs</title>
<polygon fill="white" stroke="none" points="-4,4 -4,-117 288,-117 288,4 -4,4"/>
<!-- table -->
<g id="node1" class="node">
<title>table</title>
<polygon fill="none" stroke="black" points="8,-87.5 8,-108.5 70,-108.5 70,-87.5 8,-87.5"/>
<text text-anchor="start" x="11" y="-94.3" font-family="Times,serif" font-size="14.00">trian == 1</text>
<polygon fill="none" stroke="black" points="70,-87.5 70,-108.5 130,-108.5 130,-87.5 70,-87.5"/>
<text text-anchor="start" x="73" y="-95.3" font-family="Times,serif" font-size="14.00">a </text>
<text text-anchor="start" x="83" y="-95.3" font-family="Times,serif" font-size="14.00" fill="orange">* </text>
<text text-anchor="start" x="94" y="-95.3" font-family="Times,serif" font-size="14.00"> b &gt; c</text>
<polygon fill="none" stroke="black" points="130,-87.5 130,-108.5 276,-108.5 276,-87.5 130,-87.5"/>
<text text-anchor="start" x="133" y="-95.3" font-family="Times,serif" font-size="14.00">trian == 1 &amp;&amp; a </text>
<text text-anchor="start" x="229" y="-95.3" font-family="Times,serif" font-size="14.00" fill="orange">* </text>
<text text-anchor="start" x="240" y="-95.3" font-family="Times,serif" font-size="14.00"> b &gt; c</text>
<polygon fill="lemonchiffon" stroke="none" points="8,-66.5 8,-87.5 70,-87.5 70,-66.5 8,-66.5"/>
<polygon fill="none" stroke="black" points="8,-66.5 8,-87.5 70,-87.5 70,-66.5 8,-66.5"/>
<text text-anchor="start" x="28" y="-73.3" font-family="Times,serif" font-size="14.00">true</text>
<polygon fill="orange" stroke="none" points="70,-66.5 70,-87.5 130,-87.5 130,-66.5 70,-66.5"/>
<polygon fill="none" stroke="black" points="70,-66.5 70,-87.5 130,-87.5 130,-66.5 70,-66.5"/>
<text text-anchor="start" x="87" y="-73.3" font-family="Times,serif" font-size="14.00">false</text>
<polygon fill="orange" stroke="none" points="130,-66.5 130,-87.5 276,-87.5 276,-66.5 130,-66.5"/>
<polygon fill="none" stroke="black" points="130,-66.5 130,-87.5 276,-87.5 276,-66.5 130,-66.5"/>
<text text-anchor="start" x="190" y="-73.3" font-family="Times,serif" font-size="14.00">false</text>
<polygon fill="lemonchiffon" stroke="none" points="8,-45.5 8,-66.5 70,-66.5 70,-45.5 8,-45.5"/>
<polygon fill="none" stroke="black" points="8,-45.5 8,-66.5 70,-66.5 70,-45.5 8,-45.5"/>
<text text-anchor="start" x="28" y="-52.3" font-family="Times,serif" font-size="14.00">true</text>
<polygon fill="orange" stroke="none" points="70,-45.5 70,-66.5 130,-66.5 130,-45.5 70,-45.5"/>
<polygon fill="none" stroke="black" points="70,-45.5 70,-66.5 130,-66.5 130,-45.5 70,-45.5"/>
<text text-anchor="start" x="89" y="-52.3" font-family="Times,serif" font-size="14.00">true</text>
<polygon fill="orange" stroke="none" points="130,-45.5 130,-66.5 276,-66.5 276,-45.5 130,-45.5"/>
<polygon fill="none" stroke="black" points="130,-45.5 130,-66.5 276,-66.5 276,-45.5 130,-45.5"/>
<text text-anchor="start" x="192" y="-52.3" font-family="Times,serif" font-size="14.00">true</text>
<polygon fill="none" stroke="black" points="8,-24.5 8,-45.5 70,-45.5 70,-24.5 8,-24.5"/>
<text text-anchor="start" x="26" y="-31.3" font-family="Times,serif" font-size="14.00">false</text>
<polygon fill="none" stroke="black" points="70,-24.5 70,-45.5 130,-45.5 130,-24.5 70,-24.5"/>
<text text-anchor="start" x="87" y="-31.3" font-family="Times,serif" font-size="14.00">false</text>
<polygon fill="none" stroke="black" points="130,-24.5 130,-45.5 276,-45.5 276,-24.5 130,-24.5"/>
<text text-anchor="start" x="190" y="-31.3" font-family="Times,serif" font-size="14.00">false</text>
<polygon fill="none" stroke="black" points="8,-3.5 8,-24.5 70,-24.5 70,-3.5 8,-3.5"/>
<text text-anchor="start" x="26" y="-10.3" font-family="Times,serif" font-size="14.00">false</text>
<polygon fill="none" stroke="black" points="70,-3.5 70,-24.5 130,-24.5 130,-3.5 70,-3.5"/>
<text text-anchor="start" x="89" y="-10.3" font-family="Times,serif" font-size="14.00">true</text>
<polygon fill="none" stroke="black" points="130,-3.5 130,-24.5 276,-24.5 276,-3.5 130,-3.5"/>
<text text-anchor="start" x="190" y="-10.3" font-family="Times,serif" font-size="14.00">false</text>
</g>
</g>
</svg>
