<?xml version="1.0" encoding="UTF-8" standalone="no"?>
<!DOCTYPE svg PUBLIC "-//W3C//DTD SVG 1.1//EN"
 "http://www.w3.org/Graphics/SVG/1.1/DTD/svg11.dtd">
<!-- Generated by graphviz version 7.0.6 (20230106.0513)
 -->
<!-- Title: structs Pages: 1 -->
<svg width="594pt" height="547pt"
 viewBox="0.00 0.00 594.00 546.89" xmlns="http://www.w3.org/2000/svg" xmlns:xlink="http://www.w3.org/1999/xlink">
<g id="graph0" class="graph" transform="scale(1 1) rotate(0) translate(4 542.89)">
<title>structs</title>
<polygon fill="white" stroke="none" points="-4,4 -4,-542.89 590,-542.89 590,4 -4,4"/>
<!-- paren -->
<g id="node1" class="node">
<title>paren</title>
<text text-anchor="start" x="8.5" y="-517.34" font-family="Times,serif" font-size="14.00">ORIGINAL (((trian == 3) &amp;&amp; ((b + c) &gt; a)))</text>
<text text-anchor="start" x="8" y="-502.34" font-family="Times,serif" font-size="14.00">MUTANT (((trian == 3) &amp;&amp; ((b + c) &gt;= a)))</text>
</g>
<!-- node2 -->
<g id="node2" class="node">
<title>node2</title>
<ellipse fill="lightgrey" stroke="black" cx="220.5" cy="-346.65" rx="26.8" ry="26.8"/>
<text text-anchor="middle" x="220.5" y="-342.95" font-family="Times,serif" font-size="14.00">trian</text>
</g>
<!-- node3 -->
<g id="node3" class="node">
<title>node3</title>
<ellipse fill="lightgrey" stroke="black" cx="283.5" cy="-346.65" rx="18" ry="18"/>
<text text-anchor="middle" x="283.5" y="-342.95" font-family="Times,serif" font-size="14.00">3</text>
</g>
<!-- node1 -->
<g id="node4" class="node">
<title>node1</title>
<ellipse fill="lightgrey" stroke="black" cx="282.5" cy="-430.74" rx="21.4" ry="21.4"/>
<text text-anchor="middle" x="282.5" y="-427.04" font-family="Times,serif" font-size="14.00">==</text>
</g>
<!-- node1&#45;&gt;node2 -->
<g id="edge1" class="edge">
<title>node1&#45;&gt;node2</title>
<path fill="none" stroke="black" d="M269.95,-413.13C262.23,-402.9 252.1,-389.49 243.02,-377.47"/>
<polygon fill="black" stroke="black" points="246.07,-375.7 237.25,-369.83 240.48,-379.92 246.07,-375.7"/>
</g>
<!-- node1&#45;&gt;node3 -->
<g id="edge2" class="edge">
<title>node1&#45;&gt;node3</title>
<path fill="none" stroke="black" d="M282.75,-409.03C282.87,-399.16 283.02,-387.19 283.15,-376.45"/>
<polygon fill="black" stroke="black" points="286.65,-376.58 283.27,-366.54 279.65,-376.5 286.65,-376.58"/>
</g>
<!-- node6 -->
<g id="node5" class="node">
<title>node6</title>
<ellipse fill="lightgrey" stroke="black" cx="311.5" cy="-266" rx="18" ry="18"/>
<text text-anchor="middle" x="311.5" y="-262.3" font-family="Times,serif" font-size="14.00">b</text>
</g>
<!-- node7 -->
<g id="node6" class="node">
<title>node7</title>
<ellipse fill="lightgrey" stroke="black" cx="365.5" cy="-266" rx="18" ry="18"/>
<text text-anchor="middle" x="365.5" y="-262.3" font-family="Times,serif" font-size="14.00">c</text>
</g>
<!-- node5 -->
<g id="node7" class="node">
<title>node5</title>
<ellipse fill="lightgrey" stroke="black" cx="338.5" cy="-346.65" rx="18" ry="18"/>
<text text-anchor="middle" x="338.5" y="-342.95" font-family="Times,serif" font-size="14.00">+</text>
</g>
<!-- node5&#45;&gt;node6 -->
<g id="edge3" class="edge">
<title>node5&#45;&gt;node6</title>
<path fill="none" stroke="black" d="M332.91,-329.35C329.42,-319.19 324.84,-305.86 320.82,-294.14"/>
<polygon fill="black" stroke="black" points="324.23,-293.3 317.67,-284.98 317.61,-295.57 324.23,-293.3"/>
</g>
<!-- node5&#45;&gt;node7 -->
<g id="edge4" class="edge">
<title>node5&#45;&gt;node7</title>
<path fill="none" stroke="black" d="M344.09,-329.35C347.58,-319.19 352.16,-305.86 356.18,-294.14"/>
<polygon fill="black" stroke="black" points="359.39,-295.57 359.33,-284.98 352.77,-293.3 359.39,-295.57"/>
</g>
<!-- node9 -->
<g id="node8" class="node">
<title>node9</title>
<ellipse fill="lightgrey" stroke="black" cx="392.5" cy="-346.65" rx="18" ry="18"/>
<text text-anchor="middle" x="392.5" y="-342.95" font-family="Times,serif" font-size="14.00">a</text>
</g>
<!-- node8 -->
<g id="node9" class="node">
<title>node8</title>
<ellipse fill="MediumSeaGreen" stroke="black" cx="396.5" cy="-430.74" rx="21.4" ry="21.4"/>
<text text-anchor="middle" x="396.5" y="-427.04" font-family="Times,serif" font-size="14.00">&gt;=</text>
</g>
<!-- node4 -->
<g id="node10" class="node">
<title>node4</title>
<ellipse fill="MediumSeaGreen" stroke="black" cx="339.5" cy="-430.74" rx="18" ry="18"/>
<text text-anchor="middle" x="339.5" y="-427.04" font-family="Times,serif" font-size="14.00">&gt;</text>
</g>
<!-- node4&#45;&gt;node5 -->
<g id="edge6" class="edge">
<title>node4&#45;&gt;node5</title>
<path fill="none" stroke="black" d="M339.29,-412.33C339.16,-401.88 339,-388.34 338.85,-376.34"/>
<polygon fill="black" stroke="black" points="342.35,-376.5 338.73,-366.55 335.35,-376.59 342.35,-376.5"/>
</g>
<!-- node4&#45;&gt;node9 -->
<g id="edge7" class="edge">
<title>node4&#45;&gt;node9</title>
<path fill="none" stroke="black" d="M348.98,-415.07C356.69,-403.12 367.74,-385.99 376.78,-372"/>
<polygon fill="black" stroke="black" points="379.62,-374.05 382.11,-363.75 373.74,-370.25 379.62,-374.05"/>
</g>
<!-- node4&#45;&gt;node8 -->
<g id="edge5" class="edge">
<title>node4&#45;&gt;node8</title>
<path fill="none" stroke="dimgrey" stroke-dasharray="1,5" d="M357.76,-430.74C363.41,-430.74 369.06,-430.74 374.71,-430.74"/>
</g>
<!-- node0 -->
<g id="node11" class="node">
<title>node0</title>
<ellipse fill="lightgrey" stroke="black" cx="310.5" cy="-513.54" rx="25.2" ry="25.2"/>
<text text-anchor="middle" x="310.5" y="-509.84" font-family="Times,serif" font-size="14.00">&amp;&amp;</text>
</g>
<!-- node0&#45;&gt;node1 -->
<g id="edge8" class="edge">
<title>node0&#45;&gt;node1</title>
<path fill="none" stroke="black" d="M302.4,-489.17C299.49,-480.78 296.17,-471.19 293.08,-462.29"/>
<polygon fill="black" stroke="black" points="296.43,-461.24 289.85,-452.94 289.81,-463.53 296.43,-461.24"/>
</g>
<!-- node0&#45;&gt;node4 -->
<g id="edge9" class="edge">
<title>node0&#45;&gt;node4</title>
<path fill="none" stroke="black" d="M318.73,-489.6C322.19,-479.98 326.23,-468.71 329.83,-458.69"/>
<polygon fill="black" stroke="black" points="333.05,-460.08 333.13,-449.49 326.46,-457.72 333.05,-460.08"/>
</g>
<!-- table -->
<g id="node12" class="node">
<title>table</title>
<polygon fill="none" stroke="black" points="45.5,-172 45.5,-208 107.5,-208 107.5,-172 45.5,-172"/>
<text text-anchor="start" x="48.5" y="-186.3" font-family="Times,serif" font-size="14.00">trian == 3</text>
<polygon fill="none" stroke="black" points="107.5,-172 107.5,-208 200.5,-208 200.5,-172 107.5,-172"/>
<text text-anchor="start" x="110.5" y="-193.8" font-family="Times,serif" font-size="14.00">ORIGINAL OP</text>
<text text-anchor="start" x="128.5" y="-178.8" font-family="Times,serif" font-size="14.00">b + c &gt; a</text>
<polygon fill="none" stroke="black" points="200.5,-172 200.5,-208 285.5,-208 285.5,-172 200.5,-172"/>
<text text-anchor="start" x="203.5" y="-193.8" font-family="Times,serif" font-size="14.00">MUTANT OP</text>
<text text-anchor="start" x="213.5" y="-178.8" font-family="Times,serif" font-size="14.00">b + c &gt;= a</text>
<polygon fill="none" stroke="black" points="285.5,-172 285.5,-208 427.5,-208 427.5,-172 285.5,-172"/>
<text text-anchor="start" x="309" y="-193.8" font-family="Times,serif" font-size="14.00">ORIGINAL EXP</text>
<text text-anchor="start" x="288.5" y="-178.8" font-family="Times,serif" font-size="14.00">trian == 3 &amp;&amp; b + c &gt; a</text>
<polygon fill="none" stroke="black" points="427.5,-172 427.5,-208 578.5,-208 578.5,-172 427.5,-172"/>
<text text-anchor="start" x="459" y="-193.8" font-family="Times,serif" font-size="14.00">MUTANT EXP</text>
<text text-anchor="start" x="430.5" y="-178.8" font-family="Times,serif" font-size="14.00">trian == 3 &amp;&amp; b + c &gt;= a</text>
<polygon fill="none" stroke="black" points="45.5,-151 45.5,-172 107.5,-172 107.5,-151 45.5,-151"/>
<text text-anchor="start" x="65.5" y="-157.8" font-family="Times,serif" font-size="14.00">true</text>
<polygon fill="none" stroke="black" points="107.5,-151 107.5,-172 200.5,-172 200.5,-151 107.5,-151"/>
<text text-anchor="start" x="143" y="-157.8" font-family="Times,serif" font-size="14.00">true</text>
<polygon fill="none" stroke="black" points="200.5,-151 200.5,-172 285.5,-172 285.5,-151 200.5,-151"/>
<text text-anchor="start" x="232" y="-157.8" font-family="Times,serif" font-size="14.00">true</text>
<polygon fill="none" stroke="black" points="285.5,-151 285.5,-172 427.5,-172 427.5,-151 285.5,-151"/>
<text text-anchor="start" x="345.5" y="-157.8" font-family="Times,serif" font-size="14.00">true</text>
<polygon fill="none" stroke="black" points="427.5,-151 427.5,-172 578.5,-172 578.5,-151 427.5,-151"/>
<text text-anchor="start" x="492" y="-157.8" font-family="Times,serif" font-size="14.00">true</text>
<polygon fill="lightgreen" stroke="none" points="45.5,-130 45.5,-151 107.5,-151 107.5,-130 45.5,-130"/>
<polygon fill="none" stroke="black" points="45.5,-130 45.5,-151 107.5,-151 107.5,-130 45.5,-130"/>
<text text-anchor="start" x="65.5" y="-136.8" font-family="Times,serif" font-size="14.00">true</text>
<polygon fill="lightgreen" stroke="none" points="107.5,-130 107.5,-151 200.5,-151 200.5,-130 107.5,-130"/>
<polygon fill="none" stroke="black" points="107.5,-130 107.5,-151 200.5,-151 200.5,-130 107.5,-130"/>
<text text-anchor="start" x="143" y="-136.8" font-family="Times,serif" font-size="14.00">true</text>
<polygon fill="lightgreen" stroke="none" points="200.5,-130 200.5,-151 285.5,-151 285.5,-130 200.5,-130"/>
<polygon fill="none" stroke="black" points="200.5,-130 200.5,-151 285.5,-151 285.5,-130 200.5,-130"/>
<text text-anchor="start" x="230" y="-136.8" font-family="Times,serif" font-size="14.00">false</text>
<polygon fill="lightgreen" stroke="none" points="285.5,-130 285.5,-151 427.5,-151 427.5,-130 285.5,-130"/>
<polygon fill="none" stroke="black" points="285.5,-130 285.5,-151 427.5,-151 427.5,-130 285.5,-130"/>
<text text-anchor="start" x="345.5" y="-136.8" font-family="Times,serif" font-size="14.00">true</text>
<polygon fill="lightgreen" stroke="none" points="427.5,-130 427.5,-151 578.5,-151 578.5,-130 427.5,-130"/>
<polygon fill="none" stroke="black" points="427.5,-130 427.5,-151 578.5,-151 578.5,-130 427.5,-130"/>
<text text-anchor="start" x="490" y="-136.8" font-family="Times,serif" font-size="14.00">false</text>
<polygon fill="lightgreen" stroke="none" points="45.5,-109 45.5,-130 107.5,-130 107.5,-109 45.5,-109"/>
<polygon fill="none" stroke="black" points="45.5,-109 45.5,-130 107.5,-130 107.5,-109 45.5,-109"/>
<text text-anchor="start" x="65.5" y="-115.8" font-family="Times,serif" font-size="14.00">true</text>
<polygon fill="lightgreen" stroke="none" points="107.5,-109 107.5,-130 200.5,-130 200.5,-109 107.5,-109"/>
<polygon fill="none" stroke="black" points="107.5,-109 107.5,-130 200.5,-130 200.5,-109 107.5,-109"/>
<text text-anchor="start" x="141" y="-115.8" font-family="Times,serif" font-size="14.00">false</text>
<polygon fill="lightgreen" stroke="none" points="200.5,-109 200.5,-130 285.5,-130 285.5,-109 200.5,-109"/>
<polygon fill="none" stroke="black" points="200.5,-109 200.5,-130 285.5,-130 285.5,-109 200.5,-109"/>
<text text-anchor="start" x="232" y="-115.8" font-family="Times,serif" font-size="14.00">true</text>
<polygon fill="lightgreen" stroke="none" points="285.5,-109 285.5,-130 427.5,-130 427.5,-109 285.5,-109"/>
<polygon fill="none" stroke="black" points="285.5,-109 285.5,-130 427.5,-130 427.5,-109 285.5,-109"/>
<text text-anchor="start" x="343.5" y="-115.8" font-family="Times,serif" font-size="14.00">false</text>
<polygon fill="lightgreen" stroke="none" points="427.5,-109 427.5,-130 578.5,-130 578.5,-109 427.5,-109"/>
<polygon fill="none" stroke="black" points="427.5,-109 427.5,-130 578.5,-130 578.5,-109 427.5,-109"/>
<text text-anchor="start" x="492" y="-115.8" font-family="Times,serif" font-size="14.00">true</text>
<polygon fill="none" stroke="black" points="45.5,-88 45.5,-109 107.5,-109 107.5,-88 45.5,-88"/>
<text text-anchor="start" x="65.5" y="-94.8" font-family="Times,serif" font-size="14.00">true</text>
<polygon fill="none" stroke="black" points="107.5,-88 107.5,-109 200.5,-109 200.5,-88 107.5,-88"/>
<text text-anchor="start" x="141" y="-94.8" font-family="Times,serif" font-size="14.00">false</text>
<polygon fill="none" stroke="black" points="200.5,-88 200.5,-109 285.5,-109 285.5,-88 200.5,-88"/>
<text text-anchor="start" x="230" y="-94.8" font-family="Times,serif" font-size="14.00">false</text>
<polygon fill="none" stroke="black" points="285.5,-88 285.5,-109 427.5,-109 427.5,-88 285.5,-88"/>
<text text-anchor="start" x="343.5" y="-94.8" font-family="Times,serif" font-size="14.00">false</text>
<polygon fill="none" stroke="black" points="427.5,-88 427.5,-109 578.5,-109 578.5,-88 427.5,-88"/>
<text text-anchor="start" x="490" y="-94.8" font-family="Times,serif" font-size="14.00">false</text>
<polygon fill="none" stroke="black" points="45.5,-67 45.5,-88 107.5,-88 107.5,-67 45.5,-67"/>
<text text-anchor="start" x="63.5" y="-73.8" font-family="Times,serif" font-size="14.00">false</text>
<polygon fill="none" stroke="black" points="107.5,-67 107.5,-88 200.5,-88 200.5,-67 107.5,-67"/>
<text text-anchor="start" x="143" y="-73.8" font-family="Times,serif" font-size="14.00">true</text>
<polygon fill="none" stroke="black" points="200.5,-67 200.5,-88 285.5,-88 285.5,-67 200.5,-67"/>
<text text-anchor="start" x="232" y="-73.8" font-family="Times,serif" font-size="14.00">true</text>
<polygon fill="none" stroke="black" points="285.5,-67 285.5,-88 427.5,-88 427.5,-67 285.5,-67"/>
<text text-anchor="start" x="343.5" y="-73.8" font-family="Times,serif" font-size="14.00">false</text>
<polygon fill="none" stroke="black" points="427.5,-67 427.5,-88 578.5,-88 578.5,-67 427.5,-67"/>
<text text-anchor="start" x="490" y="-73.8" font-family="Times,serif" font-size="14.00">false</text>
<polygon fill="none" stroke="black" points="45.5,-46 45.5,-67 107.5,-67 107.5,-46 45.5,-46"/>
<text text-anchor="start" x="63.5" y="-52.8" font-family="Times,serif" font-size="14.00">false</text>
<polygon fill="lemonchiffon" stroke="none" points="107.5,-46 107.5,-67 200.5,-67 200.5,-46 107.5,-46"/>
<polygon fill="none" stroke="black" points="107.5,-46 107.5,-67 200.5,-67 200.5,-46 107.5,-46"/>
<text text-anchor="start" x="143" y="-52.8" font-family="Times,serif" font-size="14.00">true</text>
<polygon fill="lemonchiffon" stroke="none" points="200.5,-46 200.5,-67 285.5,-67 285.5,-46 200.5,-46"/>
<polygon fill="none" stroke="black" points="200.5,-46 200.5,-67 285.5,-67 285.5,-46 200.5,-46"/>
<text text-anchor="start" x="230" y="-52.8" font-family="Times,serif" font-size="14.00">false</text>
<polygon fill="lightcoral" stroke="none" points="285.5,-46 285.5,-67 427.5,-67 427.5,-46 285.5,-46"/>
<polygon fill="none" stroke="black" points="285.5,-46 285.5,-67 427.5,-67 427.5,-46 285.5,-46"/>
<text text-anchor="start" x="343.5" y="-52.8" font-family="Times,serif" font-size="14.00">false</text>
<polygon fill="lightcoral" stroke="none" points="427.5,-46 427.5,-67 578.5,-67 578.5,-46 427.5,-46"/>
<polygon fill="none" stroke="black" points="427.5,-46 427.5,-67 578.5,-67 578.5,-46 427.5,-46"/>
<text text-anchor="start" x="490" y="-52.8" font-family="Times,serif" font-size="14.00">false</text>
<polygon fill="none" stroke="black" points="45.5,-25 45.5,-46 107.5,-46 107.5,-25 45.5,-25"/>
<text text-anchor="start" x="63.5" y="-31.8" font-family="Times,serif" font-size="14.00">false</text>
<polygon fill="lemonchiffon" stroke="none" points="107.5,-25 107.5,-46 200.5,-46 200.5,-25 107.5,-25"/>
<polygon fill="none" stroke="black" points="107.5,-25 107.5,-46 200.5,-46 200.5,-25 107.5,-25"/>
<text text-anchor="start" x="141" y="-31.8" font-family="Times,serif" font-size="14.00">false</text>
<polygon fill="lemonchiffon" stroke="none" points="200.5,-25 200.5,-46 285.5,-46 285.5,-25 200.5,-25"/>
<polygon fill="none" stroke="black" points="200.5,-25 200.5,-46 285.5,-46 285.5,-25 200.5,-25"/>
<text text-anchor="start" x="232" y="-31.8" font-family="Times,serif" font-size="14.00">true</text>
<polygon fill="lightcoral" stroke="none" points="285.5,-25 285.5,-46 427.5,-46 427.5,-25 285.5,-25"/>
<polygon fill="none" stroke="black" points="285.5,-25 285.5,-46 427.5,-46 427.5,-25 285.5,-25"/>
<text text-anchor="start" x="343.5" y="-31.8" font-family="Times,serif" font-size="14.00">false</text>
<polygon fill="lightcoral" stroke="none" points="427.5,-25 427.5,-46 578.5,-46 578.5,-25 427.5,-25"/>
<polygon fill="none" stroke="black" points="427.5,-25 427.5,-46 578.5,-46 578.5,-25 427.5,-25"/>
<text text-anchor="start" x="490" y="-31.8" font-family="Times,serif" font-size="14.00">false</text>
<polygon fill="none" stroke="black" points="45.5,-4 45.5,-25 107.5,-25 107.5,-4 45.5,-4"/>
<text text-anchor="start" x="63.5" y="-10.8" font-family="Times,serif" font-size="14.00">false</text>
<polygon fill="none" stroke="black" points="107.5,-4 107.5,-25 200.5,-25 200.5,-4 107.5,-4"/>
<text text-anchor="start" x="141" y="-10.8" font-family="Times,serif" font-size="14.00">false</text>
<polygon fill="none" stroke="black" points="200.5,-4 200.5,-25 285.5,-25 285.5,-4 200.5,-4"/>
<text text-anchor="start" x="230" y="-10.8" font-family="Times,serif" font-size="14.00">false</text>
<polygon fill="none" stroke="black" points="285.5,-4 285.5,-25 427.5,-25 427.5,-4 285.5,-4"/>
<text text-anchor="start" x="343.5" y="-10.8" font-family="Times,serif" font-size="14.00">false</text>
<polygon fill="none" stroke="black" points="427.5,-4 427.5,-25 578.5,-25 578.5,-4 427.5,-4"/>
<text text-anchor="start" x="490" y="-10.8" font-family="Times,serif" font-size="14.00">false</text>
</g>
</g>
</svg>
