<?xml version="1.0" encoding="UTF-8" standalone="no"?>
<!DOCTYPE svg PUBLIC "-//W3C//DTD SVG 1.1//EN"
 "http://www.w3.org/Graphics/SVG/1.1/DTD/svg11.dtd">
<!-- Generated by graphviz version 7.0.6 (20230106.0513)
 -->
<!-- Title: structs Pages: 1 -->
<svg width="422pt" height="276pt"
 viewBox="0.00 0.00 422.00 275.79" xmlns="http://www.w3.org/2000/svg" xmlns:xlink="http://www.w3.org/1999/xlink">
<g id="graph0" class="graph" transform="scale(1 1) rotate(0) translate(4 271.79)">
<title>structs</title>
<polygon fill="white" stroke="none" points="-4,4 -4,-271.79 418,-271.79 418,4 -4,4"/>
<!-- paren -->
<g id="node1" class="node">
<title>paren</title>
<text text-anchor="start" x="8" y="-252.59" font-family="Times,serif" font-size="14.00">ORIGINAL ((((a &lt;= 0) || (b &lt;= 0)) || (c &lt;= 0)))</text>
<text text-anchor="start" x="20" y="-237.59" font-family="Times,serif" font-size="14.00">MUTANT ((((a &lt; 0) || (b &lt;= 0)) || (c &lt; 0)))</text>
</g>
<!-- node3 -->
<g id="node2" class="node">
<title>node3</title>
<ellipse fill="lightgrey" stroke="black" cx="147" cy="-18" rx="18" ry="18"/>
<text text-anchor="middle" x="147" y="-14.3" font-family="Times,serif" font-size="14.00">a</text>
</g>
<!-- node5 -->
<g id="node3" class="node">
<title>node5</title>
<ellipse fill="lightgrey" stroke="black" cx="201" cy="-18" rx="18" ry="18"/>
<text text-anchor="middle" x="201" y="-14.3" font-family="Times,serif" font-size="14.00">0</text>
</g>
<!-- node4 -->
<g id="node4" class="node">
<title>node4</title>
<ellipse fill="MediumSeaGreen" stroke="black" cx="228" cy="-93.45" rx="18" ry="18"/>
<text text-anchor="middle" x="228" y="-89.75" font-family="Times,serif" font-size="14.00">&lt;</text>
</g>
<!-- node2 -->
<g id="node5" class="node">
<title>node2</title>
<ellipse fill="MediumSeaGreen" stroke="black" cx="171" cy="-93.45" rx="21.4" ry="21.4"/>
<text text-anchor="middle" x="171" y="-89.75" font-family="Times,serif" font-size="14.00">&lt;=</text>
</g>
<!-- node2&#45;&gt;node3 -->
<g id="edge2" class="edge">
<title>node2&#45;&gt;node3</title>
<path fill="none" stroke="black" d="M164.57,-72.77C161.9,-64.61 158.77,-55.02 155.89,-46.21"/>
<polygon fill="black" stroke="black" points="159.22,-45.12 152.78,-36.7 152.56,-47.29 159.22,-45.12"/>
</g>
<!-- node2&#45;&gt;node5 -->
<g id="edge3" class="edge">
<title>node2&#45;&gt;node5</title>
<path fill="none" stroke="black" d="M178.88,-73.15C182.34,-64.69 186.45,-54.62 190.19,-45.48"/>
<polygon fill="black" stroke="black" points="193.37,-46.93 193.91,-36.35 186.89,-44.28 193.37,-46.93"/>
</g>
<!-- node2&#45;&gt;node4 -->
<g id="edge1" class="edge">
<title>node2&#45;&gt;node4</title>
<path fill="none" stroke="dimgrey" stroke-dasharray="1,5" d="M192.82,-93.45C198.41,-93.45 204,-93.45 209.59,-93.45"/>
</g>
<!-- node7 -->
<g id="node6" class="node">
<title>node7</title>
<ellipse fill="lightgrey" stroke="black" cx="270" cy="-18" rx="18" ry="18"/>
<text text-anchor="middle" x="270" y="-14.3" font-family="Times,serif" font-size="14.00">b</text>
</g>
<!-- node8 -->
<g id="node7" class="node">
<title>node8</title>
<ellipse fill="lightgrey" stroke="black" cx="324" cy="-18" rx="18" ry="18"/>
<text text-anchor="middle" x="324" y="-14.3" font-family="Times,serif" font-size="14.00">0</text>
</g>
<!-- node6 -->
<g id="node8" class="node">
<title>node6</title>
<ellipse fill="lightgrey" stroke="black" cx="285" cy="-93.45" rx="21.4" ry="21.4"/>
<text text-anchor="middle" x="285" y="-89.75" font-family="Times,serif" font-size="14.00">&lt;=</text>
</g>
<!-- node6&#45;&gt;node7 -->
<g id="edge4" class="edge">
<title>node6&#45;&gt;node7</title>
<path fill="none" stroke="black" d="M280.82,-71.99C279.24,-64.26 277.42,-55.32 275.72,-47.01"/>
<polygon fill="black" stroke="black" points="279.18,-46.46 273.75,-37.37 272.32,-47.86 279.18,-46.46"/>
</g>
<!-- node6&#45;&gt;node8 -->
<g id="edge5" class="edge">
<title>node6&#45;&gt;node8</title>
<path fill="none" stroke="black" d="M294.84,-73.91C299.61,-64.93 305.42,-53.99 310.59,-44.26"/>
<polygon fill="black" stroke="black" points="313.56,-46.12 315.16,-35.64 307.38,-42.84 313.56,-46.12"/>
</g>
<!-- node1 -->
<g id="node9" class="node">
<title>node1</title>
<ellipse fill="lightgrey" stroke="black" cx="285" cy="-172.34" rx="18" ry="18"/>
<text text-anchor="middle" x="285" y="-168.64" font-family="Times,serif" font-size="14.00">||</text>
</g>
<!-- node1&#45;&gt;node2 -->
<g id="edge6" class="edge">
<title>node1&#45;&gt;node2</title>
<path fill="none" stroke="black" d="M270.11,-161.38C253.3,-150.13 225.15,-131.24 201,-114.9 199.98,-114.21 198.95,-113.5 197.9,-112.79"/>
<polygon fill="black" stroke="black" points="199.93,-109.94 189.69,-107.21 195.99,-115.73 199.93,-109.94"/>
</g>
<!-- node1&#45;&gt;node6 -->
<g id="edge7" class="edge">
<title>node1&#45;&gt;node6</title>
<path fill="none" stroke="black" d="M285,-153.9C285,-145.79 285,-135.9 285,-126.52"/>
<polygon fill="black" stroke="black" points="288.5,-126.62 285,-116.62 281.5,-126.62 288.5,-126.62"/>
</g>
<!-- node10 -->
<g id="node10" class="node">
<title>node10</title>
<ellipse fill="lightgrey" stroke="black" cx="342" cy="-93.45" rx="18" ry="18"/>
<text text-anchor="middle" x="342" y="-89.75" font-family="Times,serif" font-size="14.00">c</text>
</g>
<!-- node12 -->
<g id="node11" class="node">
<title>node12</title>
<ellipse fill="lightgrey" stroke="black" cx="396" cy="-93.45" rx="18" ry="18"/>
<text text-anchor="middle" x="396" y="-89.75" font-family="Times,serif" font-size="14.00">0</text>
</g>
<!-- node9 -->
<g id="node12" class="node">
<title>node9</title>
<ellipse fill="lightgrey" stroke="black" cx="342" cy="-172.34" rx="21.4" ry="21.4"/>
<text text-anchor="middle" x="342" y="-168.64" font-family="Times,serif" font-size="14.00">&lt;=</text>
</g>
<!-- node9&#45;&gt;node10 -->
<g id="edge8" class="edge">
<title>node9&#45;&gt;node10</title>
<path fill="none" stroke="black" d="M342,-150.74C342,-142.26 342,-132.3 342,-123.13"/>
<polygon fill="black" stroke="black" points="345.5,-123.24 342,-113.24 338.5,-123.24 345.5,-123.24"/>
</g>
<!-- node9&#45;&gt;node12 -->
<g id="edge9" class="edge">
<title>node9&#45;&gt;node12</title>
<path fill="none" stroke="black" d="M353.98,-154.28C361.46,-143.63 371.19,-129.78 379.4,-118.08"/>
<polygon fill="black" stroke="black" points="382.11,-120.32 384.99,-110.12 376.38,-116.29 382.11,-120.32"/>
</g>
<!-- node0 -->
<g id="node13" class="node">
<title>node0</title>
<ellipse fill="lightgrey" stroke="black" cx="314" cy="-248.79" rx="18" ry="18"/>
<text text-anchor="middle" x="314" y="-245.09" font-family="Times,serif" font-size="14.00">||</text>
</g>
<!-- node0&#45;&gt;node1 -->
<g id="edge10" class="edge">
<title>node0&#45;&gt;node1</title>
<path fill="none" stroke="black" d="M307.71,-231.64C304.1,-222.37 299.47,-210.5 295.34,-199.9"/>
<polygon fill="black" stroke="black" points="298.72,-198.92 291.83,-190.88 292.2,-201.47 298.72,-198.92"/>
</g>
<!-- node0&#45;&gt;node9 -->
<g id="edge11" class="edge">
<title>node0&#45;&gt;node9</title>
<path fill="none" stroke="black" d="M320.08,-231.64C323.18,-223.37 327.07,-213.04 330.7,-203.38"/>
<polygon fill="black" stroke="black" points="333.87,-204.91 334.11,-194.32 327.31,-202.45 333.87,-204.91"/>
</g>
</g>
</svg>
