<?xml version="1.0" encoding="UTF-8" standalone="no"?>
<!DOCTYPE svg PUBLIC "-//W3C//DTD SVG 1.1//EN"
 "http://www.w3.org/Graphics/SVG/1.1/DTD/svg11.dtd">
<!-- Generated by graphviz version 7.0.6 (20230106.0513)
 -->
<!-- Title: structs Pages: 1 -->
<svg width="430pt" height="205pt"
 viewBox="0.00 0.00 430.00 205.00" xmlns="http://www.w3.org/2000/svg" xmlns:xlink="http://www.w3.org/1999/xlink">
<g id="graph0" class="graph" transform="scale(1 1) rotate(0) translate(4 201)">
<title>structs</title>
<polygon fill="white" stroke="none" points="-4,4 -4,-201 426,-201 426,4 -4,4"/>
<!-- table -->
<g id="node1" class="node">
<title>table</title>
<polygon fill="none" stroke="black" points="8,-171.5 8,-192.5 74,-192.5 74,-171.5 8,-171.5"/>
<text text-anchor="start" x="11" y="-179.3" font-family="Times,serif" font-size="14.00">a </text>
<text text-anchor="start" x="21" y="-179.3" font-family="Times,serif" font-size="14.00" fill="lightskyblue">+ </text>
<text text-anchor="start" x="34" y="-179.3" font-family="Times,serif" font-size="14.00">b &lt;= c</text>
<polygon fill="none" stroke="black" points="74,-171.5 74,-192.5 139,-192.5 139,-171.5 74,-171.5"/>
<text text-anchor="start" x="77" y="-178.3" font-family="Times,serif" font-size="14.00">a + c &lt;= b</text>
<polygon fill="none" stroke="black" points="139,-171.5 139,-192.5 204,-192.5 204,-171.5 139,-171.5"/>
<text text-anchor="start" x="142" y="-178.3" font-family="Times,serif" font-size="14.00">b + c &lt;= a</text>
<polygon fill="none" stroke="black" points="204,-171.5 204,-192.5 414,-192.5 414,-171.5 204,-171.5"/>
<text text-anchor="start" x="207" y="-179.3" font-family="Times,serif" font-size="14.00">a </text>
<text text-anchor="start" x="217" y="-179.3" font-family="Times,serif" font-size="14.00" fill="lightskyblue">+ </text>
<text text-anchor="start" x="230" y="-179.3" font-family="Times,serif" font-size="14.00">b &lt;= c || a + c &lt;= b || b + c &lt;= a</text>
<polygon fill="none" stroke="black" points="8,-150.5 8,-171.5 74,-171.5 74,-150.5 8,-150.5"/>
<text text-anchor="start" x="30" y="-157.3" font-family="Times,serif" font-size="14.00">true</text>
<polygon fill="none" stroke="black" points="74,-150.5 74,-171.5 139,-171.5 139,-150.5 74,-150.5"/>
<text text-anchor="start" x="95.5" y="-157.3" font-family="Times,serif" font-size="14.00">true</text>
<polygon fill="none" stroke="black" points="139,-150.5 139,-171.5 204,-171.5 204,-150.5 139,-150.5"/>
<text text-anchor="start" x="160.5" y="-157.3" font-family="Times,serif" font-size="14.00">true</text>
<polygon fill="none" stroke="black" points="204,-150.5 204,-171.5 414,-171.5 414,-150.5 204,-150.5"/>
<text text-anchor="start" x="298" y="-157.3" font-family="Times,serif" font-size="14.00">true</text>
<polygon fill="none" stroke="black" points="8,-129.5 8,-150.5 74,-150.5 74,-129.5 8,-129.5"/>
<text text-anchor="start" x="30" y="-136.3" font-family="Times,serif" font-size="14.00">true</text>
<polygon fill="none" stroke="black" points="74,-129.5 74,-150.5 139,-150.5 139,-129.5 74,-129.5"/>
<text text-anchor="start" x="95.5" y="-136.3" font-family="Times,serif" font-size="14.00">true</text>
<polygon fill="none" stroke="black" points="139,-129.5 139,-150.5 204,-150.5 204,-129.5 139,-129.5"/>
<text text-anchor="start" x="158.5" y="-136.3" font-family="Times,serif" font-size="14.00">false</text>
<polygon fill="none" stroke="black" points="204,-129.5 204,-150.5 414,-150.5 414,-129.5 204,-129.5"/>
<text text-anchor="start" x="298" y="-136.3" font-family="Times,serif" font-size="14.00">true</text>
<polygon fill="none" stroke="black" points="8,-108.5 8,-129.5 74,-129.5 74,-108.5 8,-108.5"/>
<text text-anchor="start" x="30" y="-115.3" font-family="Times,serif" font-size="14.00">true</text>
<polygon fill="none" stroke="black" points="74,-108.5 74,-129.5 139,-129.5 139,-108.5 74,-108.5"/>
<text text-anchor="start" x="93.5" y="-115.3" font-family="Times,serif" font-size="14.00">false</text>
<polygon fill="none" stroke="black" points="139,-108.5 139,-129.5 204,-129.5 204,-108.5 139,-108.5"/>
<text text-anchor="start" x="160.5" y="-115.3" font-family="Times,serif" font-size="14.00">true</text>
<polygon fill="none" stroke="black" points="204,-108.5 204,-129.5 414,-129.5 414,-108.5 204,-108.5"/>
<text text-anchor="start" x="298" y="-115.3" font-family="Times,serif" font-size="14.00">true</text>
<polygon fill="lightskyblue" stroke="none" points="8,-87.5 8,-108.5 74,-108.5 74,-87.5 8,-87.5"/>
<polygon fill="none" stroke="black" points="8,-87.5 8,-108.5 74,-108.5 74,-87.5 8,-87.5"/>
<text text-anchor="start" x="30" y="-94.3" font-family="Times,serif" font-size="14.00">true</text>
<polygon fill="lemonchiffon" stroke="none" points="74,-87.5 74,-108.5 139,-108.5 139,-87.5 74,-87.5"/>
<polygon fill="none" stroke="black" points="74,-87.5 74,-108.5 139,-108.5 139,-87.5 74,-87.5"/>
<text text-anchor="start" x="93.5" y="-94.3" font-family="Times,serif" font-size="14.00">false</text>
<polygon fill="lemonchiffon" stroke="none" points="139,-87.5 139,-108.5 204,-108.5 204,-87.5 139,-87.5"/>
<polygon fill="none" stroke="black" points="139,-87.5 139,-108.5 204,-108.5 204,-87.5 139,-87.5"/>
<text text-anchor="start" x="158.5" y="-94.3" font-family="Times,serif" font-size="14.00">false</text>
<polygon fill="lightskyblue" stroke="none" points="204,-87.5 204,-108.5 414,-108.5 414,-87.5 204,-87.5"/>
<polygon fill="none" stroke="black" points="204,-87.5 204,-108.5 414,-108.5 414,-87.5 204,-87.5"/>
<text text-anchor="start" x="298" y="-94.3" font-family="Times,serif" font-size="14.00">true</text>
<polygon fill="none" stroke="black" points="8,-66.5 8,-87.5 74,-87.5 74,-66.5 8,-66.5"/>
<text text-anchor="start" x="28" y="-73.3" font-family="Times,serif" font-size="14.00">false</text>
<polygon fill="none" stroke="black" points="74,-66.5 74,-87.5 139,-87.5 139,-66.5 74,-66.5"/>
<text text-anchor="start" x="95.5" y="-73.3" font-family="Times,serif" font-size="14.00">true</text>
<polygon fill="none" stroke="black" points="139,-66.5 139,-87.5 204,-87.5 204,-66.5 139,-66.5"/>
<text text-anchor="start" x="160.5" y="-73.3" font-family="Times,serif" font-size="14.00">true</text>
<polygon fill="none" stroke="black" points="204,-66.5 204,-87.5 414,-87.5 414,-66.5 204,-66.5"/>
<text text-anchor="start" x="298" y="-73.3" font-family="Times,serif" font-size="14.00">true</text>
<polygon fill="none" stroke="black" points="8,-45.5 8,-66.5 74,-66.5 74,-45.5 8,-45.5"/>
<text text-anchor="start" x="28" y="-52.3" font-family="Times,serif" font-size="14.00">false</text>
<polygon fill="none" stroke="black" points="74,-45.5 74,-66.5 139,-66.5 139,-45.5 74,-45.5"/>
<text text-anchor="start" x="95.5" y="-52.3" font-family="Times,serif" font-size="14.00">true</text>
<polygon fill="none" stroke="black" points="139,-45.5 139,-66.5 204,-66.5 204,-45.5 139,-45.5"/>
<text text-anchor="start" x="158.5" y="-52.3" font-family="Times,serif" font-size="14.00">false</text>
<polygon fill="none" stroke="black" points="204,-45.5 204,-66.5 414,-66.5 414,-45.5 204,-45.5"/>
<text text-anchor="start" x="298" y="-52.3" font-family="Times,serif" font-size="14.00">true</text>
<polygon fill="none" stroke="black" points="8,-24.5 8,-45.5 74,-45.5 74,-24.5 8,-24.5"/>
<text text-anchor="start" x="28" y="-31.3" font-family="Times,serif" font-size="14.00">false</text>
<polygon fill="none" stroke="black" points="74,-24.5 74,-45.5 139,-45.5 139,-24.5 74,-24.5"/>
<text text-anchor="start" x="93.5" y="-31.3" font-family="Times,serif" font-size="14.00">false</text>
<polygon fill="none" stroke="black" points="139,-24.5 139,-45.5 204,-45.5 204,-24.5 139,-24.5"/>
<text text-anchor="start" x="160.5" y="-31.3" font-family="Times,serif" font-size="14.00">true</text>
<polygon fill="none" stroke="black" points="204,-24.5 204,-45.5 414,-45.5 414,-24.5 204,-24.5"/>
<text text-anchor="start" x="298" y="-31.3" font-family="Times,serif" font-size="14.00">true</text>
<polygon fill="lightskyblue" stroke="none" points="8,-3.5 8,-24.5 74,-24.5 74,-3.5 8,-3.5"/>
<polygon fill="none" stroke="black" points="8,-3.5 8,-24.5 74,-24.5 74,-3.5 8,-3.5"/>
<text text-anchor="start" x="28" y="-10.3" font-family="Times,serif" font-size="14.00">false</text>
<polygon fill="lemonchiffon" stroke="none" points="74,-3.5 74,-24.5 139,-24.5 139,-3.5 74,-3.5"/>
<polygon fill="none" stroke="black" points="74,-3.5 74,-24.5 139,-24.5 139,-3.5 74,-3.5"/>
<text text-anchor="start" x="93.5" y="-10.3" font-family="Times,serif" font-size="14.00">false</text>
<polygon fill="lemonchiffon" stroke="none" points="139,-3.5 139,-24.5 204,-24.5 204,-3.5 139,-3.5"/>
<polygon fill="none" stroke="black" points="139,-3.5 139,-24.5 204,-24.5 204,-3.5 139,-3.5"/>
<text text-anchor="start" x="158.5" y="-10.3" font-family="Times,serif" font-size="14.00">false</text>
<polygon fill="lightskyblue" stroke="none" points="204,-3.5 204,-24.5 414,-24.5 414,-3.5 204,-3.5"/>
<polygon fill="none" stroke="black" points="204,-3.5 204,-24.5 414,-24.5 414,-3.5 204,-3.5"/>
<text text-anchor="start" x="296" y="-10.3" font-family="Times,serif" font-size="14.00">false</text>
</g>
</g>
</svg>
