<?xml version="1.0" encoding="UTF-8" standalone="no"?>
<!DOCTYPE svg PUBLIC "-//W3C//DTD SVG 1.1//EN"
 "http://www.w3.org/Graphics/SVG/1.1/DTD/svg11.dtd">
<!-- Generated by graphviz version 7.0.6 (20230106.0513)
 -->
<!-- Title: structs Pages: 1 -->
<svg width="467pt" height="332pt"
 viewBox="0.00 0.00 467.00 332.00" xmlns="http://www.w3.org/2000/svg" xmlns:xlink="http://www.w3.org/1999/xlink">
<g id="graph0" class="graph" transform="scale(1 1) rotate(0) translate(4 328)">
<title>structs</title>
<polygon fill="white" stroke="none" points="-4,4 -4,-328 463,-328 463,4 -4,4"/>
<!-- node3 -->
<g id="node1" class="node">
<title>node3</title>
<ellipse fill="lightgrey" stroke="black" cx="27" cy="-18" rx="27" ry="18"/>
<text text-anchor="middle" x="27" y="-14.3" font-family="Times,serif" font-size="14.00">a</text>
</g>
<!-- node4 -->
<g id="node2" class="node">
<title>node4</title>
<ellipse fill="lightgrey" stroke="black" cx="99" cy="-18" rx="27" ry="18"/>
<text text-anchor="middle" x="99" y="-14.3" font-family="Times,serif" font-size="14.00">b</text>
</g>
<!-- node2 -->
<g id="node3" class="node">
<title>node2</title>
<ellipse fill="lightskyblue" stroke="black" cx="81" cy="-90" rx="27" ry="18"/>
<text text-anchor="middle" x="81" y="-86.3" font-family="Times,serif" font-size="14.00">+</text>
</g>
<!-- node2&#45;&gt;node3 -->
<g id="edge1" class="edge">
<title>node2&#45;&gt;node3</title>
<path fill="none" stroke="black" d="M69.02,-73.46C62.23,-64.67 53.6,-53.48 45.92,-43.53"/>
<polygon fill="black" stroke="black" points="48.75,-41.47 39.88,-35.69 43.21,-45.75 48.75,-41.47"/>
</g>
<!-- node2&#45;&gt;node4 -->
<g id="edge2" class="edge">
<title>node2&#45;&gt;node4</title>
<path fill="none" stroke="black" d="M85.36,-72.05C87.3,-64.49 89.65,-55.37 91.84,-46.85"/>
<polygon fill="black" stroke="black" points="95.21,-47.81 94.31,-37.25 88.43,-46.07 95.21,-47.81"/>
</g>
<!-- node12 -->
<g id="node4" class="node">
<title>node12</title>
<ellipse fill="lightgrey" stroke="black" cx="153" cy="-162" rx="27" ry="18"/>
<text text-anchor="middle" x="153" y="-158.3" font-family="Times,serif" font-size="14.00">&lt;=</text>
</g>
<!-- node12&#45;&gt;node2 -->
<g id="edge3" class="edge">
<title>node12&#45;&gt;node2</title>
<path fill="none" stroke="black" d="M138.08,-146.5C128.23,-136.92 115.14,-124.19 103.97,-113.34"/>
<polygon fill="black" stroke="black" points="106.59,-111 96.98,-106.54 101.71,-116.02 106.59,-111"/>
</g>
<!-- node13 -->
<g id="node5" class="node">
<title>node13</title>
<ellipse fill="lightgrey" stroke="black" cx="153" cy="-90" rx="27" ry="18"/>
<text text-anchor="middle" x="153" y="-86.3" font-family="Times,serif" font-size="14.00">c</text>
</g>
<!-- node12&#45;&gt;node13 -->
<g id="edge4" class="edge">
<title>node12&#45;&gt;node13</title>
<path fill="none" stroke="black" d="M153,-143.7C153,-136.41 153,-127.73 153,-119.54"/>
<polygon fill="black" stroke="black" points="156.5,-119.62 153,-109.62 149.5,-119.62 156.5,-119.62"/>
</g>
<!-- node23 -->
<g id="node6" class="node">
<title>node23</title>
<ellipse fill="lightgrey" stroke="black" cx="207" cy="-18" rx="27" ry="18"/>
<text text-anchor="middle" x="207" y="-14.3" font-family="Times,serif" font-size="14.00">a</text>
</g>
<!-- node24 -->
<g id="node7" class="node">
<title>node24</title>
<ellipse fill="lightgrey" stroke="black" cx="279" cy="-18" rx="27" ry="18"/>
<text text-anchor="middle" x="279" y="-14.3" font-family="Times,serif" font-size="14.00">c</text>
</g>
<!-- node22 -->
<g id="node8" class="node">
<title>node22</title>
<ellipse fill="lightgrey" stroke="black" cx="225" cy="-90" rx="27" ry="18"/>
<text text-anchor="middle" x="225" y="-86.3" font-family="Times,serif" font-size="14.00">+</text>
</g>
<!-- node22&#45;&gt;node23 -->
<g id="edge5" class="edge">
<title>node22&#45;&gt;node23</title>
<path fill="none" stroke="black" d="M220.64,-72.05C218.7,-64.49 216.35,-55.37 214.16,-46.85"/>
<polygon fill="black" stroke="black" points="217.57,-46.07 211.69,-37.25 210.79,-47.81 217.57,-46.07"/>
</g>
<!-- node22&#45;&gt;node24 -->
<g id="edge6" class="edge">
<title>node22&#45;&gt;node24</title>
<path fill="none" stroke="black" d="M236.98,-73.46C243.77,-64.67 252.4,-53.48 260.08,-43.53"/>
<polygon fill="black" stroke="black" points="262.79,-45.75 266.12,-35.69 257.25,-41.47 262.79,-45.75"/>
</g>
<!-- node212 -->
<g id="node9" class="node">
<title>node212</title>
<ellipse fill="lightgrey" stroke="black" cx="297" cy="-162" rx="27" ry="18"/>
<text text-anchor="middle" x="297" y="-158.3" font-family="Times,serif" font-size="14.00">&lt;=</text>
</g>
<!-- node212&#45;&gt;node22 -->
<g id="edge7" class="edge">
<title>node212&#45;&gt;node22</title>
<path fill="none" stroke="black" d="M282.08,-146.5C272.23,-136.92 259.14,-124.19 247.97,-113.34"/>
<polygon fill="black" stroke="black" points="250.59,-111 240.98,-106.54 245.71,-116.02 250.59,-111"/>
</g>
<!-- node213 -->
<g id="node10" class="node">
<title>node213</title>
<ellipse fill="lightgrey" stroke="black" cx="297" cy="-90" rx="27" ry="18"/>
<text text-anchor="middle" x="297" y="-86.3" font-family="Times,serif" font-size="14.00">b</text>
</g>
<!-- node212&#45;&gt;node213 -->
<g id="edge8" class="edge">
<title>node212&#45;&gt;node213</title>
<path fill="none" stroke="black" d="M297,-143.7C297,-136.41 297,-127.73 297,-119.54"/>
<polygon fill="black" stroke="black" points="300.5,-119.62 297,-109.62 293.5,-119.62 300.5,-119.62"/>
</g>
<!-- node32 -->
<g id="node13" class="node">
<title>node32</title>
<ellipse fill="lightgrey" stroke="black" cx="369" cy="-90" rx="27" ry="18"/>
<text text-anchor="middle" x="369" y="-86.3" font-family="Times,serif" font-size="14.00">+</text>
</g>
<!-- node212&#45;&gt;node32 -->
<g id="edge17" class="edge">
<title>node212&#45;&gt;node32</title>
<path fill="none" stroke="white" d="M311.92,-146.5C321.77,-136.92 334.86,-124.19 346.03,-113.34"/>
<polygon fill="white" stroke="white" points="348.29,-116.02 353.02,-106.54 343.41,-111 348.29,-116.02"/>
</g>
<!-- node33 -->
<g id="node11" class="node">
<title>node33</title>
<ellipse fill="lightgrey" stroke="black" cx="360" cy="-18" rx="27" ry="18"/>
<text text-anchor="middle" x="360" y="-14.3" font-family="Times,serif" font-size="14.00">b</text>
</g>
<!-- node34 -->
<g id="node12" class="node">
<title>node34</title>
<ellipse fill="lightgrey" stroke="black" cx="432" cy="-18" rx="27" ry="18"/>
<text text-anchor="middle" x="432" y="-14.3" font-family="Times,serif" font-size="14.00">c</text>
</g>
<!-- node32&#45;&gt;node33 -->
<g id="edge9" class="edge">
<title>node32&#45;&gt;node33</title>
<path fill="none" stroke="black" d="M366.78,-71.7C365.83,-64.32 364.7,-55.52 363.63,-47.25"/>
<polygon fill="black" stroke="black" points="367.14,-47.08 362.39,-37.61 360.2,-47.97 367.14,-47.08"/>
</g>
<!-- node32&#45;&gt;node34 -->
<g id="edge10" class="edge">
<title>node32&#45;&gt;node34</title>
<path fill="none" stroke="black" d="M382.36,-74.15C390.71,-64.87 401.65,-52.73 411.13,-42.19"/>
<polygon fill="black" stroke="black" points="413.56,-44.72 417.65,-34.95 408.35,-40.04 413.56,-44.72"/>
</g>
<!-- node312 -->
<g id="node14" class="node">
<title>node312</title>
<ellipse fill="lightgrey" stroke="black" cx="369" cy="-234" rx="27" ry="18"/>
<text text-anchor="middle" x="369" y="-230.3" font-family="Times,serif" font-size="14.00">&lt;=</text>
</g>
<!-- node312&#45;&gt;node32 -->
<g id="edge11" class="edge">
<title>node312&#45;&gt;node32</title>
<path fill="none" stroke="black" d="M369,-215.59C369,-191.61 369,-148.14 369,-119.42"/>
<polygon fill="black" stroke="black" points="372.5,-119.62 369,-109.62 365.5,-119.62 372.5,-119.62"/>
</g>
<!-- node313 -->
<g id="node15" class="node">
<title>node313</title>
<ellipse fill="lightgrey" stroke="black" cx="424" cy="-162" rx="27" ry="18"/>
<text text-anchor="middle" x="424" y="-158.3" font-family="Times,serif" font-size="14.00">a</text>
</g>
<!-- node312&#45;&gt;node313 -->
<g id="edge12" class="edge">
<title>node312&#45;&gt;node313</title>
<path fill="none" stroke="black" d="M381.21,-217.46C388.11,-208.67 396.91,-197.48 404.73,-187.53"/>
<polygon fill="black" stroke="black" points="407.47,-189.71 410.89,-179.68 401.96,-185.38 407.47,-189.71"/>
</g>
<!-- node41 -->
<g id="node16" class="node">
<title>node41</title>
<ellipse fill="lightgrey" stroke="black" cx="297" cy="-234" rx="27" ry="18"/>
<text text-anchor="middle" x="297" y="-230.3" font-family="Times,serif" font-size="14.00">||</text>
</g>
<!-- node41&#45;&gt;node12 -->
<g id="edge13" class="edge">
<title>node41&#45;&gt;node12</title>
<path fill="none" stroke="black" d="M275.44,-222.52C251.34,-210.8 212.08,-191.72 184.53,-178.32"/>
<polygon fill="black" stroke="black" points="186.12,-175.21 175.6,-173.98 183.06,-181.5 186.12,-175.21"/>
</g>
<!-- node41&#45;&gt;node212 -->
<g id="edge14" class="edge">
<title>node41&#45;&gt;node212</title>
<path fill="none" stroke="black" d="M297,-215.7C297,-208.41 297,-199.73 297,-191.54"/>
<polygon fill="black" stroke="black" points="300.5,-191.62 297,-181.62 293.5,-191.62 300.5,-191.62"/>
</g>
<!-- node51 -->
<g id="node17" class="node">
<title>node51</title>
<ellipse fill="lightgrey" stroke="black" cx="333" cy="-306" rx="27" ry="18"/>
<text text-anchor="middle" x="333" y="-302.3" font-family="Times,serif" font-size="14.00">||</text>
</g>
<!-- node51&#45;&gt;node312 -->
<g id="edge15" class="edge">
<title>node51&#45;&gt;node312</title>
<path fill="none" stroke="black" d="M341.35,-288.76C345.58,-280.55 350.81,-270.37 355.58,-261.09"/>
<polygon fill="black" stroke="black" points="358.54,-262.99 360,-252.49 352.32,-259.79 358.54,-262.99"/>
</g>
<!-- node51&#45;&gt;node41 -->
<g id="edge16" class="edge">
<title>node51&#45;&gt;node41</title>
<path fill="none" stroke="black" d="M324.65,-288.76C320.42,-280.55 315.19,-270.37 310.42,-261.09"/>
<polygon fill="black" stroke="black" points="313.68,-259.79 306,-252.49 307.46,-262.99 313.68,-259.79"/>
</g>
</g>
</svg>
