<?xml version="1.0" encoding="UTF-8" standalone="no"?>
<!DOCTYPE svg PUBLIC "-//W3C//DTD SVG 1.1//EN"
 "http://www.w3.org/Graphics/SVG/1.1/DTD/svg11.dtd">
<!-- Generated by graphviz version 7.0.6 (20230106.0513)
 -->
<!-- Title: structs Pages: 1 -->
<svg width="575pt" height="205pt"
 viewBox="0.00 0.00 575.00 205.00" xmlns="http://www.w3.org/2000/svg" xmlns:xlink="http://www.w3.org/1999/xlink">
<g id="graph0" class="graph" transform="scale(1 1) rotate(0) translate(4 201)">
<title>structs</title>
<polygon fill="white" stroke="none" points="-4,4 -4,-201 571,-201 571,4 -4,4"/>
<!-- table -->
<g id="node1" class="node">
<title>table</title>
<polygon fill="none" stroke="black" points="8.5,-171.5 8.5,-192.5 73.5,-192.5 73.5,-171.5 8.5,-171.5"/>
<text text-anchor="start" x="11.5" y="-178.3" font-family="Times,serif" font-size="14.00">a + b &lt;= c</text>
<polygon fill="none" stroke="black" points="73.5,-171.5 73.5,-192.5 138.5,-192.5 138.5,-171.5 73.5,-171.5"/>
<text text-anchor="start" x="76.5" y="-178.3" font-family="Times,serif" font-size="14.00">a + c &lt;= b</text>
<polygon fill="none" stroke="black" points="138.5,-171.5 138.5,-192.5 203.5,-192.5 203.5,-171.5 138.5,-171.5"/>
<text text-anchor="start" x="141.5" y="-178.3" font-family="Times,serif" font-size="14.00">b + c &lt;= a</text>
<polygon fill="none" stroke="black" points="203.5,-171.5 203.5,-192.5 345.5,-192.5 345.5,-171.5 203.5,-171.5"/>
<text text-anchor="start" x="206.5" y="-179.3" font-family="Times,serif" font-size="14.00">a + b &lt;= c </text>
<text text-anchor="start" x="269.5" y="-179.3" font-family="Times,serif" font-size="14.00" fill="lightskyblue">|| </text>
<text text-anchor="start" x="279.5" y="-179.3" font-family="Times,serif" font-size="14.00"> a + c &lt;= b</text>
<polygon fill="none" stroke="black" points="345.5,-171.5 345.5,-192.5 559.5,-192.5 559.5,-171.5 345.5,-171.5"/>
<text text-anchor="start" x="348.5" y="-179.3" font-family="Times,serif" font-size="14.00">a + b &lt;= c </text>
<text text-anchor="start" x="411.5" y="-179.3" font-family="Times,serif" font-size="14.00" fill="lightskyblue">|| </text>
<text text-anchor="start" x="421.5" y="-179.3" font-family="Times,serif" font-size="14.00"> a + c &lt;= b || b + c &lt;= a</text>
<polygon fill="none" stroke="black" points="8.5,-150.5 8.5,-171.5 73.5,-171.5 73.5,-150.5 8.5,-150.5"/>
<text text-anchor="start" x="30" y="-157.3" font-family="Times,serif" font-size="14.00">true</text>
<polygon fill="none" stroke="black" points="73.5,-150.5 73.5,-171.5 138.5,-171.5 138.5,-150.5 73.5,-150.5"/>
<text text-anchor="start" x="95" y="-157.3" font-family="Times,serif" font-size="14.00">true</text>
<polygon fill="none" stroke="black" points="138.5,-150.5 138.5,-171.5 203.5,-171.5 203.5,-150.5 138.5,-150.5"/>
<text text-anchor="start" x="160" y="-157.3" font-family="Times,serif" font-size="14.00">true</text>
<polygon fill="none" stroke="black" points="203.5,-150.5 203.5,-171.5 345.5,-171.5 345.5,-150.5 203.5,-150.5"/>
<text text-anchor="start" x="261.5" y="-157.3" font-family="Times,serif" font-size="14.00">false</text>
<polygon fill="none" stroke="black" points="345.5,-150.5 345.5,-171.5 559.5,-171.5 559.5,-150.5 345.5,-150.5"/>
<text text-anchor="start" x="441.5" y="-157.3" font-family="Times,serif" font-size="14.00">true</text>
<polygon fill="lemonchiffon" stroke="none" points="8.5,-129.5 8.5,-150.5 73.5,-150.5 73.5,-129.5 8.5,-129.5"/>
<polygon fill="none" stroke="black" points="8.5,-129.5 8.5,-150.5 73.5,-150.5 73.5,-129.5 8.5,-129.5"/>
<text text-anchor="start" x="30" y="-136.3" font-family="Times,serif" font-size="14.00">true</text>
<polygon fill="lemonchiffon" stroke="none" points="73.5,-129.5 73.5,-150.5 138.5,-150.5 138.5,-129.5 73.5,-129.5"/>
<polygon fill="none" stroke="black" points="73.5,-129.5 73.5,-150.5 138.5,-150.5 138.5,-129.5 73.5,-129.5"/>
<text text-anchor="start" x="95" y="-136.3" font-family="Times,serif" font-size="14.00">true</text>
<polygon fill="lemonchiffon" stroke="none" points="138.5,-129.5 138.5,-150.5 203.5,-150.5 203.5,-129.5 138.5,-129.5"/>
<polygon fill="none" stroke="black" points="138.5,-129.5 138.5,-150.5 203.5,-150.5 203.5,-129.5 138.5,-129.5"/>
<text text-anchor="start" x="158" y="-136.3" font-family="Times,serif" font-size="14.00">false</text>
<polygon fill="lightskyblue" stroke="none" points="203.5,-129.5 203.5,-150.5 345.5,-150.5 345.5,-129.5 203.5,-129.5"/>
<polygon fill="none" stroke="black" points="203.5,-129.5 203.5,-150.5 345.5,-150.5 345.5,-129.5 203.5,-129.5"/>
<text text-anchor="start" x="263.5" y="-136.3" font-family="Times,serif" font-size="14.00">true</text>
<polygon fill="lightskyblue" stroke="none" points="345.5,-129.5 345.5,-150.5 559.5,-150.5 559.5,-129.5 345.5,-129.5"/>
<polygon fill="none" stroke="black" points="345.5,-129.5 345.5,-150.5 559.5,-150.5 559.5,-129.5 345.5,-129.5"/>
<text text-anchor="start" x="441.5" y="-136.3" font-family="Times,serif" font-size="14.00">true</text>
<polygon fill="none" stroke="black" points="8.5,-108.5 8.5,-129.5 73.5,-129.5 73.5,-108.5 8.5,-108.5"/>
<text text-anchor="start" x="30" y="-115.3" font-family="Times,serif" font-size="14.00">true</text>
<polygon fill="none" stroke="black" points="73.5,-108.5 73.5,-129.5 138.5,-129.5 138.5,-108.5 73.5,-108.5"/>
<text text-anchor="start" x="93" y="-115.3" font-family="Times,serif" font-size="14.00">false</text>
<polygon fill="none" stroke="black" points="138.5,-108.5 138.5,-129.5 203.5,-129.5 203.5,-108.5 138.5,-108.5"/>
<text text-anchor="start" x="160" y="-115.3" font-family="Times,serif" font-size="14.00">true</text>
<polygon fill="none" stroke="black" points="203.5,-108.5 203.5,-129.5 345.5,-129.5 345.5,-108.5 203.5,-108.5"/>
<text text-anchor="start" x="263.5" y="-115.3" font-family="Times,serif" font-size="14.00">true</text>
<polygon fill="none" stroke="black" points="345.5,-108.5 345.5,-129.5 559.5,-129.5 559.5,-108.5 345.5,-108.5"/>
<text text-anchor="start" x="441.5" y="-115.3" font-family="Times,serif" font-size="14.00">true</text>
<polygon fill="none" stroke="black" points="8.5,-87.5 8.5,-108.5 73.5,-108.5 73.5,-87.5 8.5,-87.5"/>
<text text-anchor="start" x="30" y="-94.3" font-family="Times,serif" font-size="14.00">true</text>
<polygon fill="none" stroke="black" points="73.5,-87.5 73.5,-108.5 138.5,-108.5 138.5,-87.5 73.5,-87.5"/>
<text text-anchor="start" x="93" y="-94.3" font-family="Times,serif" font-size="14.00">false</text>
<polygon fill="none" stroke="black" points="138.5,-87.5 138.5,-108.5 203.5,-108.5 203.5,-87.5 138.5,-87.5"/>
<text text-anchor="start" x="158" y="-94.3" font-family="Times,serif" font-size="14.00">false</text>
<polygon fill="none" stroke="black" points="203.5,-87.5 203.5,-108.5 345.5,-108.5 345.5,-87.5 203.5,-87.5"/>
<text text-anchor="start" x="263.5" y="-94.3" font-family="Times,serif" font-size="14.00">true</text>
<polygon fill="none" stroke="black" points="345.5,-87.5 345.5,-108.5 559.5,-108.5 559.5,-87.5 345.5,-87.5"/>
<text text-anchor="start" x="441.5" y="-94.3" font-family="Times,serif" font-size="14.00">true</text>
<polygon fill="none" stroke="black" points="8.5,-66.5 8.5,-87.5 73.5,-87.5 73.5,-66.5 8.5,-66.5"/>
<text text-anchor="start" x="28" y="-73.3" font-family="Times,serif" font-size="14.00">false</text>
<polygon fill="none" stroke="black" points="73.5,-66.5 73.5,-87.5 138.5,-87.5 138.5,-66.5 73.5,-66.5"/>
<text text-anchor="start" x="95" y="-73.3" font-family="Times,serif" font-size="14.00">true</text>
<polygon fill="none" stroke="black" points="138.5,-66.5 138.5,-87.5 203.5,-87.5 203.5,-66.5 138.5,-66.5"/>
<text text-anchor="start" x="160" y="-73.3" font-family="Times,serif" font-size="14.00">true</text>
<polygon fill="none" stroke="black" points="203.5,-66.5 203.5,-87.5 345.5,-87.5 345.5,-66.5 203.5,-66.5"/>
<text text-anchor="start" x="263.5" y="-73.3" font-family="Times,serif" font-size="14.00">true</text>
<polygon fill="none" stroke="black" points="345.5,-66.5 345.5,-87.5 559.5,-87.5 559.5,-66.5 345.5,-66.5"/>
<text text-anchor="start" x="441.5" y="-73.3" font-family="Times,serif" font-size="14.00">true</text>
<polygon fill="none" stroke="black" points="8.5,-45.5 8.5,-66.5 73.5,-66.5 73.5,-45.5 8.5,-45.5"/>
<text text-anchor="start" x="28" y="-52.3" font-family="Times,serif" font-size="14.00">false</text>
<polygon fill="none" stroke="black" points="73.5,-45.5 73.5,-66.5 138.5,-66.5 138.5,-45.5 73.5,-45.5"/>
<text text-anchor="start" x="95" y="-52.3" font-family="Times,serif" font-size="14.00">true</text>
<polygon fill="none" stroke="black" points="138.5,-45.5 138.5,-66.5 203.5,-66.5 203.5,-45.5 138.5,-45.5"/>
<text text-anchor="start" x="158" y="-52.3" font-family="Times,serif" font-size="14.00">false</text>
<polygon fill="none" stroke="black" points="203.5,-45.5 203.5,-66.5 345.5,-66.5 345.5,-45.5 203.5,-45.5"/>
<text text-anchor="start" x="263.5" y="-52.3" font-family="Times,serif" font-size="14.00">true</text>
<polygon fill="none" stroke="black" points="345.5,-45.5 345.5,-66.5 559.5,-66.5 559.5,-45.5 345.5,-45.5"/>
<text text-anchor="start" x="441.5" y="-52.3" font-family="Times,serif" font-size="14.00">true</text>
<polygon fill="none" stroke="black" points="8.5,-24.5 8.5,-45.5 73.5,-45.5 73.5,-24.5 8.5,-24.5"/>
<text text-anchor="start" x="28" y="-31.3" font-family="Times,serif" font-size="14.00">false</text>
<polygon fill="none" stroke="black" points="73.5,-24.5 73.5,-45.5 138.5,-45.5 138.5,-24.5 73.5,-24.5"/>
<text text-anchor="start" x="93" y="-31.3" font-family="Times,serif" font-size="14.00">false</text>
<polygon fill="none" stroke="black" points="138.5,-24.5 138.5,-45.5 203.5,-45.5 203.5,-24.5 138.5,-24.5"/>
<text text-anchor="start" x="160" y="-31.3" font-family="Times,serif" font-size="14.00">true</text>
<polygon fill="none" stroke="black" points="203.5,-24.5 203.5,-45.5 345.5,-45.5 345.5,-24.5 203.5,-24.5"/>
<text text-anchor="start" x="261.5" y="-31.3" font-family="Times,serif" font-size="14.00">false</text>
<polygon fill="none" stroke="black" points="345.5,-24.5 345.5,-45.5 559.5,-45.5 559.5,-24.5 345.5,-24.5"/>
<text text-anchor="start" x="441.5" y="-31.3" font-family="Times,serif" font-size="14.00">true</text>
<polygon fill="none" stroke="black" points="8.5,-3.5 8.5,-24.5 73.5,-24.5 73.5,-3.5 8.5,-3.5"/>
<text text-anchor="start" x="28" y="-10.3" font-family="Times,serif" font-size="14.00">false</text>
<polygon fill="none" stroke="black" points="73.5,-3.5 73.5,-24.5 138.5,-24.5 138.5,-3.5 73.5,-3.5"/>
<text text-anchor="start" x="93" y="-10.3" font-family="Times,serif" font-size="14.00">false</text>
<polygon fill="none" stroke="black" points="138.5,-3.5 138.5,-24.5 203.5,-24.5 203.5,-3.5 138.5,-3.5"/>
<text text-anchor="start" x="158" y="-10.3" font-family="Times,serif" font-size="14.00">false</text>
<polygon fill="none" stroke="black" points="203.5,-3.5 203.5,-24.5 345.5,-24.5 345.5,-3.5 203.5,-3.5"/>
<text text-anchor="start" x="261.5" y="-10.3" font-family="Times,serif" font-size="14.00">false</text>
<polygon fill="none" stroke="black" points="345.5,-3.5 345.5,-24.5 559.5,-24.5 559.5,-3.5 345.5,-3.5"/>
<text text-anchor="start" x="439.5" y="-10.3" font-family="Times,serif" font-size="14.00">false</text>
</g>
</g>
</svg>
