<?xml version="1.0" encoding="UTF-8" standalone="no"?>
<!DOCTYPE svg PUBLIC "-//W3C//DTD SVG 1.1//EN"
 "http://www.w3.org/Graphics/SVG/1.1/DTD/svg11.dtd">
<!-- Generated by graphviz version 7.0.6 (20230106.0513)
 -->
<!-- Title: structs Pages: 1 -->
<svg width="278pt" height="260pt"
 viewBox="0.00 0.00 278.00 260.00" xmlns="http://www.w3.org/2000/svg" xmlns:xlink="http://www.w3.org/1999/xlink">
<g id="graph0" class="graph" transform="scale(1 1) rotate(0) translate(4 256)">
<title>structs</title>
<polygon fill="white" stroke="none" points="-4,4 -4,-256 274,-256 274,4 -4,4"/>
<!-- node3 -->
<g id="node1" class="node">
<title>node3</title>
<ellipse fill="lightgrey" stroke="black" cx="27" cy="-90" rx="27" ry="18"/>
<text text-anchor="middle" x="27" y="-86.3" font-family="Times,serif" font-size="14.00">trian</text>
</g>
<!-- node4 -->
<g id="node2" class="node">
<title>node4</title>
<ellipse fill="lightgrey" stroke="black" cx="99" cy="-90" rx="27" ry="18"/>
<text text-anchor="middle" x="99" y="-86.3" font-family="Times,serif" font-size="14.00">1</text>
</g>
<!-- node2 -->
<g id="node3" class="node">
<title>node2</title>
<ellipse fill="lightskyblue" stroke="black" cx="99" cy="-162" rx="27" ry="18"/>
<text text-anchor="middle" x="99" y="-158.3" font-family="Times,serif" font-size="14.00">==</text>
</g>
<!-- node2&#45;&gt;node3 -->
<g id="edge1" class="edge">
<title>node2&#45;&gt;node3</title>
<path fill="none" stroke="black" d="M84.08,-146.5C74.23,-136.92 61.14,-124.19 49.97,-113.34"/>
<polygon fill="black" stroke="black" points="52.59,-111 42.98,-106.54 47.71,-116.02 52.59,-111"/>
</g>
<!-- node2&#45;&gt;node4 -->
<g id="edge2" class="edge">
<title>node2&#45;&gt;node4</title>
<path fill="none" stroke="black" d="M99,-143.7C99,-136.41 99,-127.73 99,-119.54"/>
<polygon fill="black" stroke="black" points="102.5,-119.62 99,-109.62 95.5,-119.62 102.5,-119.62"/>
</g>
<!-- node23 -->
<g id="node4" class="node">
<title>node23</title>
<ellipse fill="lightgrey" stroke="black" cx="135" cy="-18" rx="27" ry="18"/>
<text text-anchor="middle" x="135" y="-14.3" font-family="Times,serif" font-size="14.00">a</text>
</g>
<!-- node24 -->
<g id="node5" class="node">
<title>node24</title>
<ellipse fill="lightgrey" stroke="black" cx="207" cy="-18" rx="27" ry="18"/>
<text text-anchor="middle" x="207" y="-14.3" font-family="Times,serif" font-size="14.00">b</text>
</g>
<!-- node22 -->
<g id="node6" class="node">
<title>node22</title>
<ellipse fill="lightgrey" stroke="black" cx="171" cy="-90" rx="27" ry="18"/>
<text text-anchor="middle" x="171" y="-86.3" font-family="Times,serif" font-size="14.00">+</text>
</g>
<!-- node22&#45;&gt;node23 -->
<g id="edge3" class="edge">
<title>node22&#45;&gt;node23</title>
<path fill="none" stroke="black" d="M162.65,-72.76C158.42,-64.55 153.19,-54.37 148.42,-45.09"/>
<polygon fill="black" stroke="black" points="151.68,-43.79 144,-36.49 145.46,-46.99 151.68,-43.79"/>
</g>
<!-- node22&#45;&gt;node24 -->
<g id="edge4" class="edge">
<title>node22&#45;&gt;node24</title>
<path fill="none" stroke="black" d="M179.35,-72.76C183.58,-64.55 188.81,-54.37 193.58,-45.09"/>
<polygon fill="black" stroke="black" points="196.54,-46.99 198,-36.49 190.32,-43.79 196.54,-46.99"/>
</g>
<!-- node212 -->
<g id="node7" class="node">
<title>node212</title>
<ellipse fill="lightgrey" stroke="black" cx="171" cy="-162" rx="27" ry="18"/>
<text text-anchor="middle" x="171" y="-158.3" font-family="Times,serif" font-size="14.00">&gt;</text>
</g>
<!-- node212&#45;&gt;node22 -->
<g id="edge5" class="edge">
<title>node212&#45;&gt;node22</title>
<path fill="none" stroke="black" d="M171,-143.7C171,-136.41 171,-127.73 171,-119.54"/>
<polygon fill="black" stroke="black" points="174.5,-119.62 171,-109.62 167.5,-119.62 174.5,-119.62"/>
</g>
<!-- node213 -->
<g id="node8" class="node">
<title>node213</title>
<ellipse fill="lightgrey" stroke="black" cx="243" cy="-90" rx="27" ry="18"/>
<text text-anchor="middle" x="243" y="-86.3" font-family="Times,serif" font-size="14.00">c</text>
</g>
<!-- node212&#45;&gt;node213 -->
<g id="edge6" class="edge">
<title>node212&#45;&gt;node213</title>
<path fill="none" stroke="black" d="M185.92,-146.5C195.77,-136.92 208.86,-124.19 220.03,-113.34"/>
<polygon fill="black" stroke="black" points="222.29,-116.02 227.02,-106.54 217.41,-111 222.29,-116.02"/>
</g>
<!-- node41 -->
<g id="node9" class="node">
<title>node41</title>
<ellipse fill="lightgrey" stroke="black" cx="135" cy="-234" rx="27" ry="18"/>
<text text-anchor="middle" x="135" y="-230.3" font-family="Times,serif" font-size="14.00">&amp;&amp;</text>
</g>
<!-- node41&#45;&gt;node2 -->
<g id="edge7" class="edge">
<title>node41&#45;&gt;node2</title>
<path fill="none" stroke="black" d="M126.65,-216.76C122.42,-208.55 117.19,-198.37 112.42,-189.09"/>
<polygon fill="black" stroke="black" points="115.68,-187.79 108,-180.49 109.46,-190.99 115.68,-187.79"/>
</g>
<!-- node41&#45;&gt;node212 -->
<g id="edge8" class="edge">
<title>node41&#45;&gt;node212</title>
<path fill="none" stroke="black" d="M143.35,-216.76C147.58,-208.55 152.81,-198.37 157.58,-189.09"/>
<polygon fill="black" stroke="black" points="160.54,-190.99 162,-180.49 154.32,-187.79 160.54,-190.99"/>
</g>
</g>
</svg>
