<?xml version="1.0" encoding="UTF-8" standalone="no"?>
<!DOCTYPE svg PUBLIC "-//W3C//DTD SVG 1.1//EN"
 "http://www.w3.org/Graphics/SVG/1.1/DTD/svg11.dtd">
<!-- Generated by graphviz version 7.0.6 (20230106.0513)
 -->
<!-- Title: structs Pages: 1 -->
<svg width="299pt" height="205pt"
 viewBox="0.00 0.00 299.00 205.00" xmlns="http://www.w3.org/2000/svg" xmlns:xlink="http://www.w3.org/1999/xlink">
<g id="graph0" class="graph" transform="scale(1 1) rotate(0) translate(4 201)">
<title>structs</title>
<polygon fill="white" stroke="none" points="-4,4 -4,-201 295,-201 295,4 -4,4"/>
<!-- table -->
<g id="node1" class="node">
<title>table</title>
<polygon fill="none" stroke="black" points="8.5,-171.5 8.5,-192.5 43.5,-192.5 43.5,-171.5 8.5,-171.5"/>
<text text-anchor="start" x="11.5" y="-178.3" font-family="Times,serif" font-size="14.00">a &lt; 0</text>
<polygon fill="none" stroke="black" points="43.5,-171.5 43.5,-192.5 87.5,-192.5 87.5,-171.5 43.5,-171.5"/>
<text text-anchor="start" x="46.5" y="-178.3" font-family="Times,serif" font-size="14.00" fill="lightskyblue">b &lt;= 0</text>
<polygon fill="none" stroke="black" points="87.5,-171.5 87.5,-192.5 130.5,-192.5 130.5,-171.5 87.5,-171.5"/>
<text text-anchor="start" x="90.5" y="-178.3" font-family="Times,serif" font-size="14.00">c &lt;= 0</text>
<polygon fill="none" stroke="black" points="130.5,-171.5 130.5,-192.5 283.5,-192.5 283.5,-171.5 130.5,-171.5"/>
<text text-anchor="start" x="133.5" y="-179.3" font-family="Times,serif" font-size="14.00">a &lt;= 0 </text>
<text text-anchor="start" x="174.5" y="-179.3" font-family="Times,serif" font-size="14.00" fill="lightskyblue"> || b &lt;= 0 </text>
<text text-anchor="start" x="229.5" y="-179.3" font-family="Times,serif" font-size="14.00"> || c &lt;= 0</text>
<polygon fill="none" stroke="black" points="8.5,-150.5 8.5,-171.5 43.5,-171.5 43.5,-150.5 8.5,-150.5"/>
<text text-anchor="start" x="15" y="-157.3" font-family="Times,serif" font-size="14.00">true</text>
<polygon fill="none" stroke="black" points="43.5,-150.5 43.5,-171.5 87.5,-171.5 87.5,-150.5 43.5,-150.5"/>
<text text-anchor="start" x="54.5" y="-157.3" font-family="Times,serif" font-size="14.00">true</text>
<polygon fill="none" stroke="black" points="87.5,-150.5 87.5,-171.5 130.5,-171.5 130.5,-150.5 87.5,-150.5"/>
<text text-anchor="start" x="98" y="-157.3" font-family="Times,serif" font-size="14.00">true</text>
<polygon fill="none" stroke="black" points="130.5,-150.5 130.5,-171.5 283.5,-171.5 283.5,-150.5 130.5,-150.5"/>
<text text-anchor="start" x="196" y="-157.3" font-family="Times,serif" font-size="14.00">true</text>
<polygon fill="none" stroke="black" points="8.5,-129.5 8.5,-150.5 43.5,-150.5 43.5,-129.5 8.5,-129.5"/>
<text text-anchor="start" x="15" y="-136.3" font-family="Times,serif" font-size="14.00">true</text>
<polygon fill="none" stroke="black" points="43.5,-129.5 43.5,-150.5 87.5,-150.5 87.5,-129.5 43.5,-129.5"/>
<text text-anchor="start" x="54.5" y="-136.3" font-family="Times,serif" font-size="14.00">true</text>
<polygon fill="none" stroke="black" points="87.5,-129.5 87.5,-150.5 130.5,-150.5 130.5,-129.5 87.5,-129.5"/>
<text text-anchor="start" x="96" y="-136.3" font-family="Times,serif" font-size="14.00">false</text>
<polygon fill="none" stroke="black" points="130.5,-129.5 130.5,-150.5 283.5,-150.5 283.5,-129.5 130.5,-129.5"/>
<text text-anchor="start" x="196" y="-136.3" font-family="Times,serif" font-size="14.00">true</text>
<polygon fill="none" stroke="black" points="8.5,-108.5 8.5,-129.5 43.5,-129.5 43.5,-108.5 8.5,-108.5"/>
<text text-anchor="start" x="15" y="-115.3" font-family="Times,serif" font-size="14.00">true</text>
<polygon fill="none" stroke="black" points="43.5,-108.5 43.5,-129.5 87.5,-129.5 87.5,-108.5 43.5,-108.5"/>
<text text-anchor="start" x="52.5" y="-115.3" font-family="Times,serif" font-size="14.00">false</text>
<polygon fill="none" stroke="black" points="87.5,-108.5 87.5,-129.5 130.5,-129.5 130.5,-108.5 87.5,-108.5"/>
<text text-anchor="start" x="98" y="-115.3" font-family="Times,serif" font-size="14.00">true</text>
<polygon fill="none" stroke="black" points="130.5,-108.5 130.5,-129.5 283.5,-129.5 283.5,-108.5 130.5,-108.5"/>
<text text-anchor="start" x="196" y="-115.3" font-family="Times,serif" font-size="14.00">true</text>
<polygon fill="none" stroke="black" points="8.5,-87.5 8.5,-108.5 43.5,-108.5 43.5,-87.5 8.5,-87.5"/>
<text text-anchor="start" x="15" y="-94.3" font-family="Times,serif" font-size="14.00">true</text>
<polygon fill="none" stroke="black" points="43.5,-87.5 43.5,-108.5 87.5,-108.5 87.5,-87.5 43.5,-87.5"/>
<text text-anchor="start" x="52.5" y="-94.3" font-family="Times,serif" font-size="14.00">false</text>
<polygon fill="none" stroke="black" points="87.5,-87.5 87.5,-108.5 130.5,-108.5 130.5,-87.5 87.5,-87.5"/>
<text text-anchor="start" x="96" y="-94.3" font-family="Times,serif" font-size="14.00">false</text>
<polygon fill="none" stroke="black" points="130.5,-87.5 130.5,-108.5 283.5,-108.5 283.5,-87.5 130.5,-87.5"/>
<text text-anchor="start" x="196" y="-94.3" font-family="Times,serif" font-size="14.00">true</text>
<polygon fill="none" stroke="black" points="8.5,-66.5 8.5,-87.5 43.5,-87.5 43.5,-66.5 8.5,-66.5"/>
<text text-anchor="start" x="13" y="-73.3" font-family="Times,serif" font-size="14.00">false</text>
<polygon fill="none" stroke="black" points="43.5,-66.5 43.5,-87.5 87.5,-87.5 87.5,-66.5 43.5,-66.5"/>
<text text-anchor="start" x="54.5" y="-73.3" font-family="Times,serif" font-size="14.00">true</text>
<polygon fill="none" stroke="black" points="87.5,-66.5 87.5,-87.5 130.5,-87.5 130.5,-66.5 87.5,-66.5"/>
<text text-anchor="start" x="98" y="-73.3" font-family="Times,serif" font-size="14.00">true</text>
<polygon fill="none" stroke="black" points="130.5,-66.5 130.5,-87.5 283.5,-87.5 283.5,-66.5 130.5,-66.5"/>
<text text-anchor="start" x="196" y="-73.3" font-family="Times,serif" font-size="14.00">true</text>
<polygon fill="lightgreen" stroke="none" points="8.5,-45.5 8.5,-66.5 43.5,-66.5 43.5,-45.5 8.5,-45.5"/>
<polygon fill="none" stroke="black" points="8.5,-45.5 8.5,-66.5 43.5,-66.5 43.5,-45.5 8.5,-45.5"/>
<text text-anchor="start" x="13" y="-52.3" font-family="Times,serif" font-size="14.00">false</text>
<polygon fill="lightgreen" stroke="none" points="43.5,-45.5 43.5,-66.5 87.5,-66.5 87.5,-45.5 43.5,-45.5"/>
<polygon fill="none" stroke="black" points="43.5,-45.5 43.5,-66.5 87.5,-66.5 87.5,-45.5 43.5,-45.5"/>
<text text-anchor="start" x="54.5" y="-52.3" font-family="Times,serif" font-size="14.00">true</text>
<polygon fill="lightgreen" stroke="none" points="87.5,-45.5 87.5,-66.5 130.5,-66.5 130.5,-45.5 87.5,-45.5"/>
<polygon fill="none" stroke="black" points="87.5,-45.5 87.5,-66.5 130.5,-66.5 130.5,-45.5 87.5,-45.5"/>
<text text-anchor="start" x="96" y="-52.3" font-family="Times,serif" font-size="14.00">false</text>
<polygon fill="lightgreen" stroke="none" points="130.5,-45.5 130.5,-66.5 283.5,-66.5 283.5,-45.5 130.5,-45.5"/>
<polygon fill="none" stroke="black" points="130.5,-45.5 130.5,-66.5 283.5,-66.5 283.5,-45.5 130.5,-45.5"/>
<text text-anchor="start" x="196" y="-52.3" font-family="Times,serif" font-size="14.00">true</text>
<polygon fill="none" stroke="black" points="8.5,-24.5 8.5,-45.5 43.5,-45.5 43.5,-24.5 8.5,-24.5"/>
<text text-anchor="start" x="13" y="-31.3" font-family="Times,serif" font-size="14.00">false</text>
<polygon fill="none" stroke="black" points="43.5,-24.5 43.5,-45.5 87.5,-45.5 87.5,-24.5 43.5,-24.5"/>
<text text-anchor="start" x="52.5" y="-31.3" font-family="Times,serif" font-size="14.00">false</text>
<polygon fill="none" stroke="black" points="87.5,-24.5 87.5,-45.5 130.5,-45.5 130.5,-24.5 87.5,-24.5"/>
<text text-anchor="start" x="98" y="-31.3" font-family="Times,serif" font-size="14.00">true</text>
<polygon fill="none" stroke="black" points="130.5,-24.5 130.5,-45.5 283.5,-45.5 283.5,-24.5 130.5,-24.5"/>
<text text-anchor="start" x="196" y="-31.3" font-family="Times,serif" font-size="14.00">true</text>
<polygon fill="none" stroke="black" points="8.5,-3.5 8.5,-24.5 43.5,-24.5 43.5,-3.5 8.5,-3.5"/>
<text text-anchor="start" x="13" y="-10.3" font-family="Times,serif" font-size="14.00">false</text>
<polygon fill="none" stroke="black" points="43.5,-3.5 43.5,-24.5 87.5,-24.5 87.5,-3.5 43.5,-3.5"/>
<text text-anchor="start" x="52.5" y="-10.3" font-family="Times,serif" font-size="14.00">false</text>
<polygon fill="none" stroke="black" points="87.5,-3.5 87.5,-24.5 130.5,-24.5 130.5,-3.5 87.5,-3.5"/>
<text text-anchor="start" x="96" y="-10.3" font-family="Times,serif" font-size="14.00">false</text>
<polygon fill="none" stroke="black" points="130.5,-3.5 130.5,-24.5 283.5,-24.5 283.5,-3.5 130.5,-3.5"/>
<text text-anchor="start" x="194" y="-10.3" font-family="Times,serif" font-size="14.00">false</text>
</g>
</g>
</svg>
