<?xml version="1.0" encoding="UTF-8" standalone="no"?>
<!DOCTYPE svg PUBLIC "-//W3C//DTD SVG 1.1//EN"
 "http://www.w3.org/Graphics/SVG/1.1/DTD/svg11.dtd">
<!-- Generated by graphviz version 7.0.6 (20230106.0513)
 -->
<!-- Title: structs Pages: 1 -->
<svg width="244pt" height="205pt"
 viewBox="0.00 0.00 244.00 205.00" xmlns="http://www.w3.org/2000/svg" xmlns:xlink="http://www.w3.org/1999/xlink">
<g id="graph0" class="graph" transform="scale(1 1) rotate(0) translate(4 201)">
<title>structs</title>
<polygon fill="white" stroke="none" points="-4,4 -4,-201 240,-201 240,4 -4,4"/>
<!-- table -->
<g id="node1" class="node">
<title>table</title>
<polygon fill="none" stroke="black" points="8,-171.5 8,-192.5 43,-192.5 43,-171.5 8,-171.5"/>
<text text-anchor="start" x="11" y="-178.3" font-family="Times,serif" font-size="14.00">a &lt; 0</text>
<polygon fill="none" stroke="black" points="43,-171.5 43,-192.5 91,-192.5 91,-171.5 43,-171.5"/>
<text text-anchor="start" x="46" y="-178.3" font-family="Times,serif" font-size="14.00" fill="orange">b &lt;= 0 </text>
<polygon fill="none" stroke="black" points="91,-171.5 91,-192.5 134,-192.5 134,-171.5 91,-171.5"/>
<text text-anchor="start" x="94" y="-178.3" font-family="Times,serif" font-size="14.00">c &lt;= 0</text>
<polygon fill="none" stroke="black" points="134,-171.5 134,-192.5 228,-192.5 228,-171.5 134,-171.5"/>
<text text-anchor="start" x="137" y="-178.3" font-family="Times,serif" font-size="14.00">a &lt;= 0 || c &lt;= 0</text>
<polygon fill="none" stroke="black" points="8,-150.5 8,-171.5 43,-171.5 43,-150.5 8,-150.5"/>
<text text-anchor="start" x="14.5" y="-157.3" font-family="Times,serif" font-size="14.00">true</text>
<polygon fill="none" stroke="black" points="43,-150.5 43,-171.5 91,-171.5 91,-150.5 43,-150.5"/>
<text text-anchor="start" x="56" y="-157.3" font-family="Times,serif" font-size="14.00">true</text>
<polygon fill="none" stroke="black" points="91,-150.5 91,-171.5 134,-171.5 134,-150.5 91,-150.5"/>
<text text-anchor="start" x="101.5" y="-157.3" font-family="Times,serif" font-size="14.00">true</text>
<polygon fill="none" stroke="black" points="134,-150.5 134,-171.5 228,-171.5 228,-150.5 134,-150.5"/>
<text text-anchor="start" x="170" y="-157.3" font-family="Times,serif" font-size="14.00">true</text>
<polygon fill="none" stroke="black" points="8,-129.5 8,-150.5 43,-150.5 43,-129.5 8,-129.5"/>
<text text-anchor="start" x="14.5" y="-136.3" font-family="Times,serif" font-size="14.00">true</text>
<polygon fill="none" stroke="black" points="43,-129.5 43,-150.5 91,-150.5 91,-129.5 43,-129.5"/>
<text text-anchor="start" x="56" y="-136.3" font-family="Times,serif" font-size="14.00">true</text>
<polygon fill="none" stroke="black" points="91,-129.5 91,-150.5 134,-150.5 134,-129.5 91,-129.5"/>
<text text-anchor="start" x="99.5" y="-136.3" font-family="Times,serif" font-size="14.00">false</text>
<polygon fill="none" stroke="black" points="134,-129.5 134,-150.5 228,-150.5 228,-129.5 134,-129.5"/>
<text text-anchor="start" x="170" y="-136.3" font-family="Times,serif" font-size="14.00">true</text>
<polygon fill="none" stroke="black" points="8,-108.5 8,-129.5 43,-129.5 43,-108.5 8,-108.5"/>
<text text-anchor="start" x="14.5" y="-115.3" font-family="Times,serif" font-size="14.00">true</text>
<polygon fill="none" stroke="black" points="43,-108.5 43,-129.5 91,-129.5 91,-108.5 43,-108.5"/>
<text text-anchor="start" x="54" y="-115.3" font-family="Times,serif" font-size="14.00">false</text>
<polygon fill="none" stroke="black" points="91,-108.5 91,-129.5 134,-129.5 134,-108.5 91,-108.5"/>
<text text-anchor="start" x="101.5" y="-115.3" font-family="Times,serif" font-size="14.00">true</text>
<polygon fill="none" stroke="black" points="134,-108.5 134,-129.5 228,-129.5 228,-108.5 134,-108.5"/>
<text text-anchor="start" x="170" y="-115.3" font-family="Times,serif" font-size="14.00">true</text>
<polygon fill="none" stroke="black" points="8,-87.5 8,-108.5 43,-108.5 43,-87.5 8,-87.5"/>
<text text-anchor="start" x="14.5" y="-94.3" font-family="Times,serif" font-size="14.00">true</text>
<polygon fill="none" stroke="black" points="43,-87.5 43,-108.5 91,-108.5 91,-87.5 43,-87.5"/>
<text text-anchor="start" x="54" y="-94.3" font-family="Times,serif" font-size="14.00">false</text>
<polygon fill="none" stroke="black" points="91,-87.5 91,-108.5 134,-108.5 134,-87.5 91,-87.5"/>
<text text-anchor="start" x="99.5" y="-94.3" font-family="Times,serif" font-size="14.00">false</text>
<polygon fill="none" stroke="black" points="134,-87.5 134,-108.5 228,-108.5 228,-87.5 134,-87.5"/>
<text text-anchor="start" x="170" y="-94.3" font-family="Times,serif" font-size="14.00">true</text>
<polygon fill="none" stroke="black" points="8,-66.5 8,-87.5 43,-87.5 43,-66.5 8,-66.5"/>
<text text-anchor="start" x="12.5" y="-73.3" font-family="Times,serif" font-size="14.00">false</text>
<polygon fill="none" stroke="black" points="43,-66.5 43,-87.5 91,-87.5 91,-66.5 43,-66.5"/>
<text text-anchor="start" x="56" y="-73.3" font-family="Times,serif" font-size="14.00">true</text>
<polygon fill="none" stroke="black" points="91,-66.5 91,-87.5 134,-87.5 134,-66.5 91,-66.5"/>
<text text-anchor="start" x="101.5" y="-73.3" font-family="Times,serif" font-size="14.00">true</text>
<polygon fill="none" stroke="black" points="134,-66.5 134,-87.5 228,-87.5 228,-66.5 134,-66.5"/>
<text text-anchor="start" x="170" y="-73.3" font-family="Times,serif" font-size="14.00">true</text>
<polygon fill="lemonchiffon" stroke="none" points="8,-45.5 8,-66.5 43,-66.5 43,-45.5 8,-45.5"/>
<polygon fill="none" stroke="black" points="8,-45.5 8,-66.5 43,-66.5 43,-45.5 8,-45.5"/>
<text text-anchor="start" x="12.5" y="-52.3" font-family="Times,serif" font-size="14.00">false</text>
<polygon fill="lemonchiffon" stroke="none" points="43,-45.5 43,-66.5 91,-66.5 91,-45.5 43,-45.5"/>
<polygon fill="none" stroke="black" points="43,-45.5 43,-66.5 91,-66.5 91,-45.5 43,-45.5"/>
<text text-anchor="start" x="56" y="-52.3" font-family="Times,serif" font-size="14.00">true</text>
<polygon fill="lemonchiffon" stroke="none" points="91,-45.5 91,-66.5 134,-66.5 134,-45.5 91,-45.5"/>
<polygon fill="none" stroke="black" points="91,-45.5 91,-66.5 134,-66.5 134,-45.5 91,-45.5"/>
<text text-anchor="start" x="99.5" y="-52.3" font-family="Times,serif" font-size="14.00">false</text>
<polygon fill="orange" stroke="none" points="134,-45.5 134,-66.5 228,-66.5 228,-45.5 134,-45.5"/>
<polygon fill="none" stroke="black" points="134,-45.5 134,-66.5 228,-66.5 228,-45.5 134,-45.5"/>
<text text-anchor="start" x="168" y="-52.3" font-family="Times,serif" font-size="14.00">false</text>
<polygon fill="none" stroke="black" points="8,-24.5 8,-45.5 43,-45.5 43,-24.5 8,-24.5"/>
<text text-anchor="start" x="12.5" y="-31.3" font-family="Times,serif" font-size="14.00">false</text>
<polygon fill="none" stroke="black" points="43,-24.5 43,-45.5 91,-45.5 91,-24.5 43,-24.5"/>
<text text-anchor="start" x="54" y="-31.3" font-family="Times,serif" font-size="14.00">false</text>
<polygon fill="none" stroke="black" points="91,-24.5 91,-45.5 134,-45.5 134,-24.5 91,-24.5"/>
<text text-anchor="start" x="101.5" y="-31.3" font-family="Times,serif" font-size="14.00">true</text>
<polygon fill="none" stroke="black" points="134,-24.5 134,-45.5 228,-45.5 228,-24.5 134,-24.5"/>
<text text-anchor="start" x="170" y="-31.3" font-family="Times,serif" font-size="14.00">true</text>
<polygon fill="none" stroke="black" points="8,-3.5 8,-24.5 43,-24.5 43,-3.5 8,-3.5"/>
<text text-anchor="start" x="12.5" y="-10.3" font-family="Times,serif" font-size="14.00">false</text>
<polygon fill="none" stroke="black" points="43,-3.5 43,-24.5 91,-24.5 91,-3.5 43,-3.5"/>
<text text-anchor="start" x="54" y="-10.3" font-family="Times,serif" font-size="14.00">false</text>
<polygon fill="none" stroke="black" points="91,-3.5 91,-24.5 134,-24.5 134,-3.5 91,-3.5"/>
<text text-anchor="start" x="99.5" y="-10.3" font-family="Times,serif" font-size="14.00">false</text>
<polygon fill="none" stroke="black" points="134,-3.5 134,-24.5 228,-24.5 228,-3.5 134,-3.5"/>
<text text-anchor="start" x="168" y="-10.3" font-family="Times,serif" font-size="14.00">false</text>
</g>
</g>
</svg>
