<?xml version="1.0" encoding="UTF-8" standalone="no"?>
<!DOCTYPE svg PUBLIC "-//W3C//DTD SVG 1.1//EN"
 "http://www.w3.org/Graphics/SVG/1.1/DTD/svg11.dtd">
<!-- Generated by graphviz version 7.0.6 (20230106.0513)
 -->
<!-- Title: structs Pages: 1 -->
<svg width="240pt" height="205pt"
 viewBox="0.00 0.00 240.00 205.00" xmlns="http://www.w3.org/2000/svg" xmlns:xlink="http://www.w3.org/1999/xlink">
<g id="graph0" class="graph" transform="scale(1 1) rotate(0) translate(4 201)">
<title>structs</title>
<polygon fill="white" stroke="none" points="-4,4 -4,-201 236,-201 236,4 -4,4"/>
<!-- table -->
<g id="node1" class="node">
<title>table</title>
<polygon fill="none" stroke="black" points="8,-171.5 8,-192.5 43,-192.5 43,-171.5 8,-171.5"/>
<text text-anchor="start" x="11" y="-178.3" font-family="Times,serif" font-size="14.00">a &lt; 0</text>
<polygon fill="none" stroke="black" points="43,-171.5 43,-192.5 87,-192.5 87,-171.5 43,-171.5"/>
<text text-anchor="start" x="46" y="-178.3" font-family="Times,serif" font-size="14.00" fill="lightcoral">b &lt;= 0</text>
<polygon fill="none" stroke="black" points="87,-171.5 87,-192.5 130,-192.5 130,-171.5 87,-171.5"/>
<text text-anchor="start" x="90" y="-178.3" font-family="Times,serif" font-size="14.00">c &lt;= 0</text>
<polygon fill="none" stroke="black" points="130,-171.5 130,-192.5 224,-192.5 224,-171.5 130,-171.5"/>
<text text-anchor="start" x="133" y="-178.3" font-family="Times,serif" font-size="14.00">a &lt;= 0 || c &lt;= 0</text>
<polygon fill="none" stroke="black" points="8,-150.5 8,-171.5 43,-171.5 43,-150.5 8,-150.5"/>
<text text-anchor="start" x="14.5" y="-157.3" font-family="Times,serif" font-size="14.00">true</text>
<polygon fill="none" stroke="black" points="43,-150.5 43,-171.5 87,-171.5 87,-150.5 43,-150.5"/>
<text text-anchor="start" x="54" y="-157.3" font-family="Times,serif" font-size="14.00">true</text>
<polygon fill="none" stroke="black" points="87,-150.5 87,-171.5 130,-171.5 130,-150.5 87,-150.5"/>
<text text-anchor="start" x="97.5" y="-157.3" font-family="Times,serif" font-size="14.00">true</text>
<polygon fill="none" stroke="black" points="130,-150.5 130,-171.5 224,-171.5 224,-150.5 130,-150.5"/>
<text text-anchor="start" x="166" y="-157.3" font-family="Times,serif" font-size="14.00">true</text>
<polygon fill="none" stroke="black" points="8,-129.5 8,-150.5 43,-150.5 43,-129.5 8,-129.5"/>
<text text-anchor="start" x="14.5" y="-136.3" font-family="Times,serif" font-size="14.00">true</text>
<polygon fill="none" stroke="black" points="43,-129.5 43,-150.5 87,-150.5 87,-129.5 43,-129.5"/>
<text text-anchor="start" x="54" y="-136.3" font-family="Times,serif" font-size="14.00">true</text>
<polygon fill="none" stroke="black" points="87,-129.5 87,-150.5 130,-150.5 130,-129.5 87,-129.5"/>
<text text-anchor="start" x="95.5" y="-136.3" font-family="Times,serif" font-size="14.00">false</text>
<polygon fill="none" stroke="black" points="130,-129.5 130,-150.5 224,-150.5 224,-129.5 130,-129.5"/>
<text text-anchor="start" x="166" y="-136.3" font-family="Times,serif" font-size="14.00">true</text>
<polygon fill="none" stroke="black" points="8,-108.5 8,-129.5 43,-129.5 43,-108.5 8,-108.5"/>
<text text-anchor="start" x="14.5" y="-115.3" font-family="Times,serif" font-size="14.00">true</text>
<polygon fill="none" stroke="black" points="43,-108.5 43,-129.5 87,-129.5 87,-108.5 43,-108.5"/>
<text text-anchor="start" x="52" y="-115.3" font-family="Times,serif" font-size="14.00">false</text>
<polygon fill="none" stroke="black" points="87,-108.5 87,-129.5 130,-129.5 130,-108.5 87,-108.5"/>
<text text-anchor="start" x="97.5" y="-115.3" font-family="Times,serif" font-size="14.00">true</text>
<polygon fill="none" stroke="black" points="130,-108.5 130,-129.5 224,-129.5 224,-108.5 130,-108.5"/>
<text text-anchor="start" x="166" y="-115.3" font-family="Times,serif" font-size="14.00">true</text>
<polygon fill="none" stroke="black" points="8,-87.5 8,-108.5 43,-108.5 43,-87.5 8,-87.5"/>
<text text-anchor="start" x="14.5" y="-94.3" font-family="Times,serif" font-size="14.00">true</text>
<polygon fill="none" stroke="black" points="43,-87.5 43,-108.5 87,-108.5 87,-87.5 43,-87.5"/>
<text text-anchor="start" x="52" y="-94.3" font-family="Times,serif" font-size="14.00">false</text>
<polygon fill="none" stroke="black" points="87,-87.5 87,-108.5 130,-108.5 130,-87.5 87,-87.5"/>
<text text-anchor="start" x="95.5" y="-94.3" font-family="Times,serif" font-size="14.00">false</text>
<polygon fill="none" stroke="black" points="130,-87.5 130,-108.5 224,-108.5 224,-87.5 130,-87.5"/>
<text text-anchor="start" x="166" y="-94.3" font-family="Times,serif" font-size="14.00">true</text>
<polygon fill="none" stroke="black" points="8,-66.5 8,-87.5 43,-87.5 43,-66.5 8,-66.5"/>
<text text-anchor="start" x="12.5" y="-73.3" font-family="Times,serif" font-size="14.00">false</text>
<polygon fill="none" stroke="black" points="43,-66.5 43,-87.5 87,-87.5 87,-66.5 43,-66.5"/>
<text text-anchor="start" x="54" y="-73.3" font-family="Times,serif" font-size="14.00">true</text>
<polygon fill="none" stroke="black" points="87,-66.5 87,-87.5 130,-87.5 130,-66.5 87,-66.5"/>
<text text-anchor="start" x="97.5" y="-73.3" font-family="Times,serif" font-size="14.00">true</text>
<polygon fill="none" stroke="black" points="130,-66.5 130,-87.5 224,-87.5 224,-66.5 130,-66.5"/>
<text text-anchor="start" x="166" y="-73.3" font-family="Times,serif" font-size="14.00">true</text>
<polygon fill="lightgreen" stroke="none" points="8,-45.5 8,-66.5 43,-66.5 43,-45.5 8,-45.5"/>
<polygon fill="none" stroke="black" points="8,-45.5 8,-66.5 43,-66.5 43,-45.5 8,-45.5"/>
<text text-anchor="start" x="12.5" y="-52.3" font-family="Times,serif" font-size="14.00">false</text>
<polygon fill="lightgreen" stroke="none" points="43,-45.5 43,-66.5 87,-66.5 87,-45.5 43,-45.5"/>
<polygon fill="none" stroke="black" points="43,-45.5 43,-66.5 87,-66.5 87,-45.5 43,-45.5"/>
<text text-anchor="start" x="54" y="-52.3" font-family="Times,serif" font-size="14.00">true</text>
<polygon fill="lightgreen" stroke="none" points="87,-45.5 87,-66.5 130,-66.5 130,-45.5 87,-45.5"/>
<polygon fill="none" stroke="black" points="87,-45.5 87,-66.5 130,-66.5 130,-45.5 87,-45.5"/>
<text text-anchor="start" x="95.5" y="-52.3" font-family="Times,serif" font-size="14.00">false</text>
<polygon fill="lightgreen" stroke="none" points="130,-45.5 130,-66.5 224,-66.5 224,-45.5 130,-45.5"/>
<polygon fill="none" stroke="black" points="130,-45.5 130,-66.5 224,-66.5 224,-45.5 130,-45.5"/>
<text text-anchor="start" x="164" y="-52.3" font-family="Times,serif" font-size="14.00">false</text>
<polygon fill="none" stroke="black" points="8,-24.5 8,-45.5 43,-45.5 43,-24.5 8,-24.5"/>
<text text-anchor="start" x="12.5" y="-31.3" font-family="Times,serif" font-size="14.00">false</text>
<polygon fill="none" stroke="black" points="43,-24.5 43,-45.5 87,-45.5 87,-24.5 43,-24.5"/>
<text text-anchor="start" x="52" y="-31.3" font-family="Times,serif" font-size="14.00">false</text>
<polygon fill="none" stroke="black" points="87,-24.5 87,-45.5 130,-45.5 130,-24.5 87,-24.5"/>
<text text-anchor="start" x="97.5" y="-31.3" font-family="Times,serif" font-size="14.00">true</text>
<polygon fill="none" stroke="black" points="130,-24.5 130,-45.5 224,-45.5 224,-24.5 130,-24.5"/>
<text text-anchor="start" x="166" y="-31.3" font-family="Times,serif" font-size="14.00">true</text>
<polygon fill="none" stroke="black" points="8,-3.5 8,-24.5 43,-24.5 43,-3.5 8,-3.5"/>
<text text-anchor="start" x="12.5" y="-10.3" font-family="Times,serif" font-size="14.00">false</text>
<polygon fill="none" stroke="black" points="43,-3.5 43,-24.5 87,-24.5 87,-3.5 43,-3.5"/>
<text text-anchor="start" x="52" y="-10.3" font-family="Times,serif" font-size="14.00">false</text>
<polygon fill="none" stroke="black" points="87,-3.5 87,-24.5 130,-24.5 130,-3.5 87,-3.5"/>
<text text-anchor="start" x="95.5" y="-10.3" font-family="Times,serif" font-size="14.00">false</text>
<polygon fill="none" stroke="black" points="130,-3.5 130,-24.5 224,-24.5 224,-3.5 130,-3.5"/>
<text text-anchor="start" x="164" y="-10.3" font-family="Times,serif" font-size="14.00">false</text>
</g>
</g>
</svg>
