<?xml version="1.0" encoding="UTF-8" standalone="no"?>
<!DOCTYPE svg PUBLIC "-//W3C//DTD SVG 1.1//EN"
 "http://www.w3.org/Graphics/SVG/1.1/DTD/svg11.dtd">
<!-- Generated by graphviz version 7.0.6 (20230106.0513)
 -->
<!-- Title: structs Pages: 1 -->
<svg width="350pt" height="260pt"
 viewBox="0.00 0.00 350.00 260.00" xmlns="http://www.w3.org/2000/svg" xmlns:xlink="http://www.w3.org/1999/xlink">
<g id="graph0" class="graph" transform="scale(1 1) rotate(0) translate(4 256)">
<title>structs</title>
<polygon fill="white" stroke="none" points="-4,4 -4,-256 346,-256 346,4 -4,4"/>
<!-- node3 -->
<g id="node1" class="node">
<title>node3</title>
<ellipse fill="lightgrey" stroke="black" cx="27" cy="-18" rx="27" ry="18"/>
<text text-anchor="middle" x="27" y="-14.3" font-family="Times,serif" font-size="14.00">a</text>
</g>
<!-- node4 -->
<g id="node2" class="node">
<title>node4</title>
<ellipse fill="lightgrey" stroke="black" cx="99" cy="-18" rx="27" ry="18"/>
<text text-anchor="middle" x="99" y="-14.3" font-family="Times,serif" font-size="14.00">0</text>
</g>
<!-- node2 -->
<g id="node3" class="node">
<title>node2</title>
<ellipse fill="lightgrey" stroke="black" cx="99" cy="-90" rx="27" ry="18"/>
<text text-anchor="middle" x="99" y="-86.3" font-family="Times,serif" font-size="14.00">&lt;=</text>
</g>
<!-- node2&#45;&gt;node3 -->
<g id="edge1" class="edge">
<title>node2&#45;&gt;node3</title>
<path fill="none" stroke="black" d="M84.08,-74.5C74.23,-64.92 61.14,-52.19 49.97,-41.34"/>
<polygon fill="black" stroke="black" points="52.59,-39 42.98,-34.54 47.71,-44.02 52.59,-39"/>
</g>
<!-- node2&#45;&gt;node4 -->
<g id="edge2" class="edge">
<title>node2&#45;&gt;node4</title>
<path fill="none" stroke="black" d="M99,-71.7C99,-64.41 99,-55.73 99,-47.54"/>
<polygon fill="black" stroke="black" points="102.5,-47.62 99,-37.62 95.5,-47.62 102.5,-47.62"/>
</g>
<!-- node7 -->
<g id="node4" class="node">
<title>node7</title>
<ellipse fill="orange" stroke="black" cx="171" cy="-18" rx="27" ry="18"/>
<text text-anchor="middle" x="171" y="-14.3" font-family="Times,serif" font-size="14.00">b</text>
</g>
<!-- node8 -->
<g id="node5" class="node">
<title>node8</title>
<ellipse fill="orange" stroke="black" cx="243" cy="-18" rx="27" ry="18"/>
<text text-anchor="middle" x="243" y="-14.3" font-family="Times,serif" font-size="14.00">0</text>
</g>
<!-- node6 -->
<g id="node6" class="node">
<title>node6</title>
<ellipse fill="orange" stroke="black" cx="171" cy="-90" rx="27" ry="18"/>
<text text-anchor="middle" x="171" y="-86.3" font-family="Times,serif" font-size="14.00">&lt;=</text>
</g>
<!-- node6&#45;&gt;node7 -->
<g id="edge3" class="edge">
<title>node6&#45;&gt;node7</title>
<path fill="none" stroke="black" d="M171,-71.7C171,-64.41 171,-55.73 171,-47.54"/>
<polygon fill="black" stroke="black" points="174.5,-47.62 171,-37.62 167.5,-47.62 174.5,-47.62"/>
</g>
<!-- node6&#45;&gt;node8 -->
<g id="edge4" class="edge">
<title>node6&#45;&gt;node8</title>
<path fill="none" stroke="black" d="M185.92,-74.5C195.77,-64.92 208.86,-52.19 220.03,-41.34"/>
<polygon fill="black" stroke="black" points="222.29,-44.02 227.02,-34.54 217.41,-39 222.29,-44.02"/>
</g>
<!-- node1 -->
<g id="node7" class="node">
<title>node1</title>
<ellipse fill="white" stroke="white" cx="166" cy="-162" rx="27" ry="18"/>
<text text-anchor="middle" x="166" y="-158.3" font-family="Times,serif" font-size="14.00" fill="white">||</text>
</g>
<!-- node1&#45;&gt;node2 -->
<g id="edge5" class="edge">
<title>node1&#45;&gt;node2</title>
<path fill="none" stroke="white" d="M152.12,-146.5C143.04,-137.02 131.01,-124.44 120.68,-113.66"/>
<polygon fill="white" stroke="white" points="123.35,-111.38 113.91,-106.58 118.3,-116.22 123.35,-111.38"/>
</g>
<!-- node1&#45;&gt;node6 -->
<g id="edge6" class="edge">
<title>node1&#45;&gt;node6</title>
<path fill="none" stroke="white" d="M167.24,-143.7C167.76,-136.41 168.38,-127.73 168.96,-119.54"/>
<polygon fill="white" stroke="white" points="172.45,-119.84 169.67,-109.61 165.47,-119.34 172.45,-119.84"/>
</g>
<!-- node10 -->
<g id="node8" class="node">
<title>node10</title>
<ellipse fill="lightgrey" stroke="black" cx="243" cy="-90" rx="27" ry="18"/>
<text text-anchor="middle" x="243" y="-86.3" font-family="Times,serif" font-size="14.00">c</text>
</g>
<!-- node11 -->
<g id="node9" class="node">
<title>node11</title>
<ellipse fill="lightgrey" stroke="black" cx="315" cy="-90" rx="27" ry="18"/>
<text text-anchor="middle" x="315" y="-86.3" font-family="Times,serif" font-size="14.00">0</text>
</g>
<!-- node9 -->
<g id="node10" class="node">
<title>node9</title>
<ellipse fill="lightgrey" stroke="black" cx="243" cy="-162" rx="27" ry="18"/>
<text text-anchor="middle" x="243" y="-158.3" font-family="Times,serif" font-size="14.00">&lt;=</text>
</g>
<!-- node9&#45;&gt;node10 -->
<g id="edge7" class="edge">
<title>node9&#45;&gt;node10</title>
<path fill="none" stroke="black" d="M243,-143.7C243,-136.41 243,-127.73 243,-119.54"/>
<polygon fill="black" stroke="black" points="246.5,-119.62 243,-109.62 239.5,-119.62 246.5,-119.62"/>
</g>
<!-- node9&#45;&gt;node11 -->
<g id="edge8" class="edge">
<title>node9&#45;&gt;node11</title>
<path fill="none" stroke="black" d="M257.92,-146.5C267.77,-136.92 280.86,-124.19 292.03,-113.34"/>
<polygon fill="black" stroke="black" points="294.29,-116.02 299.02,-106.54 289.41,-111 294.29,-116.02"/>
</g>
<!-- node0 -->
<g id="node11" class="node">
<title>node0</title>
<ellipse fill="lightgrey" stroke="black" cx="166" cy="-234" rx="27" ry="18"/>
<text text-anchor="middle" x="166" y="-230.3" font-family="Times,serif" font-size="14.00">||</text>
</g>
<!-- node0&#45;&gt;node2 -->
<g id="edge11" class="edge">
<title>node0&#45;&gt;node2</title>
<path fill="none" stroke="black" d="M153.83,-217.43C146.25,-207.21 136.7,-193.32 130,-180 120.11,-160.33 112.05,-136.76 106.64,-118.81"/>
<polygon fill="black" stroke="black" points="110.05,-118.01 103.89,-109.39 103.33,-119.97 110.05,-118.01"/>
</g>
<!-- node0&#45;&gt;node1 -->
<g id="edge10" class="edge">
<title>node0&#45;&gt;node1</title>
<path fill="none" stroke="white" d="M166,-215.7C166,-208.41 166,-199.73 166,-191.54"/>
<polygon fill="white" stroke="white" points="169.5,-191.62 166,-181.62 162.5,-191.62 169.5,-191.62"/>
</g>
<!-- node0&#45;&gt;node9 -->
<g id="edge9" class="edge">
<title>node0&#45;&gt;node9</title>
<path fill="none" stroke="black" d="M181.58,-218.83C192.33,-209.06 206.83,-195.88 219.04,-184.78"/>
<polygon fill="black" stroke="black" points="221.28,-187.48 226.32,-178.16 216.57,-182.3 221.28,-187.48"/>
</g>
</g>
</svg>
