<?xml version="1.0" encoding="UTF-8" standalone="no"?>
<!DOCTYPE svg PUBLIC "-//W3C//DTD SVG 1.1//EN"
 "http://www.w3.org/Graphics/SVG/1.1/DTD/svg11.dtd">
<!-- Generated by graphviz version 7.0.6 (20230106.0513)
 -->
<!-- Title: structs Pages: 1 -->
<svg width="300pt" height="205pt"
 viewBox="0.00 0.00 300.00 205.00" xmlns="http://www.w3.org/2000/svg" xmlns:xlink="http://www.w3.org/1999/xlink">
<g id="graph0" class="graph" transform="scale(1 1) rotate(0) translate(4 201)">
<title>structs</title>
<polygon fill="white" stroke="none" points="-4,4 -4,-201 296,-201 296,4 -4,4"/>
<!-- table -->
<g id="node1" class="node">
<title>table</title>
<polygon fill="none" stroke="black" points="8,-171.5 8,-192.5 52,-192.5 52,-171.5 8,-171.5"/>
<text text-anchor="start" x="11" y="-179.3" font-family="Times,serif" font-size="14.00">a </text>
<text text-anchor="start" x="21" y="-179.3" font-family="Times,serif" font-size="14.00" fill="lightcoral">==</text>
<text text-anchor="start" x="38" y="-179.3" font-family="Times,serif" font-size="14.00"> 0</text>
<polygon fill="none" stroke="black" points="52,-171.5 52,-192.5 96,-192.5 96,-171.5 52,-171.5"/>
<text text-anchor="start" x="55" y="-178.3" font-family="Times,serif" font-size="14.00">b &lt;= 0</text>
<polygon fill="none" stroke="black" points="96,-171.5 96,-192.5 139,-192.5 139,-171.5 96,-171.5"/>
<text text-anchor="start" x="99" y="-178.3" font-family="Times,serif" font-size="14.00">c &lt;= 0</text>
<polygon fill="none" stroke="black" points="139,-171.5 139,-192.5 284,-192.5 284,-171.5 139,-171.5"/>
<text text-anchor="start" x="142" y="-179.3" font-family="Times,serif" font-size="14.00">a </text>
<text text-anchor="start" x="152" y="-179.3" font-family="Times,serif" font-size="14.00" fill="lightcoral">==</text>
<text text-anchor="start" x="169" y="-179.3" font-family="Times,serif" font-size="14.00"> 0 || b &lt;= 0 || c &lt;= 0</text>
<polygon fill="lightcoral" stroke="none" points="8,-150.5 8,-171.5 52,-171.5 52,-150.5 8,-150.5"/>
<polygon fill="none" stroke="black" points="8,-150.5 8,-171.5 52,-171.5 52,-150.5 8,-150.5"/>
<text text-anchor="start" x="17" y="-157.3" font-family="Times,serif" font-size="14.00">false</text>
<polygon fill="none" stroke="black" points="52,-150.5 52,-171.5 96,-171.5 96,-150.5 52,-150.5"/>
<text text-anchor="start" x="63" y="-157.3" font-family="Times,serif" font-size="14.00">true</text>
<polygon fill="none" stroke="black" points="96,-150.5 96,-171.5 139,-171.5 139,-150.5 96,-150.5"/>
<text text-anchor="start" x="106.5" y="-157.3" font-family="Times,serif" font-size="14.00">true</text>
<polygon fill="none" stroke="black" points="139,-150.5 139,-171.5 284,-171.5 284,-150.5 139,-150.5"/>
<text text-anchor="start" x="200.5" y="-157.3" font-family="Times,serif" font-size="14.00">true</text>
<polygon fill="lightcoral" stroke="none" points="8,-129.5 8,-150.5 52,-150.5 52,-129.5 8,-129.5"/>
<polygon fill="none" stroke="black" points="8,-129.5 8,-150.5 52,-150.5 52,-129.5 8,-129.5"/>
<text text-anchor="start" x="17" y="-136.3" font-family="Times,serif" font-size="14.00">false</text>
<polygon fill="none" stroke="black" points="52,-129.5 52,-150.5 96,-150.5 96,-129.5 52,-129.5"/>
<text text-anchor="start" x="63" y="-136.3" font-family="Times,serif" font-size="14.00">true</text>
<polygon fill="none" stroke="black" points="96,-129.5 96,-150.5 139,-150.5 139,-129.5 96,-129.5"/>
<text text-anchor="start" x="104.5" y="-136.3" font-family="Times,serif" font-size="14.00">false</text>
<polygon fill="none" stroke="black" points="139,-129.5 139,-150.5 284,-150.5 284,-129.5 139,-129.5"/>
<text text-anchor="start" x="200.5" y="-136.3" font-family="Times,serif" font-size="14.00">true</text>
<polygon fill="lightcoral" stroke="none" points="8,-108.5 8,-129.5 52,-129.5 52,-108.5 8,-108.5"/>
<polygon fill="none" stroke="black" points="8,-108.5 8,-129.5 52,-129.5 52,-108.5 8,-108.5"/>
<text text-anchor="start" x="17" y="-115.3" font-family="Times,serif" font-size="14.00">false</text>
<polygon fill="none" stroke="black" points="52,-108.5 52,-129.5 96,-129.5 96,-108.5 52,-108.5"/>
<text text-anchor="start" x="61" y="-115.3" font-family="Times,serif" font-size="14.00">false</text>
<polygon fill="none" stroke="black" points="96,-108.5 96,-129.5 139,-129.5 139,-108.5 96,-108.5"/>
<text text-anchor="start" x="106.5" y="-115.3" font-family="Times,serif" font-size="14.00">true</text>
<polygon fill="none" stroke="black" points="139,-108.5 139,-129.5 284,-129.5 284,-108.5 139,-108.5"/>
<text text-anchor="start" x="200.5" y="-115.3" font-family="Times,serif" font-size="14.00">true</text>
<polygon fill="lightcoral" stroke="none" points="8,-87.5 8,-108.5 52,-108.5 52,-87.5 8,-87.5"/>
<polygon fill="none" stroke="black" points="8,-87.5 8,-108.5 52,-108.5 52,-87.5 8,-87.5"/>
<text text-anchor="start" x="17" y="-94.3" font-family="Times,serif" font-size="14.00">false</text>
<polygon fill="lightgreen" stroke="none" points="52,-87.5 52,-108.5 96,-108.5 96,-87.5 52,-87.5"/>
<polygon fill="none" stroke="black" points="52,-87.5 52,-108.5 96,-108.5 96,-87.5 52,-87.5"/>
<text text-anchor="start" x="61" y="-94.3" font-family="Times,serif" font-size="14.00">false</text>
<polygon fill="lightgreen" stroke="none" points="96,-87.5 96,-108.5 139,-108.5 139,-87.5 96,-87.5"/>
<polygon fill="none" stroke="black" points="96,-87.5 96,-108.5 139,-108.5 139,-87.5 96,-87.5"/>
<text text-anchor="start" x="104.5" y="-94.3" font-family="Times,serif" font-size="14.00">false</text>
<polygon fill="lightgreen" stroke="none" points="139,-87.5 139,-108.5 284,-108.5 284,-87.5 139,-87.5"/>
<polygon fill="none" stroke="black" points="139,-87.5 139,-108.5 284,-108.5 284,-87.5 139,-87.5"/>
<text text-anchor="start" x="198.5" y="-94.3" font-family="Times,serif" font-size="14.00">false</text>
<polygon fill="lightcoral" stroke="none" points="8,-66.5 8,-87.5 52,-87.5 52,-66.5 8,-66.5"/>
<polygon fill="none" stroke="black" points="8,-66.5 8,-87.5 52,-87.5 52,-66.5 8,-66.5"/>
<text text-anchor="start" x="19" y="-73.3" font-family="Times,serif" font-size="14.00">true</text>
<polygon fill="none" stroke="black" points="52,-66.5 52,-87.5 96,-87.5 96,-66.5 52,-66.5"/>
<text text-anchor="start" x="63" y="-73.3" font-family="Times,serif" font-size="14.00">true</text>
<polygon fill="none" stroke="black" points="96,-66.5 96,-87.5 139,-87.5 139,-66.5 96,-66.5"/>
<text text-anchor="start" x="106.5" y="-73.3" font-family="Times,serif" font-size="14.00">true</text>
<polygon fill="none" stroke="black" points="139,-66.5 139,-87.5 284,-87.5 284,-66.5 139,-66.5"/>
<text text-anchor="start" x="200.5" y="-73.3" font-family="Times,serif" font-size="14.00">true</text>
<polygon fill="lightcoral" stroke="none" points="8,-45.5 8,-66.5 52,-66.5 52,-45.5 8,-45.5"/>
<polygon fill="none" stroke="black" points="8,-45.5 8,-66.5 52,-66.5 52,-45.5 8,-45.5"/>
<text text-anchor="start" x="19" y="-52.3" font-family="Times,serif" font-size="14.00">true</text>
<polygon fill="none" stroke="black" points="52,-45.5 52,-66.5 96,-66.5 96,-45.5 52,-45.5"/>
<text text-anchor="start" x="63" y="-52.3" font-family="Times,serif" font-size="14.00">true</text>
<polygon fill="none" stroke="black" points="96,-45.5 96,-66.5 139,-66.5 139,-45.5 96,-45.5"/>
<text text-anchor="start" x="104.5" y="-52.3" font-family="Times,serif" font-size="14.00">false</text>
<polygon fill="none" stroke="black" points="139,-45.5 139,-66.5 284,-66.5 284,-45.5 139,-45.5"/>
<text text-anchor="start" x="200.5" y="-52.3" font-family="Times,serif" font-size="14.00">true</text>
<polygon fill="lightcoral" stroke="none" points="8,-24.5 8,-45.5 52,-45.5 52,-24.5 8,-24.5"/>
<polygon fill="none" stroke="black" points="8,-24.5 8,-45.5 52,-45.5 52,-24.5 8,-24.5"/>
<text text-anchor="start" x="19" y="-31.3" font-family="Times,serif" font-size="14.00">true</text>
<polygon fill="none" stroke="black" points="52,-24.5 52,-45.5 96,-45.5 96,-24.5 52,-24.5"/>
<text text-anchor="start" x="61" y="-31.3" font-family="Times,serif" font-size="14.00">false</text>
<polygon fill="none" stroke="black" points="96,-24.5 96,-45.5 139,-45.5 139,-24.5 96,-24.5"/>
<text text-anchor="start" x="106.5" y="-31.3" font-family="Times,serif" font-size="14.00">true</text>
<polygon fill="none" stroke="black" points="139,-24.5 139,-45.5 284,-45.5 284,-24.5 139,-24.5"/>
<text text-anchor="start" x="200.5" y="-31.3" font-family="Times,serif" font-size="14.00">true</text>
<polygon fill="lightcoral" stroke="none" points="8,-3.5 8,-24.5 52,-24.5 52,-3.5 8,-3.5"/>
<polygon fill="none" stroke="black" points="8,-3.5 8,-24.5 52,-24.5 52,-3.5 8,-3.5"/>
<text text-anchor="start" x="19" y="-10.3" font-family="Times,serif" font-size="14.00">true</text>
<polygon fill="lightgreen" stroke="none" points="52,-3.5 52,-24.5 96,-24.5 96,-3.5 52,-3.5"/>
<polygon fill="none" stroke="black" points="52,-3.5 52,-24.5 96,-24.5 96,-3.5 52,-3.5"/>
<text text-anchor="start" x="61" y="-10.3" font-family="Times,serif" font-size="14.00">false</text>
<polygon fill="lightgreen" stroke="none" points="96,-3.5 96,-24.5 139,-24.5 139,-3.5 96,-3.5"/>
<polygon fill="none" stroke="black" points="96,-3.5 96,-24.5 139,-24.5 139,-3.5 96,-3.5"/>
<text text-anchor="start" x="104.5" y="-10.3" font-family="Times,serif" font-size="14.00">false</text>
<polygon fill="lightgreen" stroke="none" points="139,-3.5 139,-24.5 284,-24.5 284,-3.5 139,-3.5"/>
<polygon fill="none" stroke="black" points="139,-3.5 139,-24.5 284,-24.5 284,-3.5 139,-3.5"/>
<text text-anchor="start" x="200.5" y="-10.3" font-family="Times,serif" font-size="14.00">true</text>
</g>
</g>
</svg>
