<?xml version="1.0" encoding="UTF-8" standalone="no"?>
<!DOCTYPE svg PUBLIC "-//W3C//DTD SVG 1.1//EN"
 "http://www.w3.org/Graphics/SVG/1.1/DTD/svg11.dtd">
<!-- Generated by graphviz version 7.0.6 (20230106.0513)
 -->
<!-- Title: structs Pages: 1 -->
<svg width="154pt" height="205pt"
 viewBox="0.00 0.00 154.00 205.00" xmlns="http://www.w3.org/2000/svg" xmlns:xlink="http://www.w3.org/1999/xlink">
<g id="graph0" class="graph" transform="scale(1 1) rotate(0) translate(4 201)">
<title>structs</title>
<polygon fill="white" stroke="none" points="-4,4 -4,-201 150,-201 150,4 -4,4"/>
<!-- table -->
<g id="node1" class="node">
<title>table</title>
<polygon fill="none" stroke="black" points="8,-171.5 8,-192.5 51,-192.5 51,-171.5 8,-171.5"/>
<text text-anchor="start" x="11" y="-178.3" font-family="Times,serif" font-size="14.00" fill="orange">a &lt;= 0</text>
<polygon fill="none" stroke="black" points="51,-171.5 51,-192.5 95,-192.5 95,-171.5 51,-171.5"/>
<text text-anchor="start" x="54" y="-178.3" font-family="Times,serif" font-size="14.00" fill="orange">b &lt;= 0</text>
<polygon fill="none" stroke="black" points="95,-171.5 95,-192.5 138,-192.5 138,-171.5 95,-171.5"/>
<text text-anchor="start" x="98" y="-178.3" font-family="Times,serif" font-size="14.00">c &lt;= 0</text>
<polygon fill="none" stroke="black" points="8,-150.5 8,-171.5 51,-171.5 51,-150.5 8,-150.5"/>
<text text-anchor="start" x="18.5" y="-157.3" font-family="Times,serif" font-size="14.00">true</text>
<polygon fill="none" stroke="black" points="51,-150.5 51,-171.5 95,-171.5 95,-150.5 51,-150.5"/>
<text text-anchor="start" x="62" y="-157.3" font-family="Times,serif" font-size="14.00">true</text>
<polygon fill="none" stroke="black" points="95,-150.5 95,-171.5 138,-171.5 138,-150.5 95,-150.5"/>
<text text-anchor="start" x="105.5" y="-157.3" font-family="Times,serif" font-size="14.00">true</text>
<polygon fill="lemonchiffon" stroke="none" points="8,-129.5 8,-150.5 51,-150.5 51,-129.5 8,-129.5"/>
<polygon fill="none" stroke="black" points="8,-129.5 8,-150.5 51,-150.5 51,-129.5 8,-129.5"/>
<text text-anchor="start" x="18.5" y="-136.3" font-family="Times,serif" font-size="14.00">true</text>
<polygon fill="lemonchiffon" stroke="none" points="51,-129.5 51,-150.5 95,-150.5 95,-129.5 51,-129.5"/>
<polygon fill="none" stroke="black" points="51,-129.5 51,-150.5 95,-150.5 95,-129.5 51,-129.5"/>
<text text-anchor="start" x="62" y="-136.3" font-family="Times,serif" font-size="14.00">true</text>
<polygon fill="orange" stroke="none" points="95,-129.5 95,-150.5 138,-150.5 138,-129.5 95,-129.5"/>
<polygon fill="none" stroke="black" points="95,-129.5 95,-150.5 138,-150.5 138,-129.5 95,-129.5"/>
<text text-anchor="start" x="103.5" y="-136.3" font-family="Times,serif" font-size="14.00">false</text>
<polygon fill="none" stroke="black" points="8,-108.5 8,-129.5 51,-129.5 51,-108.5 8,-108.5"/>
<text text-anchor="start" x="18.5" y="-115.3" font-family="Times,serif" font-size="14.00">true</text>
<polygon fill="none" stroke="black" points="51,-108.5 51,-129.5 95,-129.5 95,-108.5 51,-108.5"/>
<text text-anchor="start" x="60" y="-115.3" font-family="Times,serif" font-size="14.00">false</text>
<polygon fill="none" stroke="black" points="95,-108.5 95,-129.5 138,-129.5 138,-108.5 95,-108.5"/>
<text text-anchor="start" x="105.5" y="-115.3" font-family="Times,serif" font-size="14.00">true</text>
<polygon fill="lemonchiffon" stroke="none" points="8,-87.5 8,-108.5 51,-108.5 51,-87.5 8,-87.5"/>
<polygon fill="none" stroke="black" points="8,-87.5 8,-108.5 51,-108.5 51,-87.5 8,-87.5"/>
<text text-anchor="start" x="18.5" y="-94.3" font-family="Times,serif" font-size="14.00">true</text>
<polygon fill="lemonchiffon" stroke="none" points="51,-87.5 51,-108.5 95,-108.5 95,-87.5 51,-87.5"/>
<polygon fill="none" stroke="black" points="51,-87.5 51,-108.5 95,-108.5 95,-87.5 51,-87.5"/>
<text text-anchor="start" x="60" y="-94.3" font-family="Times,serif" font-size="14.00">false</text>
<polygon fill="orange" stroke="none" points="95,-87.5 95,-108.5 138,-108.5 138,-87.5 95,-87.5"/>
<polygon fill="none" stroke="black" points="95,-87.5 95,-108.5 138,-108.5 138,-87.5 95,-87.5"/>
<text text-anchor="start" x="103.5" y="-94.3" font-family="Times,serif" font-size="14.00">false</text>
<polygon fill="none" stroke="black" points="8,-66.5 8,-87.5 51,-87.5 51,-66.5 8,-66.5"/>
<text text-anchor="start" x="16.5" y="-73.3" font-family="Times,serif" font-size="14.00">false</text>
<polygon fill="none" stroke="black" points="51,-66.5 51,-87.5 95,-87.5 95,-66.5 51,-66.5"/>
<text text-anchor="start" x="62" y="-73.3" font-family="Times,serif" font-size="14.00">true</text>
<polygon fill="none" stroke="black" points="95,-66.5 95,-87.5 138,-87.5 138,-66.5 95,-66.5"/>
<text text-anchor="start" x="105.5" y="-73.3" font-family="Times,serif" font-size="14.00">true</text>
<polygon fill="lemonchiffon" stroke="none" points="8,-45.5 8,-66.5 51,-66.5 51,-45.5 8,-45.5"/>
<polygon fill="none" stroke="black" points="8,-45.5 8,-66.5 51,-66.5 51,-45.5 8,-45.5"/>
<text text-anchor="start" x="16.5" y="-52.3" font-family="Times,serif" font-size="14.00">false</text>
<polygon fill="lemonchiffon" stroke="none" points="51,-45.5 51,-66.5 95,-66.5 95,-45.5 51,-45.5"/>
<polygon fill="none" stroke="black" points="51,-45.5 51,-66.5 95,-66.5 95,-45.5 51,-45.5"/>
<text text-anchor="start" x="60" y="-52.3" font-family="Times,serif" font-size="14.00">false</text>
<polygon fill="orange" stroke="none" points="95,-45.5 95,-66.5 138,-66.5 138,-45.5 95,-45.5"/>
<polygon fill="none" stroke="black" points="95,-45.5 95,-66.5 138,-66.5 138,-45.5 95,-45.5"/>
<text text-anchor="start" x="103.5" y="-52.3" font-family="Times,serif" font-size="14.00">false</text>
<polygon fill="none" stroke="black" points="8,-24.5 8,-45.5 51,-45.5 51,-24.5 8,-24.5"/>
<text text-anchor="start" x="16.5" y="-31.3" font-family="Times,serif" font-size="14.00">false</text>
<polygon fill="none" stroke="black" points="51,-24.5 51,-45.5 95,-45.5 95,-24.5 51,-24.5"/>
<text text-anchor="start" x="60" y="-31.3" font-family="Times,serif" font-size="14.00">false</text>
<polygon fill="none" stroke="black" points="95,-24.5 95,-45.5 138,-45.5 138,-24.5 95,-24.5"/>
<text text-anchor="start" x="105.5" y="-31.3" font-family="Times,serif" font-size="14.00">true</text>
<polygon fill="none" stroke="black" points="8,-3.5 8,-24.5 51,-24.5 51,-3.5 8,-3.5"/>
<text text-anchor="start" x="16.5" y="-10.3" font-family="Times,serif" font-size="14.00">false</text>
<polygon fill="none" stroke="black" points="51,-3.5 51,-24.5 95,-24.5 95,-3.5 51,-3.5"/>
<text text-anchor="start" x="60" y="-10.3" font-family="Times,serif" font-size="14.00">false</text>
<polygon fill="none" stroke="black" points="95,-3.5 95,-24.5 138,-24.5 138,-3.5 95,-3.5"/>
<text text-anchor="start" x="103.5" y="-10.3" font-family="Times,serif" font-size="14.00">false</text>
</g>
</g>
</svg>
