<?xml version="1.0" encoding="UTF-8" standalone="no"?>
<!DOCTYPE svg PUBLIC "-//W3C//DTD SVG 1.1//EN"
 "http://www.w3.org/Graphics/SVG/1.1/DTD/svg11.dtd">
<!-- Generated by graphviz version 7.0.6 (20230106.0513)
 -->
<!-- Title: structs Pages: 1 -->
<svg width="309pt" height="205pt"
 viewBox="0.00 0.00 309.00 205.00" xmlns="http://www.w3.org/2000/svg" xmlns:xlink="http://www.w3.org/1999/xlink">
<g id="graph0" class="graph" transform="scale(1 1) rotate(0) translate(4 201)">
<title>structs</title>
<polygon fill="white" stroke="none" points="-4,4 -4,-201 305,-201 305,4 -4,4"/>
<!-- table -->
<g id="node1" class="node">
<title>table</title>
<polygon fill="none" stroke="black" points="8.5,-171.5 8.5,-192.5 51.5,-192.5 51.5,-171.5 8.5,-171.5"/>
<text text-anchor="start" x="11.5" y="-178.3" font-family="Times,serif" font-size="14.00">a &lt;= 0</text>
<polygon fill="none" stroke="black" points="51.5,-171.5 51.5,-192.5 95.5,-192.5 95.5,-171.5 51.5,-171.5"/>
<text text-anchor="start" x="54.5" y="-178.3" font-family="Times,serif" font-size="14.00">b &lt;= 0</text>
<polygon fill="none" stroke="black" points="95.5,-171.5 95.5,-192.5 143.5,-192.5 143.5,-171.5 95.5,-171.5"/>
<text text-anchor="start" x="98.5" y="-179.3" font-family="Times,serif" font-size="14.00">c </text>
<text text-anchor="start" x="108.5" y="-179.3" font-family="Times,serif" font-size="14.00" fill="orange">== </text>
<text text-anchor="start" x="129.5" y="-179.3" font-family="Times,serif" font-size="14.00"> 0</text>
<polygon fill="none" stroke="black" points="143.5,-171.5 143.5,-192.5 293.5,-192.5 293.5,-171.5 143.5,-171.5"/>
<text text-anchor="start" x="146.5" y="-179.3" font-family="Times,serif" font-size="14.00">a &lt;= 0 || b &lt;= 0 || c </text>
<text text-anchor="start" x="258.5" y="-179.3" font-family="Times,serif" font-size="14.00" fill="orange">== </text>
<text text-anchor="start" x="279.5" y="-179.3" font-family="Times,serif" font-size="14.00"> 0</text>
<polygon fill="none" stroke="black" points="8.5,-150.5 8.5,-171.5 51.5,-171.5 51.5,-150.5 8.5,-150.5"/>
<text text-anchor="start" x="19" y="-157.3" font-family="Times,serif" font-size="14.00">true</text>
<polygon fill="none" stroke="black" points="51.5,-150.5 51.5,-171.5 95.5,-171.5 95.5,-150.5 51.5,-150.5"/>
<text text-anchor="start" x="62.5" y="-157.3" font-family="Times,serif" font-size="14.00">true</text>
<polygon fill="none" stroke="black" points="95.5,-150.5 95.5,-171.5 143.5,-171.5 143.5,-150.5 95.5,-150.5"/>
<text text-anchor="start" x="106.5" y="-157.3" font-family="Times,serif" font-size="14.00">false</text>
<polygon fill="none" stroke="black" points="143.5,-150.5 143.5,-171.5 293.5,-171.5 293.5,-150.5 143.5,-150.5"/>
<text text-anchor="start" x="207.5" y="-157.3" font-family="Times,serif" font-size="14.00">true</text>
<polygon fill="none" stroke="black" points="8.5,-129.5 8.5,-150.5 51.5,-150.5 51.5,-129.5 8.5,-129.5"/>
<text text-anchor="start" x="19" y="-136.3" font-family="Times,serif" font-size="14.00">true</text>
<polygon fill="none" stroke="black" points="51.5,-129.5 51.5,-150.5 95.5,-150.5 95.5,-129.5 51.5,-129.5"/>
<text text-anchor="start" x="62.5" y="-136.3" font-family="Times,serif" font-size="14.00">true</text>
<polygon fill="none" stroke="black" points="95.5,-129.5 95.5,-150.5 143.5,-150.5 143.5,-129.5 95.5,-129.5"/>
<text text-anchor="start" x="108.5" y="-136.3" font-family="Times,serif" font-size="14.00">true</text>
<polygon fill="none" stroke="black" points="143.5,-129.5 143.5,-150.5 293.5,-150.5 293.5,-129.5 143.5,-129.5"/>
<text text-anchor="start" x="207.5" y="-136.3" font-family="Times,serif" font-size="14.00">true</text>
<polygon fill="none" stroke="black" points="8.5,-108.5 8.5,-129.5 51.5,-129.5 51.5,-108.5 8.5,-108.5"/>
<text text-anchor="start" x="19" y="-115.3" font-family="Times,serif" font-size="14.00">true</text>
<polygon fill="none" stroke="black" points="51.5,-108.5 51.5,-129.5 95.5,-129.5 95.5,-108.5 51.5,-108.5"/>
<text text-anchor="start" x="60.5" y="-115.3" font-family="Times,serif" font-size="14.00">false</text>
<polygon fill="none" stroke="black" points="95.5,-108.5 95.5,-129.5 143.5,-129.5 143.5,-108.5 95.5,-108.5"/>
<text text-anchor="start" x="106.5" y="-115.3" font-family="Times,serif" font-size="14.00">false</text>
<polygon fill="none" stroke="black" points="143.5,-108.5 143.5,-129.5 293.5,-129.5 293.5,-108.5 143.5,-108.5"/>
<text text-anchor="start" x="207.5" y="-115.3" font-family="Times,serif" font-size="14.00">true</text>
<polygon fill="none" stroke="black" points="8.5,-87.5 8.5,-108.5 51.5,-108.5 51.5,-87.5 8.5,-87.5"/>
<text text-anchor="start" x="19" y="-94.3" font-family="Times,serif" font-size="14.00">true</text>
<polygon fill="none" stroke="black" points="51.5,-87.5 51.5,-108.5 95.5,-108.5 95.5,-87.5 51.5,-87.5"/>
<text text-anchor="start" x="60.5" y="-94.3" font-family="Times,serif" font-size="14.00">false</text>
<polygon fill="none" stroke="black" points="95.5,-87.5 95.5,-108.5 143.5,-108.5 143.5,-87.5 95.5,-87.5"/>
<text text-anchor="start" x="108.5" y="-94.3" font-family="Times,serif" font-size="14.00">true</text>
<polygon fill="none" stroke="black" points="143.5,-87.5 143.5,-108.5 293.5,-108.5 293.5,-87.5 143.5,-87.5"/>
<text text-anchor="start" x="207.5" y="-94.3" font-family="Times,serif" font-size="14.00">true</text>
<polygon fill="none" stroke="black" points="8.5,-66.5 8.5,-87.5 51.5,-87.5 51.5,-66.5 8.5,-66.5"/>
<text text-anchor="start" x="17" y="-73.3" font-family="Times,serif" font-size="14.00">false</text>
<polygon fill="none" stroke="black" points="51.5,-66.5 51.5,-87.5 95.5,-87.5 95.5,-66.5 51.5,-66.5"/>
<text text-anchor="start" x="62.5" y="-73.3" font-family="Times,serif" font-size="14.00">true</text>
<polygon fill="none" stroke="black" points="95.5,-66.5 95.5,-87.5 143.5,-87.5 143.5,-66.5 95.5,-66.5"/>
<text text-anchor="start" x="106.5" y="-73.3" font-family="Times,serif" font-size="14.00">false</text>
<polygon fill="none" stroke="black" points="143.5,-66.5 143.5,-87.5 293.5,-87.5 293.5,-66.5 143.5,-66.5"/>
<text text-anchor="start" x="207.5" y="-73.3" font-family="Times,serif" font-size="14.00">true</text>
<polygon fill="none" stroke="black" points="8.5,-45.5 8.5,-66.5 51.5,-66.5 51.5,-45.5 8.5,-45.5"/>
<text text-anchor="start" x="17" y="-52.3" font-family="Times,serif" font-size="14.00">false</text>
<polygon fill="none" stroke="black" points="51.5,-45.5 51.5,-66.5 95.5,-66.5 95.5,-45.5 51.5,-45.5"/>
<text text-anchor="start" x="62.5" y="-52.3" font-family="Times,serif" font-size="14.00">true</text>
<polygon fill="none" stroke="black" points="95.5,-45.5 95.5,-66.5 143.5,-66.5 143.5,-45.5 95.5,-45.5"/>
<text text-anchor="start" x="108.5" y="-52.3" font-family="Times,serif" font-size="14.00">true</text>
<polygon fill="none" stroke="black" points="143.5,-45.5 143.5,-66.5 293.5,-66.5 293.5,-45.5 143.5,-45.5"/>
<text text-anchor="start" x="207.5" y="-52.3" font-family="Times,serif" font-size="14.00">true</text>
<polygon fill="lemonchiffon" stroke="none" points="8.5,-24.5 8.5,-45.5 51.5,-45.5 51.5,-24.5 8.5,-24.5"/>
<polygon fill="none" stroke="black" points="8.5,-24.5 8.5,-45.5 51.5,-45.5 51.5,-24.5 8.5,-24.5"/>
<text text-anchor="start" x="17" y="-31.3" font-family="Times,serif" font-size="14.00">false</text>
<polygon fill="lemonchiffon" stroke="none" points="51.5,-24.5 51.5,-45.5 95.5,-45.5 95.5,-24.5 51.5,-24.5"/>
<polygon fill="none" stroke="black" points="51.5,-24.5 51.5,-45.5 95.5,-45.5 95.5,-24.5 51.5,-24.5"/>
<text text-anchor="start" x="60.5" y="-31.3" font-family="Times,serif" font-size="14.00">false</text>
<polygon fill="orange" stroke="none" points="95.5,-24.5 95.5,-45.5 143.5,-45.5 143.5,-24.5 95.5,-24.5"/>
<polygon fill="none" stroke="black" points="95.5,-24.5 95.5,-45.5 143.5,-45.5 143.5,-24.5 95.5,-24.5"/>
<text text-anchor="start" x="106.5" y="-31.3" font-family="Times,serif" font-size="14.00">false</text>
<polygon fill="orange" stroke="none" points="143.5,-24.5 143.5,-45.5 293.5,-45.5 293.5,-24.5 143.5,-24.5"/>
<polygon fill="none" stroke="black" points="143.5,-24.5 143.5,-45.5 293.5,-45.5 293.5,-24.5 143.5,-24.5"/>
<text text-anchor="start" x="205.5" y="-31.3" font-family="Times,serif" font-size="14.00">false</text>
<polygon fill="lemonchiffon" stroke="none" points="8.5,-3.5 8.5,-24.5 51.5,-24.5 51.5,-3.5 8.5,-3.5"/>
<polygon fill="none" stroke="black" points="8.5,-3.5 8.5,-24.5 51.5,-24.5 51.5,-3.5 8.5,-3.5"/>
<text text-anchor="start" x="17" y="-10.3" font-family="Times,serif" font-size="14.00">false</text>
<polygon fill="lemonchiffon" stroke="none" points="51.5,-3.5 51.5,-24.5 95.5,-24.5 95.5,-3.5 51.5,-3.5"/>
<polygon fill="none" stroke="black" points="51.5,-3.5 51.5,-24.5 95.5,-24.5 95.5,-3.5 51.5,-3.5"/>
<text text-anchor="start" x="60.5" y="-10.3" font-family="Times,serif" font-size="14.00">false</text>
<polygon fill="orange" stroke="none" points="95.5,-3.5 95.5,-24.5 143.5,-24.5 143.5,-3.5 95.5,-3.5"/>
<polygon fill="none" stroke="black" points="95.5,-3.5 95.5,-24.5 143.5,-24.5 143.5,-3.5 95.5,-3.5"/>
<text text-anchor="start" x="108.5" y="-10.3" font-family="Times,serif" font-size="14.00">true</text>
<polygon fill="orange" stroke="none" points="143.5,-3.5 143.5,-24.5 293.5,-24.5 293.5,-3.5 143.5,-3.5"/>
<polygon fill="none" stroke="black" points="143.5,-3.5 143.5,-24.5 293.5,-24.5 293.5,-3.5 143.5,-3.5"/>
<text text-anchor="start" x="207.5" y="-10.3" font-family="Times,serif" font-size="14.00">true</text>
</g>
</g>
</svg>
