<?xml version="1.0" encoding="UTF-8" standalone="no"?>
<!DOCTYPE svg PUBLIC "-//W3C//DTD SVG 1.1//EN"
 "http://www.w3.org/Graphics/SVG/1.1/DTD/svg11.dtd">
<!-- Generated by graphviz version 7.0.6 (20230106.0513)
 -->
<!-- Title: structs Pages: 1 -->
<svg width="438pt" height="205pt"
 viewBox="0.00 0.00 438.00 205.00" xmlns="http://www.w3.org/2000/svg" xmlns:xlink="http://www.w3.org/1999/xlink">
<g id="graph0" class="graph" transform="scale(1 1) rotate(0) translate(4 201)">
<title>structs</title>
<polygon fill="white" stroke="none" points="-4,4 -4,-201 434,-201 434,4 -4,4"/>
<!-- table -->
<g id="node1" class="node">
<title>table</title>
<polygon fill="none" stroke="black" points="8,-171.5 8,-192.5 78,-192.5 78,-171.5 8,-171.5"/>
<text text-anchor="start" x="11" y="-179.3" font-family="Times,serif" font-size="14.00">a + b </text>
<text text-anchor="start" x="44" y="-179.3" font-family="Times,serif" font-size="14.00" fill="orange">== </text>
<text text-anchor="start" x="65" y="-179.3" font-family="Times,serif" font-size="14.00"> c</text>
<polygon fill="none" stroke="black" points="78,-171.5 78,-192.5 143,-192.5 143,-171.5 78,-171.5"/>
<text text-anchor="start" x="81" y="-178.3" font-family="Times,serif" font-size="14.00">a + c &lt;= b</text>
<polygon fill="none" stroke="black" points="143,-171.5 143,-192.5 208,-192.5 208,-171.5 143,-171.5"/>
<text text-anchor="start" x="146" y="-178.3" font-family="Times,serif" font-size="14.00">b + c &lt;= a</text>
<polygon fill="none" stroke="black" points="208,-171.5 208,-192.5 422,-192.5 422,-171.5 208,-171.5"/>
<text text-anchor="start" x="211" y="-179.3" font-family="Times,serif" font-size="14.00">a + b </text>
<text text-anchor="start" x="244" y="-179.3" font-family="Times,serif" font-size="14.00" fill="orange">== </text>
<text text-anchor="start" x="265" y="-179.3" font-family="Times,serif" font-size="14.00"> c || a + c &lt;= b || b + c &lt;= a</text>
<polygon fill="none" stroke="black" points="8,-150.5 8,-171.5 78,-171.5 78,-150.5 8,-150.5"/>
<text text-anchor="start" x="30" y="-157.3" font-family="Times,serif" font-size="14.00">false</text>
<polygon fill="none" stroke="black" points="78,-150.5 78,-171.5 143,-171.5 143,-150.5 78,-150.5"/>
<text text-anchor="start" x="99.5" y="-157.3" font-family="Times,serif" font-size="14.00">true</text>
<polygon fill="none" stroke="black" points="143,-150.5 143,-171.5 208,-171.5 208,-150.5 143,-150.5"/>
<text text-anchor="start" x="164.5" y="-157.3" font-family="Times,serif" font-size="14.00">true</text>
<polygon fill="none" stroke="black" points="208,-150.5 208,-171.5 422,-171.5 422,-150.5 208,-150.5"/>
<text text-anchor="start" x="304" y="-157.3" font-family="Times,serif" font-size="14.00">true</text>
<polygon fill="none" stroke="black" points="8,-129.5 8,-150.5 78,-150.5 78,-129.5 8,-129.5"/>
<text text-anchor="start" x="30" y="-136.3" font-family="Times,serif" font-size="14.00">false</text>
<polygon fill="none" stroke="black" points="78,-129.5 78,-150.5 143,-150.5 143,-129.5 78,-129.5"/>
<text text-anchor="start" x="99.5" y="-136.3" font-family="Times,serif" font-size="14.00">true</text>
<polygon fill="none" stroke="black" points="143,-129.5 143,-150.5 208,-150.5 208,-129.5 143,-129.5"/>
<text text-anchor="start" x="162.5" y="-136.3" font-family="Times,serif" font-size="14.00">false</text>
<polygon fill="none" stroke="black" points="208,-129.5 208,-150.5 422,-150.5 422,-129.5 208,-129.5"/>
<text text-anchor="start" x="304" y="-136.3" font-family="Times,serif" font-size="14.00">true</text>
<polygon fill="none" stroke="black" points="8,-108.5 8,-129.5 78,-129.5 78,-108.5 8,-108.5"/>
<text text-anchor="start" x="30" y="-115.3" font-family="Times,serif" font-size="14.00">false</text>
<polygon fill="none" stroke="black" points="78,-108.5 78,-129.5 143,-129.5 143,-108.5 78,-108.5"/>
<text text-anchor="start" x="97.5" y="-115.3" font-family="Times,serif" font-size="14.00">false</text>
<polygon fill="none" stroke="black" points="143,-108.5 143,-129.5 208,-129.5 208,-108.5 143,-108.5"/>
<text text-anchor="start" x="164.5" y="-115.3" font-family="Times,serif" font-size="14.00">true</text>
<polygon fill="none" stroke="black" points="208,-108.5 208,-129.5 422,-129.5 422,-108.5 208,-108.5"/>
<text text-anchor="start" x="304" y="-115.3" font-family="Times,serif" font-size="14.00">true</text>
<polygon fill="orange" stroke="none" points="8,-87.5 8,-108.5 78,-108.5 78,-87.5 8,-87.5"/>
<polygon fill="none" stroke="black" points="8,-87.5 8,-108.5 78,-108.5 78,-87.5 8,-87.5"/>
<text text-anchor="start" x="30" y="-94.3" font-family="Times,serif" font-size="14.00">false</text>
<polygon fill="lemonchiffon" stroke="none" points="78,-87.5 78,-108.5 143,-108.5 143,-87.5 78,-87.5"/>
<polygon fill="none" stroke="black" points="78,-87.5 78,-108.5 143,-108.5 143,-87.5 78,-87.5"/>
<text text-anchor="start" x="97.5" y="-94.3" font-family="Times,serif" font-size="14.00">false</text>
<polygon fill="lemonchiffon" stroke="none" points="143,-87.5 143,-108.5 208,-108.5 208,-87.5 143,-87.5"/>
<polygon fill="none" stroke="black" points="143,-87.5 143,-108.5 208,-108.5 208,-87.5 143,-87.5"/>
<text text-anchor="start" x="162.5" y="-94.3" font-family="Times,serif" font-size="14.00">false</text>
<polygon fill="orange" stroke="none" points="208,-87.5 208,-108.5 422,-108.5 422,-87.5 208,-87.5"/>
<polygon fill="none" stroke="black" points="208,-87.5 208,-108.5 422,-108.5 422,-87.5 208,-87.5"/>
<text text-anchor="start" x="302" y="-94.3" font-family="Times,serif" font-size="14.00">false</text>
<polygon fill="none" stroke="black" points="8,-66.5 8,-87.5 78,-87.5 78,-66.5 8,-66.5"/>
<text text-anchor="start" x="32" y="-73.3" font-family="Times,serif" font-size="14.00">true</text>
<polygon fill="none" stroke="black" points="78,-66.5 78,-87.5 143,-87.5 143,-66.5 78,-66.5"/>
<text text-anchor="start" x="99.5" y="-73.3" font-family="Times,serif" font-size="14.00">true</text>
<polygon fill="none" stroke="black" points="143,-66.5 143,-87.5 208,-87.5 208,-66.5 143,-66.5"/>
<text text-anchor="start" x="164.5" y="-73.3" font-family="Times,serif" font-size="14.00">true</text>
<polygon fill="none" stroke="black" points="208,-66.5 208,-87.5 422,-87.5 422,-66.5 208,-66.5"/>
<text text-anchor="start" x="304" y="-73.3" font-family="Times,serif" font-size="14.00">true</text>
<polygon fill="none" stroke="black" points="8,-45.5 8,-66.5 78,-66.5 78,-45.5 8,-45.5"/>
<text text-anchor="start" x="32" y="-52.3" font-family="Times,serif" font-size="14.00">true</text>
<polygon fill="none" stroke="black" points="78,-45.5 78,-66.5 143,-66.5 143,-45.5 78,-45.5"/>
<text text-anchor="start" x="99.5" y="-52.3" font-family="Times,serif" font-size="14.00">true</text>
<polygon fill="none" stroke="black" points="143,-45.5 143,-66.5 208,-66.5 208,-45.5 143,-45.5"/>
<text text-anchor="start" x="162.5" y="-52.3" font-family="Times,serif" font-size="14.00">false</text>
<polygon fill="none" stroke="black" points="208,-45.5 208,-66.5 422,-66.5 422,-45.5 208,-45.5"/>
<text text-anchor="start" x="304" y="-52.3" font-family="Times,serif" font-size="14.00">true</text>
<polygon fill="none" stroke="black" points="8,-24.5 8,-45.5 78,-45.5 78,-24.5 8,-24.5"/>
<text text-anchor="start" x="32" y="-31.3" font-family="Times,serif" font-size="14.00">true</text>
<polygon fill="none" stroke="black" points="78,-24.5 78,-45.5 143,-45.5 143,-24.5 78,-24.5"/>
<text text-anchor="start" x="97.5" y="-31.3" font-family="Times,serif" font-size="14.00">false</text>
<polygon fill="none" stroke="black" points="143,-24.5 143,-45.5 208,-45.5 208,-24.5 143,-24.5"/>
<text text-anchor="start" x="164.5" y="-31.3" font-family="Times,serif" font-size="14.00">true</text>
<polygon fill="none" stroke="black" points="208,-24.5 208,-45.5 422,-45.5 422,-24.5 208,-24.5"/>
<text text-anchor="start" x="304" y="-31.3" font-family="Times,serif" font-size="14.00">true</text>
<polygon fill="orange" stroke="none" points="8,-3.5 8,-24.5 78,-24.5 78,-3.5 8,-3.5"/>
<polygon fill="none" stroke="black" points="8,-3.5 8,-24.5 78,-24.5 78,-3.5 8,-3.5"/>
<text text-anchor="start" x="32" y="-10.3" font-family="Times,serif" font-size="14.00">true</text>
<polygon fill="lemonchiffon" stroke="none" points="78,-3.5 78,-24.5 143,-24.5 143,-3.5 78,-3.5"/>
<polygon fill="none" stroke="black" points="78,-3.5 78,-24.5 143,-24.5 143,-3.5 78,-3.5"/>
<text text-anchor="start" x="97.5" y="-10.3" font-family="Times,serif" font-size="14.00">false</text>
<polygon fill="lemonchiffon" stroke="none" points="143,-3.5 143,-24.5 208,-24.5 208,-3.5 143,-3.5"/>
<polygon fill="none" stroke="black" points="143,-3.5 143,-24.5 208,-24.5 208,-3.5 143,-3.5"/>
<text text-anchor="start" x="162.5" y="-10.3" font-family="Times,serif" font-size="14.00">false</text>
<polygon fill="orange" stroke="none" points="208,-3.5 208,-24.5 422,-24.5 422,-3.5 208,-3.5"/>
<polygon fill="none" stroke="black" points="208,-3.5 208,-24.5 422,-24.5 422,-3.5 208,-3.5"/>
<text text-anchor="start" x="304" y="-10.3" font-family="Times,serif" font-size="14.00">true</text>
</g>
</g>
</svg>
