<?xml version="1.0" encoding="UTF-8" standalone="no"?>
<!DOCTYPE svg PUBLIC "-//W3C//DTD SVG 1.1//EN"
 "http://www.w3.org/Graphics/SVG/1.1/DTD/svg11.dtd">
<!-- Generated by graphviz version 7.0.6 (20230106.0513)
 -->
<!-- Title: structs Pages: 1 -->
<svg width="450pt" height="276pt"
 viewBox="0.00 0.00 450.00 275.79" xmlns="http://www.w3.org/2000/svg" xmlns:xlink="http://www.w3.org/1999/xlink">
<g id="graph0" class="graph" transform="scale(1 1) rotate(0) translate(4 271.79)">
<title>structs</title>
<polygon fill="white" stroke="none" points="-4,4 -4,-271.79 446,-271.79 446,4 -4,4"/>
<!-- paren -->
<g id="node1" class="node">
<title>paren</title>
<text text-anchor="start" x="8" y="-252.59" font-family="Times,serif" font-size="14.00">ORIGINAL ((((a &lt;= 0) || (b &lt;= 0)) || (c &lt;= 0)))</text>
<text text-anchor="start" x="16" y="-237.59" font-family="Times,serif" font-size="14.00">MUTANT ((((a &lt;= 0) || (b &lt; 0)) || (c &lt;= 0)))</text>
</g>
<!-- node3 -->
<g id="node2" class="node">
<title>node3</title>
<ellipse fill="lightgrey" stroke="black" cx="146" cy="-18" rx="18" ry="18"/>
<text text-anchor="middle" x="146" y="-14.3" font-family="Times,serif" font-size="14.00">a</text>
</g>
<!-- node4 -->
<g id="node3" class="node">
<title>node4</title>
<ellipse fill="lightgrey" stroke="black" cx="200" cy="-18" rx="18" ry="18"/>
<text text-anchor="middle" x="200" y="-14.3" font-family="Times,serif" font-size="14.00">0</text>
</g>
<!-- node2 -->
<g id="node4" class="node">
<title>node2</title>
<ellipse fill="lightgrey" stroke="black" cx="198" cy="-93.45" rx="21.4" ry="21.4"/>
<text text-anchor="middle" x="198" y="-89.75" font-family="Times,serif" font-size="14.00">&lt;=</text>
</g>
<!-- node2&#45;&gt;node3 -->
<g id="edge1" class="edge">
<title>node2&#45;&gt;node3</title>
<path fill="none" stroke="black" d="M185.94,-75.41C178.96,-65.55 170.07,-53 162.45,-42.24"/>
<polygon fill="black" stroke="black" points="165.41,-40.36 156.78,-34.22 159.7,-44.41 165.41,-40.36"/>
</g>
<!-- node2&#45;&gt;node4 -->
<g id="edge2" class="edge">
<title>node2&#45;&gt;node4</title>
<path fill="none" stroke="black" d="M198.57,-71.6C198.77,-64.16 199,-55.65 199.22,-47.67"/>
<polygon fill="black" stroke="black" points="202.72,-47.79 199.49,-37.7 195.72,-47.6 202.72,-47.79"/>
</g>
<!-- node6 -->
<g id="node5" class="node">
<title>node6</title>
<ellipse fill="lightgrey" stroke="black" cx="257" cy="-18" rx="18" ry="18"/>
<text text-anchor="middle" x="257" y="-14.3" font-family="Times,serif" font-size="14.00">b</text>
</g>
<!-- node8 -->
<g id="node6" class="node">
<title>node8</title>
<ellipse fill="lightgrey" stroke="black" cx="311" cy="-18" rx="18" ry="18"/>
<text text-anchor="middle" x="311" y="-14.3" font-family="Times,serif" font-size="14.00">0</text>
</g>
<!-- node7 -->
<g id="node7" class="node">
<title>node7</title>
<ellipse fill="MediumSeaGreen" stroke="black" cx="316" cy="-93.45" rx="18" ry="18"/>
<text text-anchor="middle" x="316" y="-89.75" font-family="Times,serif" font-size="14.00">&lt;</text>
</g>
<!-- node5 -->
<g id="node8" class="node">
<title>node5</title>
<ellipse fill="MediumSeaGreen" stroke="black" cx="259" cy="-93.45" rx="21.4" ry="21.4"/>
<text text-anchor="middle" x="259" y="-89.75" font-family="Times,serif" font-size="14.00">&lt;=</text>
</g>
<!-- node5&#45;&gt;node6 -->
<g id="edge4" class="edge">
<title>node5&#45;&gt;node6</title>
<path fill="none" stroke="black" d="M258.43,-71.6C258.23,-64.16 258,-55.65 257.78,-47.67"/>
<polygon fill="black" stroke="black" points="261.28,-47.6 257.51,-37.7 254.28,-47.79 261.28,-47.6"/>
</g>
<!-- node5&#45;&gt;node8 -->
<g id="edge5" class="edge">
<title>node5&#45;&gt;node8</title>
<path fill="none" stroke="black" d="M271.06,-75.41C278.04,-65.55 286.93,-53 294.55,-42.24"/>
<polygon fill="black" stroke="black" points="297.3,-44.41 300.22,-34.22 291.59,-40.36 297.3,-44.41"/>
</g>
<!-- node5&#45;&gt;node7 -->
<g id="edge3" class="edge">
<title>node5&#45;&gt;node7</title>
<path fill="none" stroke="dimgrey" stroke-dasharray="1,5" d="M280.82,-93.45C286.41,-93.45 292,-93.45 297.59,-93.45"/>
</g>
<!-- node1 -->
<g id="node9" class="node">
<title>node1</title>
<ellipse fill="lightgrey" stroke="black" cx="259" cy="-172.34" rx="18" ry="18"/>
<text text-anchor="middle" x="259" y="-168.64" font-family="Times,serif" font-size="14.00">||</text>
</g>
<!-- node1&#45;&gt;node2 -->
<g id="edge6" class="edge">
<title>node1&#45;&gt;node2</title>
<path fill="none" stroke="black" d="M248.09,-157.6C239.71,-147.03 227.9,-132.14 217.86,-119.48"/>
<polygon fill="black" stroke="black" points="220.82,-117.59 211.87,-111.93 215.34,-121.94 220.82,-117.59"/>
</g>
<!-- node1&#45;&gt;node5 -->
<g id="edge7" class="edge">
<title>node1&#45;&gt;node5</title>
<path fill="none" stroke="black" d="M259,-153.9C259,-145.79 259,-135.9 259,-126.52"/>
<polygon fill="black" stroke="black" points="262.5,-126.62 259,-116.62 255.5,-126.62 262.5,-126.62"/>
</g>
<!-- node10 -->
<g id="node10" class="node">
<title>node10</title>
<ellipse fill="lightgrey" stroke="black" cx="370" cy="-93.45" rx="18" ry="18"/>
<text text-anchor="middle" x="370" y="-89.75" font-family="Times,serif" font-size="14.00">c</text>
</g>
<!-- node11 -->
<g id="node11" class="node">
<title>node11</title>
<ellipse fill="lightgrey" stroke="black" cx="424" cy="-93.45" rx="18" ry="18"/>
<text text-anchor="middle" x="424" y="-89.75" font-family="Times,serif" font-size="14.00">0</text>
</g>
<!-- node9 -->
<g id="node12" class="node">
<title>node9</title>
<ellipse fill="lightgrey" stroke="black" cx="370" cy="-172.34" rx="21.4" ry="21.4"/>
<text text-anchor="middle" x="370" y="-168.64" font-family="Times,serif" font-size="14.00">&lt;=</text>
</g>
<!-- node9&#45;&gt;node10 -->
<g id="edge8" class="edge">
<title>node9&#45;&gt;node10</title>
<path fill="none" stroke="black" d="M370,-150.74C370,-142.26 370,-132.3 370,-123.13"/>
<polygon fill="black" stroke="black" points="373.5,-123.24 370,-113.24 366.5,-123.24 373.5,-123.24"/>
</g>
<!-- node9&#45;&gt;node11 -->
<g id="edge9" class="edge">
<title>node9&#45;&gt;node11</title>
<path fill="none" stroke="black" d="M381.98,-154.28C389.46,-143.63 399.19,-129.78 407.4,-118.08"/>
<polygon fill="black" stroke="black" points="410.11,-120.32 412.99,-110.12 404.38,-116.29 410.11,-120.32"/>
</g>
<!-- node0 -->
<g id="node13" class="node">
<title>node0</title>
<ellipse fill="lightgrey" stroke="black" cx="314" cy="-248.79" rx="18" ry="18"/>
<text text-anchor="middle" x="314" y="-245.09" font-family="Times,serif" font-size="14.00">||</text>
</g>
<!-- node0&#45;&gt;node1 -->
<g id="edge10" class="edge">
<title>node0&#45;&gt;node1</title>
<path fill="none" stroke="black" d="M303.65,-233.79C295.95,-223.35 285.24,-208.86 276.24,-196.69"/>
<polygon fill="black" stroke="black" points="279.14,-194.72 270.39,-188.76 273.51,-198.88 279.14,-194.72"/>
</g>
<!-- node0&#45;&gt;node9 -->
<g id="edge11" class="edge">
<title>node0&#45;&gt;node9</title>
<path fill="none" stroke="black" d="M324.53,-233.79C331.88,-224.02 341.91,-210.69 350.67,-199.04"/>
<polygon fill="black" stroke="black" points="353.23,-201.46 356.45,-191.36 347.64,-197.25 353.23,-201.46"/>
</g>
</g>
</svg>
