<?xml version="1.0" encoding="UTF-8" standalone="no"?>
<!DOCTYPE svg PUBLIC "-//W3C//DTD SVG 1.1//EN"
 "http://www.w3.org/Graphics/SVG/1.1/DTD/svg11.dtd">
<!-- Generated by graphviz version 7.0.6 (20230106.0513)
 -->
<!-- Title: structs Pages: 1 -->
<svg width="444pt" height="205pt"
 viewBox="0.00 0.00 444.00 205.00" xmlns="http://www.w3.org/2000/svg" xmlns:xlink="http://www.w3.org/1999/xlink">
<g id="graph0" class="graph" transform="scale(1 1) rotate(0) translate(4 201)">
<title>structs</title>
<polygon fill="white" stroke="none" points="-4,4 -4,-201 440,-201 440,4 -4,4"/>
<!-- table -->
<g id="node1" class="node">
<title>table</title>
<polygon fill="none" stroke="black" points="8,-171.5 8,-192.5 73,-192.5 73,-171.5 8,-171.5"/>
<text text-anchor="start" x="11" y="-178.3" font-family="Times,serif" font-size="14.00">a + b &lt;= c</text>
<polygon fill="none" stroke="black" points="73,-171.5 73,-192.5 138,-192.5 138,-171.5 73,-171.5"/>
<text text-anchor="start" x="76" y="-178.3" font-family="Times,serif" font-size="14.00">a + c &lt;= b</text>
<polygon fill="none" stroke="black" points="138,-171.5 138,-192.5 211,-192.5 211,-171.5 138,-171.5"/>
<text text-anchor="start" x="141" y="-179.3" font-family="Times,serif" font-size="14.00">b </text>
<text text-anchor="start" x="152" y="-179.3" font-family="Times,serif" font-size="14.00" fill="orange">% </text>
<text text-anchor="start" x="168" y="-179.3" font-family="Times,serif" font-size="14.00"> c &lt;= a</text>
<polygon fill="none" stroke="black" points="211,-171.5 211,-192.5 428,-192.5 428,-171.5 211,-171.5"/>
<text text-anchor="start" x="214" y="-179.3" font-family="Times,serif" font-size="14.00">a + b &lt;= c || a + c &lt;= b || b </text>
<text text-anchor="start" x="369" y="-179.3" font-family="Times,serif" font-size="14.00" fill="orange">% </text>
<text text-anchor="start" x="385" y="-179.3" font-family="Times,serif" font-size="14.00"> c &lt;= a</text>
<polygon fill="none" stroke="black" points="8,-150.5 8,-171.5 73,-171.5 73,-150.5 8,-150.5"/>
<text text-anchor="start" x="29.5" y="-157.3" font-family="Times,serif" font-size="14.00">true</text>
<polygon fill="none" stroke="black" points="73,-150.5 73,-171.5 138,-171.5 138,-150.5 73,-150.5"/>
<text text-anchor="start" x="94.5" y="-157.3" font-family="Times,serif" font-size="14.00">true</text>
<polygon fill="none" stroke="black" points="138,-150.5 138,-171.5 211,-171.5 211,-150.5 138,-150.5"/>
<text text-anchor="start" x="161.5" y="-157.3" font-family="Times,serif" font-size="14.00">false</text>
<polygon fill="none" stroke="black" points="211,-150.5 211,-171.5 428,-171.5 428,-150.5 211,-150.5"/>
<text text-anchor="start" x="308.5" y="-157.3" font-family="Times,serif" font-size="14.00">true</text>
<polygon fill="none" stroke="black" points="8,-129.5 8,-150.5 73,-150.5 73,-129.5 8,-129.5"/>
<text text-anchor="start" x="29.5" y="-136.3" font-family="Times,serif" font-size="14.00">true</text>
<polygon fill="none" stroke="black" points="73,-129.5 73,-150.5 138,-150.5 138,-129.5 73,-129.5"/>
<text text-anchor="start" x="94.5" y="-136.3" font-family="Times,serif" font-size="14.00">true</text>
<polygon fill="none" stroke="black" points="138,-129.5 138,-150.5 211,-150.5 211,-129.5 138,-129.5"/>
<text text-anchor="start" x="163.5" y="-136.3" font-family="Times,serif" font-size="14.00">true</text>
<polygon fill="none" stroke="black" points="211,-129.5 211,-150.5 428,-150.5 428,-129.5 211,-129.5"/>
<text text-anchor="start" x="308.5" y="-136.3" font-family="Times,serif" font-size="14.00">true</text>
<polygon fill="none" stroke="black" points="8,-108.5 8,-129.5 73,-129.5 73,-108.5 8,-108.5"/>
<text text-anchor="start" x="29.5" y="-115.3" font-family="Times,serif" font-size="14.00">true</text>
<polygon fill="none" stroke="black" points="73,-108.5 73,-129.5 138,-129.5 138,-108.5 73,-108.5"/>
<text text-anchor="start" x="92.5" y="-115.3" font-family="Times,serif" font-size="14.00">false</text>
<polygon fill="none" stroke="black" points="138,-108.5 138,-129.5 211,-129.5 211,-108.5 138,-108.5"/>
<text text-anchor="start" x="161.5" y="-115.3" font-family="Times,serif" font-size="14.00">false</text>
<polygon fill="none" stroke="black" points="211,-108.5 211,-129.5 428,-129.5 428,-108.5 211,-108.5"/>
<text text-anchor="start" x="308.5" y="-115.3" font-family="Times,serif" font-size="14.00">true</text>
<polygon fill="none" stroke="black" points="8,-87.5 8,-108.5 73,-108.5 73,-87.5 8,-87.5"/>
<text text-anchor="start" x="29.5" y="-94.3" font-family="Times,serif" font-size="14.00">true</text>
<polygon fill="none" stroke="black" points="73,-87.5 73,-108.5 138,-108.5 138,-87.5 73,-87.5"/>
<text text-anchor="start" x="92.5" y="-94.3" font-family="Times,serif" font-size="14.00">false</text>
<polygon fill="none" stroke="black" points="138,-87.5 138,-108.5 211,-108.5 211,-87.5 138,-87.5"/>
<text text-anchor="start" x="163.5" y="-94.3" font-family="Times,serif" font-size="14.00">true</text>
<polygon fill="none" stroke="black" points="211,-87.5 211,-108.5 428,-108.5 428,-87.5 211,-87.5"/>
<text text-anchor="start" x="308.5" y="-94.3" font-family="Times,serif" font-size="14.00">true</text>
<polygon fill="none" stroke="black" points="8,-66.5 8,-87.5 73,-87.5 73,-66.5 8,-66.5"/>
<text text-anchor="start" x="27.5" y="-73.3" font-family="Times,serif" font-size="14.00">false</text>
<polygon fill="none" stroke="black" points="73,-66.5 73,-87.5 138,-87.5 138,-66.5 73,-66.5"/>
<text text-anchor="start" x="94.5" y="-73.3" font-family="Times,serif" font-size="14.00">true</text>
<polygon fill="none" stroke="black" points="138,-66.5 138,-87.5 211,-87.5 211,-66.5 138,-66.5"/>
<text text-anchor="start" x="161.5" y="-73.3" font-family="Times,serif" font-size="14.00">false</text>
<polygon fill="none" stroke="black" points="211,-66.5 211,-87.5 428,-87.5 428,-66.5 211,-66.5"/>
<text text-anchor="start" x="308.5" y="-73.3" font-family="Times,serif" font-size="14.00">true</text>
<polygon fill="none" stroke="black" points="8,-45.5 8,-66.5 73,-66.5 73,-45.5 8,-45.5"/>
<text text-anchor="start" x="27.5" y="-52.3" font-family="Times,serif" font-size="14.00">false</text>
<polygon fill="none" stroke="black" points="73,-45.5 73,-66.5 138,-66.5 138,-45.5 73,-45.5"/>
<text text-anchor="start" x="94.5" y="-52.3" font-family="Times,serif" font-size="14.00">true</text>
<polygon fill="none" stroke="black" points="138,-45.5 138,-66.5 211,-66.5 211,-45.5 138,-45.5"/>
<text text-anchor="start" x="163.5" y="-52.3" font-family="Times,serif" font-size="14.00">true</text>
<polygon fill="none" stroke="black" points="211,-45.5 211,-66.5 428,-66.5 428,-45.5 211,-45.5"/>
<text text-anchor="start" x="306.5" y="-52.3" font-family="Times,serif" font-size="14.00">false</text>
<polygon fill="lemonchiffon" stroke="none" points="8,-24.5 8,-45.5 73,-45.5 73,-24.5 8,-24.5"/>
<polygon fill="none" stroke="black" points="8,-24.5 8,-45.5 73,-45.5 73,-24.5 8,-24.5"/>
<text text-anchor="start" x="27.5" y="-31.3" font-family="Times,serif" font-size="14.00">false</text>
<polygon fill="lemonchiffon" stroke="none" points="73,-24.5 73,-45.5 138,-45.5 138,-24.5 73,-24.5"/>
<polygon fill="none" stroke="black" points="73,-24.5 73,-45.5 138,-45.5 138,-24.5 73,-24.5"/>
<text text-anchor="start" x="92.5" y="-31.3" font-family="Times,serif" font-size="14.00">false</text>
<polygon fill="orange" stroke="none" points="138,-24.5 138,-45.5 211,-45.5 211,-24.5 138,-24.5"/>
<polygon fill="none" stroke="black" points="138,-24.5 138,-45.5 211,-45.5 211,-24.5 138,-24.5"/>
<text text-anchor="start" x="161.5" y="-31.3" font-family="Times,serif" font-size="14.00">false</text>
<polygon fill="orange" stroke="none" points="211,-24.5 211,-45.5 428,-45.5 428,-24.5 211,-24.5"/>
<polygon fill="none" stroke="black" points="211,-24.5 211,-45.5 428,-45.5 428,-24.5 211,-24.5"/>
<text text-anchor="start" x="306.5" y="-31.3" font-family="Times,serif" font-size="14.00">false</text>
<polygon fill="lemonchiffon" stroke="none" points="8,-3.5 8,-24.5 73,-24.5 73,-3.5 8,-3.5"/>
<polygon fill="none" stroke="black" points="8,-3.5 8,-24.5 73,-24.5 73,-3.5 8,-3.5"/>
<text text-anchor="start" x="27.5" y="-10.3" font-family="Times,serif" font-size="14.00">false</text>
<polygon fill="lemonchiffon" stroke="none" points="73,-3.5 73,-24.5 138,-24.5 138,-3.5 73,-3.5"/>
<polygon fill="none" stroke="black" points="73,-3.5 73,-24.5 138,-24.5 138,-3.5 73,-3.5"/>
<text text-anchor="start" x="92.5" y="-10.3" font-family="Times,serif" font-size="14.00">false</text>
<polygon fill="orange" stroke="none" points="138,-3.5 138,-24.5 211,-24.5 211,-3.5 138,-3.5"/>
<polygon fill="none" stroke="black" points="138,-3.5 138,-24.5 211,-24.5 211,-3.5 138,-3.5"/>
<text text-anchor="start" x="163.5" y="-10.3" font-family="Times,serif" font-size="14.00">true</text>
<polygon fill="orange" stroke="none" points="211,-3.5 211,-24.5 428,-24.5 428,-3.5 211,-3.5"/>
<polygon fill="none" stroke="black" points="211,-3.5 211,-24.5 428,-24.5 428,-3.5 211,-3.5"/>
<text text-anchor="start" x="308.5" y="-10.3" font-family="Times,serif" font-size="14.00">true</text>
</g>
</g>
</svg>
