<?xml version="1.0" encoding="UTF-8" standalone="no"?>
<!DOCTYPE svg PUBLIC "-//W3C//DTD SVG 1.1//EN"
 "http://www.w3.org/Graphics/SVG/1.1/DTD/svg11.dtd">
<!-- Generated by graphviz version 7.0.6 (20230106.0513)
 -->
<!-- Title: structs Pages: 1 -->
<svg width="311pt" height="121pt"
 viewBox="0.00 0.00 311.00 121.00" xmlns="http://www.w3.org/2000/svg" xmlns:xlink="http://www.w3.org/1999/xlink">
<g id="graph0" class="graph" transform="scale(1 1) rotate(0) translate(4 117)">
<title>structs</title>
<polygon fill="white" stroke="none" points="-4,4 -4,-117 307,-117 307,4 -4,4"/>
<!-- table -->
<g id="node1" class="node">
<title>table</title>
<polygon fill="none" stroke="black" points="8.5,-87.5 8.5,-108.5 70.5,-108.5 70.5,-87.5 8.5,-87.5"/>
<text text-anchor="start" x="11.5" y="-94.3" font-family="Times,serif" font-size="14.00">trian == 1</text>
<polygon fill="none" stroke="black" points="70.5,-87.5 70.5,-108.5 140.5,-108.5 140.5,-87.5 70.5,-87.5"/>
<text text-anchor="start" x="73.5" y="-95.3" font-family="Times,serif" font-size="14.00">a + b </text>
<text text-anchor="start" x="106.5" y="-95.3" font-family="Times,serif" font-size="14.00" fill="orange">&gt;= </text>
<text text-anchor="start" x="127.5" y="-95.3" font-family="Times,serif" font-size="14.00"> c</text>
<polygon fill="none" stroke="black" points="140.5,-87.5 140.5,-108.5 295.5,-108.5 295.5,-87.5 140.5,-87.5"/>
<text text-anchor="start" x="143.5" y="-95.3" font-family="Times,serif" font-size="14.00">trian == 1 &amp;&amp; a + b </text>
<text text-anchor="start" x="261.5" y="-95.3" font-family="Times,serif" font-size="14.00" fill="orange">&gt;= </text>
<text text-anchor="start" x="282.5" y="-95.3" font-family="Times,serif" font-size="14.00"> c</text>
<polygon fill="lemonchiffon" stroke="none" points="8.5,-66.5 8.5,-87.5 70.5,-87.5 70.5,-66.5 8.5,-66.5"/>
<polygon fill="none" stroke="black" points="8.5,-66.5 8.5,-87.5 70.5,-87.5 70.5,-66.5 8.5,-66.5"/>
<text text-anchor="start" x="28.5" y="-73.3" font-family="Times,serif" font-size="14.00">true</text>
<polygon fill="orange" stroke="none" points="70.5,-66.5 70.5,-87.5 140.5,-87.5 140.5,-66.5 70.5,-66.5"/>
<polygon fill="none" stroke="black" points="70.5,-66.5 70.5,-87.5 140.5,-87.5 140.5,-66.5 70.5,-66.5"/>
<text text-anchor="start" x="92.5" y="-73.3" font-family="Times,serif" font-size="14.00">false</text>
<polygon fill="orange" stroke="none" points="140.5,-66.5 140.5,-87.5 295.5,-87.5 295.5,-66.5 140.5,-66.5"/>
<polygon fill="none" stroke="black" points="140.5,-66.5 140.5,-87.5 295.5,-87.5 295.5,-66.5 140.5,-66.5"/>
<text text-anchor="start" x="205" y="-73.3" font-family="Times,serif" font-size="14.00">false</text>
<polygon fill="lemonchiffon" stroke="none" points="8.5,-45.5 8.5,-66.5 70.5,-66.5 70.5,-45.5 8.5,-45.5"/>
<polygon fill="none" stroke="black" points="8.5,-45.5 8.5,-66.5 70.5,-66.5 70.5,-45.5 8.5,-45.5"/>
<text text-anchor="start" x="28.5" y="-52.3" font-family="Times,serif" font-size="14.00">true</text>
<polygon fill="orange" stroke="none" points="70.5,-45.5 70.5,-66.5 140.5,-66.5 140.5,-45.5 70.5,-45.5"/>
<polygon fill="none" stroke="black" points="70.5,-45.5 70.5,-66.5 140.5,-66.5 140.5,-45.5 70.5,-45.5"/>
<text text-anchor="start" x="94.5" y="-52.3" font-family="Times,serif" font-size="14.00">true</text>
<polygon fill="orange" stroke="none" points="140.5,-45.5 140.5,-66.5 295.5,-66.5 295.5,-45.5 140.5,-45.5"/>
<polygon fill="none" stroke="black" points="140.5,-45.5 140.5,-66.5 295.5,-66.5 295.5,-45.5 140.5,-45.5"/>
<text text-anchor="start" x="207" y="-52.3" font-family="Times,serif" font-size="14.00">true</text>
<polygon fill="none" stroke="black" points="8.5,-24.5 8.5,-45.5 70.5,-45.5 70.5,-24.5 8.5,-24.5"/>
<text text-anchor="start" x="26.5" y="-31.3" font-family="Times,serif" font-size="14.00">false</text>
<polygon fill="none" stroke="black" points="70.5,-24.5 70.5,-45.5 140.5,-45.5 140.5,-24.5 70.5,-24.5"/>
<text text-anchor="start" x="92.5" y="-31.3" font-family="Times,serif" font-size="14.00">false</text>
<polygon fill="none" stroke="black" points="140.5,-24.5 140.5,-45.5 295.5,-45.5 295.5,-24.5 140.5,-24.5"/>
<text text-anchor="start" x="205" y="-31.3" font-family="Times,serif" font-size="14.00">false</text>
<polygon fill="none" stroke="black" points="8.5,-3.5 8.5,-24.5 70.5,-24.5 70.5,-3.5 8.5,-3.5"/>
<text text-anchor="start" x="26.5" y="-10.3" font-family="Times,serif" font-size="14.00">false</text>
<polygon fill="none" stroke="black" points="70.5,-3.5 70.5,-24.5 140.5,-24.5 140.5,-3.5 70.5,-3.5"/>
<text text-anchor="start" x="94.5" y="-10.3" font-family="Times,serif" font-size="14.00">true</text>
<polygon fill="none" stroke="black" points="140.5,-3.5 140.5,-24.5 295.5,-24.5 295.5,-3.5 140.5,-3.5"/>
<text text-anchor="start" x="205" y="-10.3" font-family="Times,serif" font-size="14.00">false</text>
</g>
</g>
</svg>
