<?xml version="1.0" encoding="UTF-8" standalone="no"?>
<!DOCTYPE svg PUBLIC "-//W3C//DTD SVG 1.1//EN"
 "http://www.w3.org/Graphics/SVG/1.1/DTD/svg11.dtd">
<!-- Generated by graphviz version 7.0.6 (20230106.0513)
 -->
<!-- Title: structs Pages: 1 -->
<svg width="284pt" height="205pt"
 viewBox="0.00 0.00 284.00 205.00" xmlns="http://www.w3.org/2000/svg" xmlns:xlink="http://www.w3.org/1999/xlink">
<g id="graph0" class="graph" transform="scale(1 1) rotate(0) translate(4 201)">
<title>structs</title>
<polygon fill="white" stroke="none" points="-4,4 -4,-201 280,-201 280,4 -4,4"/>
<!-- table -->
<g id="node1" class="node">
<title>table</title>
<polygon fill="none" stroke="black" points="8,-171.5 8,-192.5 44,-192.5 44,-171.5 8,-171.5"/>
<text text-anchor="start" x="11" y="-179.3" font-family="Times,serif" font-size="14.00">a </text>
<text text-anchor="start" x="21" y="-179.3" font-family="Times,serif" font-size="14.00" fill="lightcoral">&lt;</text>
<text text-anchor="start" x="30" y="-179.3" font-family="Times,serif" font-size="14.00"> 0</text>
<polygon fill="none" stroke="black" points="44,-171.5 44,-192.5 88,-192.5 88,-171.5 44,-171.5"/>
<text text-anchor="start" x="47" y="-178.3" font-family="Times,serif" font-size="14.00">b &lt;= 0</text>
<polygon fill="none" stroke="black" points="88,-171.5 88,-192.5 131,-192.5 131,-171.5 88,-171.5"/>
<text text-anchor="start" x="91" y="-178.3" font-family="Times,serif" font-size="14.00">c &lt;= 0</text>
<polygon fill="none" stroke="black" points="131,-171.5 131,-192.5 268,-192.5 268,-171.5 131,-171.5"/>
<text text-anchor="start" x="134" y="-179.3" font-family="Times,serif" font-size="14.00">a </text>
<text text-anchor="start" x="144" y="-179.3" font-family="Times,serif" font-size="14.00" fill="lightcoral">&lt;</text>
<text text-anchor="start" x="153" y="-179.3" font-family="Times,serif" font-size="14.00"> 0 || b &lt;= 0 || c &lt;= 0</text>
<polygon fill="lightcoral" stroke="none" points="8,-150.5 8,-171.5 44,-171.5 44,-150.5 8,-150.5"/>
<polygon fill="none" stroke="black" points="8,-150.5 8,-171.5 44,-171.5 44,-150.5 8,-150.5"/>
<text text-anchor="start" x="13" y="-157.3" font-family="Times,serif" font-size="14.00">false</text>
<polygon fill="none" stroke="black" points="44,-150.5 44,-171.5 88,-171.5 88,-150.5 44,-150.5"/>
<text text-anchor="start" x="55" y="-157.3" font-family="Times,serif" font-size="14.00">true</text>
<polygon fill="none" stroke="black" points="88,-150.5 88,-171.5 131,-171.5 131,-150.5 88,-150.5"/>
<text text-anchor="start" x="98.5" y="-157.3" font-family="Times,serif" font-size="14.00">true</text>
<polygon fill="none" stroke="black" points="131,-150.5 131,-171.5 268,-171.5 268,-150.5 131,-150.5"/>
<text text-anchor="start" x="188.5" y="-157.3" font-family="Times,serif" font-size="14.00">true</text>
<polygon fill="lightcoral" stroke="none" points="8,-129.5 8,-150.5 44,-150.5 44,-129.5 8,-129.5"/>
<polygon fill="none" stroke="black" points="8,-129.5 8,-150.5 44,-150.5 44,-129.5 8,-129.5"/>
<text text-anchor="start" x="13" y="-136.3" font-family="Times,serif" font-size="14.00">false</text>
<polygon fill="none" stroke="black" points="44,-129.5 44,-150.5 88,-150.5 88,-129.5 44,-129.5"/>
<text text-anchor="start" x="55" y="-136.3" font-family="Times,serif" font-size="14.00">true</text>
<polygon fill="none" stroke="black" points="88,-129.5 88,-150.5 131,-150.5 131,-129.5 88,-129.5"/>
<text text-anchor="start" x="96.5" y="-136.3" font-family="Times,serif" font-size="14.00">false</text>
<polygon fill="none" stroke="black" points="131,-129.5 131,-150.5 268,-150.5 268,-129.5 131,-129.5"/>
<text text-anchor="start" x="188.5" y="-136.3" font-family="Times,serif" font-size="14.00">true</text>
<polygon fill="lightcoral" stroke="none" points="8,-108.5 8,-129.5 44,-129.5 44,-108.5 8,-108.5"/>
<polygon fill="none" stroke="black" points="8,-108.5 8,-129.5 44,-129.5 44,-108.5 8,-108.5"/>
<text text-anchor="start" x="13" y="-115.3" font-family="Times,serif" font-size="14.00">false</text>
<polygon fill="none" stroke="black" points="44,-108.5 44,-129.5 88,-129.5 88,-108.5 44,-108.5"/>
<text text-anchor="start" x="53" y="-115.3" font-family="Times,serif" font-size="14.00">false</text>
<polygon fill="none" stroke="black" points="88,-108.5 88,-129.5 131,-129.5 131,-108.5 88,-108.5"/>
<text text-anchor="start" x="98.5" y="-115.3" font-family="Times,serif" font-size="14.00">true</text>
<polygon fill="none" stroke="black" points="131,-108.5 131,-129.5 268,-129.5 268,-108.5 131,-108.5"/>
<text text-anchor="start" x="188.5" y="-115.3" font-family="Times,serif" font-size="14.00">true</text>
<polygon fill="lightcoral" stroke="none" points="8,-87.5 8,-108.5 44,-108.5 44,-87.5 8,-87.5"/>
<polygon fill="none" stroke="black" points="8,-87.5 8,-108.5 44,-108.5 44,-87.5 8,-87.5"/>
<text text-anchor="start" x="13" y="-94.3" font-family="Times,serif" font-size="14.00">false</text>
<polygon fill="lightgreen" stroke="none" points="44,-87.5 44,-108.5 88,-108.5 88,-87.5 44,-87.5"/>
<polygon fill="none" stroke="black" points="44,-87.5 44,-108.5 88,-108.5 88,-87.5 44,-87.5"/>
<text text-anchor="start" x="53" y="-94.3" font-family="Times,serif" font-size="14.00">false</text>
<polygon fill="lightgreen" stroke="none" points="88,-87.5 88,-108.5 131,-108.5 131,-87.5 88,-87.5"/>
<polygon fill="none" stroke="black" points="88,-87.5 88,-108.5 131,-108.5 131,-87.5 88,-87.5"/>
<text text-anchor="start" x="96.5" y="-94.3" font-family="Times,serif" font-size="14.00">false</text>
<polygon fill="lightgreen" stroke="none" points="131,-87.5 131,-108.5 268,-108.5 268,-87.5 131,-87.5"/>
<polygon fill="none" stroke="black" points="131,-87.5 131,-108.5 268,-108.5 268,-87.5 131,-87.5"/>
<text text-anchor="start" x="186.5" y="-94.3" font-family="Times,serif" font-size="14.00">false</text>
<polygon fill="lightcoral" stroke="none" points="8,-66.5 8,-87.5 44,-87.5 44,-66.5 8,-66.5"/>
<polygon fill="none" stroke="black" points="8,-66.5 8,-87.5 44,-87.5 44,-66.5 8,-66.5"/>
<text text-anchor="start" x="15" y="-73.3" font-family="Times,serif" font-size="14.00">true</text>
<polygon fill="none" stroke="black" points="44,-66.5 44,-87.5 88,-87.5 88,-66.5 44,-66.5"/>
<text text-anchor="start" x="55" y="-73.3" font-family="Times,serif" font-size="14.00">true</text>
<polygon fill="none" stroke="black" points="88,-66.5 88,-87.5 131,-87.5 131,-66.5 88,-66.5"/>
<text text-anchor="start" x="98.5" y="-73.3" font-family="Times,serif" font-size="14.00">true</text>
<polygon fill="none" stroke="black" points="131,-66.5 131,-87.5 268,-87.5 268,-66.5 131,-66.5"/>
<text text-anchor="start" x="188.5" y="-73.3" font-family="Times,serif" font-size="14.00">true</text>
<polygon fill="lightcoral" stroke="none" points="8,-45.5 8,-66.5 44,-66.5 44,-45.5 8,-45.5"/>
<polygon fill="none" stroke="black" points="8,-45.5 8,-66.5 44,-66.5 44,-45.5 8,-45.5"/>
<text text-anchor="start" x="15" y="-52.3" font-family="Times,serif" font-size="14.00">true</text>
<polygon fill="none" stroke="black" points="44,-45.5 44,-66.5 88,-66.5 88,-45.5 44,-45.5"/>
<text text-anchor="start" x="55" y="-52.3" font-family="Times,serif" font-size="14.00">true</text>
<polygon fill="none" stroke="black" points="88,-45.5 88,-66.5 131,-66.5 131,-45.5 88,-45.5"/>
<text text-anchor="start" x="96.5" y="-52.3" font-family="Times,serif" font-size="14.00">false</text>
<polygon fill="none" stroke="black" points="131,-45.5 131,-66.5 268,-66.5 268,-45.5 131,-45.5"/>
<text text-anchor="start" x="188.5" y="-52.3" font-family="Times,serif" font-size="14.00">true</text>
<polygon fill="lightcoral" stroke="none" points="8,-24.5 8,-45.5 44,-45.5 44,-24.5 8,-24.5"/>
<polygon fill="none" stroke="black" points="8,-24.5 8,-45.5 44,-45.5 44,-24.5 8,-24.5"/>
<text text-anchor="start" x="15" y="-31.3" font-family="Times,serif" font-size="14.00">true</text>
<polygon fill="none" stroke="black" points="44,-24.5 44,-45.5 88,-45.5 88,-24.5 44,-24.5"/>
<text text-anchor="start" x="53" y="-31.3" font-family="Times,serif" font-size="14.00">false</text>
<polygon fill="none" stroke="black" points="88,-24.5 88,-45.5 131,-45.5 131,-24.5 88,-24.5"/>
<text text-anchor="start" x="98.5" y="-31.3" font-family="Times,serif" font-size="14.00">true</text>
<polygon fill="none" stroke="black" points="131,-24.5 131,-45.5 268,-45.5 268,-24.5 131,-24.5"/>
<text text-anchor="start" x="188.5" y="-31.3" font-family="Times,serif" font-size="14.00">true</text>
<polygon fill="lightcoral" stroke="none" points="8,-3.5 8,-24.5 44,-24.5 44,-3.5 8,-3.5"/>
<polygon fill="none" stroke="black" points="8,-3.5 8,-24.5 44,-24.5 44,-3.5 8,-3.5"/>
<text text-anchor="start" x="15" y="-10.3" font-family="Times,serif" font-size="14.00">true</text>
<polygon fill="lightgreen" stroke="none" points="44,-3.5 44,-24.5 88,-24.5 88,-3.5 44,-3.5"/>
<polygon fill="none" stroke="black" points="44,-3.5 44,-24.5 88,-24.5 88,-3.5 44,-3.5"/>
<text text-anchor="start" x="53" y="-10.3" font-family="Times,serif" font-size="14.00">false</text>
<polygon fill="lightgreen" stroke="none" points="88,-3.5 88,-24.5 131,-24.5 131,-3.5 88,-3.5"/>
<polygon fill="none" stroke="black" points="88,-3.5 88,-24.5 131,-24.5 131,-3.5 88,-3.5"/>
<text text-anchor="start" x="96.5" y="-10.3" font-family="Times,serif" font-size="14.00">false</text>
<polygon fill="lightgreen" stroke="none" points="131,-3.5 131,-24.5 268,-24.5 268,-3.5 131,-3.5"/>
<polygon fill="none" stroke="black" points="131,-3.5 131,-24.5 268,-24.5 268,-3.5 131,-3.5"/>
<text text-anchor="start" x="188.5" y="-10.3" font-family="Times,serif" font-size="14.00">true</text>
</g>
</g>
</svg>
