<?xml version="1.0" encoding="UTF-8" standalone="no"?>
<!DOCTYPE svg PUBLIC "-//W3C//DTD SVG 1.1//EN"
 "http://www.w3.org/Graphics/SVG/1.1/DTD/svg11.dtd">
<!-- Generated by graphviz version 7.0.6 (20230106.0513)
 -->
<!-- Title: structs Pages: 1 -->
<svg width="307pt" height="205pt"
 viewBox="0.00 0.00 307.00 205.00" xmlns="http://www.w3.org/2000/svg" xmlns:xlink="http://www.w3.org/1999/xlink">
<g id="graph0" class="graph" transform="scale(1 1) rotate(0) translate(4 201)">
<title>structs</title>
<polygon fill="white" stroke="none" points="-4,4 -4,-201 303,-201 303,4 -4,4"/>
<!-- table -->
<g id="node1" class="node">
<title>table</title>
<polygon fill="none" stroke="black" points="8.5,-171.5 8.5,-192.5 51.5,-192.5 51.5,-171.5 8.5,-171.5"/>
<text text-anchor="start" x="11.5" y="-178.3" font-family="Times,serif" font-size="14.00" fill="lightskyblue">a &lt;= 0</text>
<polygon fill="none" stroke="black" points="51.5,-171.5 51.5,-192.5 99.5,-192.5 99.5,-171.5 51.5,-171.5"/>
<text text-anchor="start" x="54.5" y="-178.3" font-family="Times,serif" font-size="14.00">b &lt;= 0 </text>
<polygon fill="none" stroke="black" points="99.5,-171.5 99.5,-192.5 142.5,-192.5 142.5,-171.5 99.5,-171.5"/>
<text text-anchor="start" x="102.5" y="-178.3" font-family="Times,serif" font-size="14.00">c &lt;= 0</text>
<polygon fill="none" stroke="black" points="142.5,-171.5 142.5,-192.5 291.5,-192.5 291.5,-171.5 142.5,-171.5"/>
<text text-anchor="start" x="145.5" y="-179.3" font-family="Times,serif" font-size="14.00" fill="lightskyblue">a &lt;= 0 || </text>
<text text-anchor="start" x="196.5" y="-179.3" font-family="Times,serif" font-size="14.00"> b &lt;= 0 || c &lt;= 0</text>
<polygon fill="none" stroke="black" points="8.5,-150.5 8.5,-171.5 51.5,-171.5 51.5,-150.5 8.5,-150.5"/>
<text text-anchor="start" x="19" y="-157.3" font-family="Times,serif" font-size="14.00">true</text>
<polygon fill="none" stroke="black" points="51.5,-150.5 51.5,-171.5 99.5,-171.5 99.5,-150.5 51.5,-150.5"/>
<text text-anchor="start" x="64.5" y="-157.3" font-family="Times,serif" font-size="14.00">true</text>
<polygon fill="none" stroke="black" points="99.5,-150.5 99.5,-171.5 142.5,-171.5 142.5,-150.5 99.5,-150.5"/>
<text text-anchor="start" x="110" y="-157.3" font-family="Times,serif" font-size="14.00">true</text>
<polygon fill="none" stroke="black" points="142.5,-150.5 142.5,-171.5 291.5,-171.5 291.5,-150.5 142.5,-150.5"/>
<text text-anchor="start" x="206" y="-157.3" font-family="Times,serif" font-size="14.00">true</text>
<polygon fill="none" stroke="black" points="8.5,-129.5 8.5,-150.5 51.5,-150.5 51.5,-129.5 8.5,-129.5"/>
<text text-anchor="start" x="19" y="-136.3" font-family="Times,serif" font-size="14.00">true</text>
<polygon fill="none" stroke="black" points="51.5,-129.5 51.5,-150.5 99.5,-150.5 99.5,-129.5 51.5,-129.5"/>
<text text-anchor="start" x="64.5" y="-136.3" font-family="Times,serif" font-size="14.00">true</text>
<polygon fill="none" stroke="black" points="99.5,-129.5 99.5,-150.5 142.5,-150.5 142.5,-129.5 99.5,-129.5"/>
<text text-anchor="start" x="108" y="-136.3" font-family="Times,serif" font-size="14.00">false</text>
<polygon fill="none" stroke="black" points="142.5,-129.5 142.5,-150.5 291.5,-150.5 291.5,-129.5 142.5,-129.5"/>
<text text-anchor="start" x="206" y="-136.3" font-family="Times,serif" font-size="14.00">true</text>
<polygon fill="none" stroke="black" points="8.5,-108.5 8.5,-129.5 51.5,-129.5 51.5,-108.5 8.5,-108.5"/>
<text text-anchor="start" x="19" y="-115.3" font-family="Times,serif" font-size="14.00">true</text>
<polygon fill="none" stroke="black" points="51.5,-108.5 51.5,-129.5 99.5,-129.5 99.5,-108.5 51.5,-108.5"/>
<text text-anchor="start" x="62.5" y="-115.3" font-family="Times,serif" font-size="14.00">false</text>
<polygon fill="none" stroke="black" points="99.5,-108.5 99.5,-129.5 142.5,-129.5 142.5,-108.5 99.5,-108.5"/>
<text text-anchor="start" x="110" y="-115.3" font-family="Times,serif" font-size="14.00">true</text>
<polygon fill="none" stroke="black" points="142.5,-108.5 142.5,-129.5 291.5,-129.5 291.5,-108.5 142.5,-108.5"/>
<text text-anchor="start" x="206" y="-115.3" font-family="Times,serif" font-size="14.00">true</text>
<polygon fill="lemonchiffon" stroke="none" points="8.5,-87.5 8.5,-108.5 51.5,-108.5 51.5,-87.5 8.5,-87.5"/>
<polygon fill="none" stroke="black" points="8.5,-87.5 8.5,-108.5 51.5,-108.5 51.5,-87.5 8.5,-87.5"/>
<text text-anchor="start" x="19" y="-94.3" font-family="Times,serif" font-size="14.00">true</text>
<polygon fill="lemonchiffon" stroke="none" points="51.5,-87.5 51.5,-108.5 99.5,-108.5 99.5,-87.5 51.5,-87.5"/>
<polygon fill="none" stroke="black" points="51.5,-87.5 51.5,-108.5 99.5,-108.5 99.5,-87.5 51.5,-87.5"/>
<text text-anchor="start" x="62.5" y="-94.3" font-family="Times,serif" font-size="14.00">false</text>
<polygon fill="lemonchiffon" stroke="none" points="99.5,-87.5 99.5,-108.5 142.5,-108.5 142.5,-87.5 99.5,-87.5"/>
<polygon fill="none" stroke="black" points="99.5,-87.5 99.5,-108.5 142.5,-108.5 142.5,-87.5 99.5,-87.5"/>
<text text-anchor="start" x="108" y="-94.3" font-family="Times,serif" font-size="14.00">false</text>
<polygon fill="lightskyblue" stroke="none" points="142.5,-87.5 142.5,-108.5 291.5,-108.5 291.5,-87.5 142.5,-87.5"/>
<polygon fill="none" stroke="black" points="142.5,-87.5 142.5,-108.5 291.5,-108.5 291.5,-87.5 142.5,-87.5"/>
<text text-anchor="start" x="206" y="-94.3" font-family="Times,serif" font-size="14.00">true</text>
<polygon fill="none" stroke="black" points="8.5,-66.5 8.5,-87.5 51.5,-87.5 51.5,-66.5 8.5,-66.5"/>
<text text-anchor="start" x="17" y="-73.3" font-family="Times,serif" font-size="14.00">false</text>
<polygon fill="none" stroke="black" points="51.5,-66.5 51.5,-87.5 99.5,-87.5 99.5,-66.5 51.5,-66.5"/>
<text text-anchor="start" x="64.5" y="-73.3" font-family="Times,serif" font-size="14.00">true</text>
<polygon fill="none" stroke="black" points="99.5,-66.5 99.5,-87.5 142.5,-87.5 142.5,-66.5 99.5,-66.5"/>
<text text-anchor="start" x="110" y="-73.3" font-family="Times,serif" font-size="14.00">true</text>
<polygon fill="none" stroke="black" points="142.5,-66.5 142.5,-87.5 291.5,-87.5 291.5,-66.5 142.5,-66.5"/>
<text text-anchor="start" x="206" y="-73.3" font-family="Times,serif" font-size="14.00">true</text>
<polygon fill="none" stroke="black" points="8.5,-45.5 8.5,-66.5 51.5,-66.5 51.5,-45.5 8.5,-45.5"/>
<text text-anchor="start" x="17" y="-52.3" font-family="Times,serif" font-size="14.00">false</text>
<polygon fill="none" stroke="black" points="51.5,-45.5 51.5,-66.5 99.5,-66.5 99.5,-45.5 51.5,-45.5"/>
<text text-anchor="start" x="64.5" y="-52.3" font-family="Times,serif" font-size="14.00">true</text>
<polygon fill="none" stroke="black" points="99.5,-45.5 99.5,-66.5 142.5,-66.5 142.5,-45.5 99.5,-45.5"/>
<text text-anchor="start" x="108" y="-52.3" font-family="Times,serif" font-size="14.00">false</text>
<polygon fill="none" stroke="black" points="142.5,-45.5 142.5,-66.5 291.5,-66.5 291.5,-45.5 142.5,-45.5"/>
<text text-anchor="start" x="206" y="-52.3" font-family="Times,serif" font-size="14.00">true</text>
<polygon fill="none" stroke="black" points="8.5,-24.5 8.5,-45.5 51.5,-45.5 51.5,-24.5 8.5,-24.5"/>
<text text-anchor="start" x="17" y="-31.3" font-family="Times,serif" font-size="14.00">false</text>
<polygon fill="none" stroke="black" points="51.5,-24.5 51.5,-45.5 99.5,-45.5 99.5,-24.5 51.5,-24.5"/>
<text text-anchor="start" x="62.5" y="-31.3" font-family="Times,serif" font-size="14.00">false</text>
<polygon fill="none" stroke="black" points="99.5,-24.5 99.5,-45.5 142.5,-45.5 142.5,-24.5 99.5,-24.5"/>
<text text-anchor="start" x="110" y="-31.3" font-family="Times,serif" font-size="14.00">true</text>
<polygon fill="none" stroke="black" points="142.5,-24.5 142.5,-45.5 291.5,-45.5 291.5,-24.5 142.5,-24.5"/>
<text text-anchor="start" x="206" y="-31.3" font-family="Times,serif" font-size="14.00">true</text>
<polygon fill="none" stroke="black" points="8.5,-3.5 8.5,-24.5 51.5,-24.5 51.5,-3.5 8.5,-3.5"/>
<text text-anchor="start" x="17" y="-10.3" font-family="Times,serif" font-size="14.00">false</text>
<polygon fill="none" stroke="black" points="51.5,-3.5 51.5,-24.5 99.5,-24.5 99.5,-3.5 51.5,-3.5"/>
<text text-anchor="start" x="62.5" y="-10.3" font-family="Times,serif" font-size="14.00">false</text>
<polygon fill="none" stroke="black" points="99.5,-3.5 99.5,-24.5 142.5,-24.5 142.5,-3.5 99.5,-3.5"/>
<text text-anchor="start" x="108" y="-10.3" font-family="Times,serif" font-size="14.00">false</text>
<polygon fill="none" stroke="black" points="142.5,-3.5 142.5,-24.5 291.5,-24.5 291.5,-3.5 142.5,-3.5"/>
<text text-anchor="start" x="204" y="-10.3" font-family="Times,serif" font-size="14.00">false</text>
</g>
</g>
</svg>
