<?xml version="1.0" encoding="UTF-8" standalone="no"?>
<!DOCTYPE svg PUBLIC "-//W3C//DTD SVG 1.1//EN"
 "http://www.w3.org/Graphics/SVG/1.1/DTD/svg11.dtd">
<!-- Generated by graphviz version 7.0.6 (20230106.0513)
 -->
<!-- Title: structs Pages: 1 -->
<svg width="311pt" height="205pt"
 viewBox="0.00 0.00 311.00 205.00" xmlns="http://www.w3.org/2000/svg" xmlns:xlink="http://www.w3.org/1999/xlink">
<g id="graph0" class="graph" transform="scale(1 1) rotate(0) translate(4 201)">
<title>structs</title>
<polygon fill="white" stroke="none" points="-4,4 -4,-201 307,-201 307,4 -4,4"/>
<!-- table -->
<g id="node1" class="node">
<title>table</title>
<polygon fill="none" stroke="black" points="8.5,-171.5 8.5,-192.5 57.5,-192.5 57.5,-171.5 8.5,-171.5"/>
<text text-anchor="start" x="11.5" y="-179.3" font-family="Times,serif" font-size="14.00">a &lt;= </text>
<text text-anchor="start" x="42.5" y="-179.3" font-family="Times,serif" font-size="14.00" fill="lightcoral">&#45;1</text>
<polygon fill="none" stroke="black" points="57.5,-171.5 57.5,-192.5 101.5,-192.5 101.5,-171.5 57.5,-171.5"/>
<text text-anchor="start" x="60.5" y="-178.3" font-family="Times,serif" font-size="14.00">b &lt;= 0</text>
<polygon fill="none" stroke="black" points="101.5,-171.5 101.5,-192.5 144.5,-192.5 144.5,-171.5 101.5,-171.5"/>
<text text-anchor="start" x="104.5" y="-178.3" font-family="Times,serif" font-size="14.00">c &lt;= 0</text>
<polygon fill="none" stroke="black" points="144.5,-171.5 144.5,-192.5 295.5,-192.5 295.5,-171.5 144.5,-171.5"/>
<text text-anchor="start" x="147.5" y="-179.3" font-family="Times,serif" font-size="14.00">a &lt;= </text>
<text text-anchor="start" x="178.5" y="-179.3" font-family="Times,serif" font-size="14.00" fill="lightcoral">&#45;1</text>
<text text-anchor="start" x="190.5" y="-179.3" font-family="Times,serif" font-size="14.00"> || b &lt;= 0 || c &lt;= 0</text>
<polygon fill="lightcoral" stroke="none" points="8.5,-150.5 8.5,-171.5 57.5,-171.5 57.5,-150.5 8.5,-150.5"/>
<polygon fill="none" stroke="black" points="8.5,-150.5 8.5,-171.5 57.5,-171.5 57.5,-150.5 8.5,-150.5"/>
<text text-anchor="start" x="20" y="-157.3" font-family="Times,serif" font-size="14.00">false</text>
<polygon fill="none" stroke="black" points="57.5,-150.5 57.5,-171.5 101.5,-171.5 101.5,-150.5 57.5,-150.5"/>
<text text-anchor="start" x="68.5" y="-157.3" font-family="Times,serif" font-size="14.00">true</text>
<polygon fill="none" stroke="black" points="101.5,-150.5 101.5,-171.5 144.5,-171.5 144.5,-150.5 101.5,-150.5"/>
<text text-anchor="start" x="112" y="-157.3" font-family="Times,serif" font-size="14.00">true</text>
<polygon fill="none" stroke="black" points="144.5,-150.5 144.5,-171.5 295.5,-171.5 295.5,-150.5 144.5,-150.5"/>
<text text-anchor="start" x="209" y="-157.3" font-family="Times,serif" font-size="14.00">true</text>
<polygon fill="lightcoral" stroke="none" points="8.5,-129.5 8.5,-150.5 57.5,-150.5 57.5,-129.5 8.5,-129.5"/>
<polygon fill="none" stroke="black" points="8.5,-129.5 8.5,-150.5 57.5,-150.5 57.5,-129.5 8.5,-129.5"/>
<text text-anchor="start" x="20" y="-136.3" font-family="Times,serif" font-size="14.00">false</text>
<polygon fill="none" stroke="black" points="57.5,-129.5 57.5,-150.5 101.5,-150.5 101.5,-129.5 57.5,-129.5"/>
<text text-anchor="start" x="68.5" y="-136.3" font-family="Times,serif" font-size="14.00">true</text>
<polygon fill="none" stroke="black" points="101.5,-129.5 101.5,-150.5 144.5,-150.5 144.5,-129.5 101.5,-129.5"/>
<text text-anchor="start" x="110" y="-136.3" font-family="Times,serif" font-size="14.00">false</text>
<polygon fill="none" stroke="black" points="144.5,-129.5 144.5,-150.5 295.5,-150.5 295.5,-129.5 144.5,-129.5"/>
<text text-anchor="start" x="209" y="-136.3" font-family="Times,serif" font-size="14.00">true</text>
<polygon fill="lightcoral" stroke="none" points="8.5,-108.5 8.5,-129.5 57.5,-129.5 57.5,-108.5 8.5,-108.5"/>
<polygon fill="none" stroke="black" points="8.5,-108.5 8.5,-129.5 57.5,-129.5 57.5,-108.5 8.5,-108.5"/>
<text text-anchor="start" x="20" y="-115.3" font-family="Times,serif" font-size="14.00">false</text>
<polygon fill="none" stroke="black" points="57.5,-108.5 57.5,-129.5 101.5,-129.5 101.5,-108.5 57.5,-108.5"/>
<text text-anchor="start" x="66.5" y="-115.3" font-family="Times,serif" font-size="14.00">false</text>
<polygon fill="none" stroke="black" points="101.5,-108.5 101.5,-129.5 144.5,-129.5 144.5,-108.5 101.5,-108.5"/>
<text text-anchor="start" x="112" y="-115.3" font-family="Times,serif" font-size="14.00">true</text>
<polygon fill="none" stroke="black" points="144.5,-108.5 144.5,-129.5 295.5,-129.5 295.5,-108.5 144.5,-108.5"/>
<text text-anchor="start" x="209" y="-115.3" font-family="Times,serif" font-size="14.00">true</text>
<polygon fill="lightcoral" stroke="none" points="8.5,-87.5 8.5,-108.5 57.5,-108.5 57.5,-87.5 8.5,-87.5"/>
<polygon fill="none" stroke="black" points="8.5,-87.5 8.5,-108.5 57.5,-108.5 57.5,-87.5 8.5,-87.5"/>
<text text-anchor="start" x="20" y="-94.3" font-family="Times,serif" font-size="14.00">false</text>
<polygon fill="lightgreen" stroke="none" points="57.5,-87.5 57.5,-108.5 101.5,-108.5 101.5,-87.5 57.5,-87.5"/>
<polygon fill="none" stroke="black" points="57.5,-87.5 57.5,-108.5 101.5,-108.5 101.5,-87.5 57.5,-87.5"/>
<text text-anchor="start" x="66.5" y="-94.3" font-family="Times,serif" font-size="14.00">false</text>
<polygon fill="lightgreen" stroke="none" points="101.5,-87.5 101.5,-108.5 144.5,-108.5 144.5,-87.5 101.5,-87.5"/>
<polygon fill="none" stroke="black" points="101.5,-87.5 101.5,-108.5 144.5,-108.5 144.5,-87.5 101.5,-87.5"/>
<text text-anchor="start" x="110" y="-94.3" font-family="Times,serif" font-size="14.00">false</text>
<polygon fill="lightgreen" stroke="none" points="144.5,-87.5 144.5,-108.5 295.5,-108.5 295.5,-87.5 144.5,-87.5"/>
<polygon fill="none" stroke="black" points="144.5,-87.5 144.5,-108.5 295.5,-108.5 295.5,-87.5 144.5,-87.5"/>
<text text-anchor="start" x="207" y="-94.3" font-family="Times,serif" font-size="14.00">false</text>
<polygon fill="lightcoral" stroke="none" points="8.5,-66.5 8.5,-87.5 57.5,-87.5 57.5,-66.5 8.5,-66.5"/>
<polygon fill="none" stroke="black" points="8.5,-66.5 8.5,-87.5 57.5,-87.5 57.5,-66.5 8.5,-66.5"/>
<text text-anchor="start" x="22" y="-73.3" font-family="Times,serif" font-size="14.00">true</text>
<polygon fill="none" stroke="black" points="57.5,-66.5 57.5,-87.5 101.5,-87.5 101.5,-66.5 57.5,-66.5"/>
<text text-anchor="start" x="68.5" y="-73.3" font-family="Times,serif" font-size="14.00">true</text>
<polygon fill="none" stroke="black" points="101.5,-66.5 101.5,-87.5 144.5,-87.5 144.5,-66.5 101.5,-66.5"/>
<text text-anchor="start" x="112" y="-73.3" font-family="Times,serif" font-size="14.00">true</text>
<polygon fill="none" stroke="black" points="144.5,-66.5 144.5,-87.5 295.5,-87.5 295.5,-66.5 144.5,-66.5"/>
<text text-anchor="start" x="209" y="-73.3" font-family="Times,serif" font-size="14.00">true</text>
<polygon fill="lightcoral" stroke="none" points="8.5,-45.5 8.5,-66.5 57.5,-66.5 57.5,-45.5 8.5,-45.5"/>
<polygon fill="none" stroke="black" points="8.5,-45.5 8.5,-66.5 57.5,-66.5 57.5,-45.5 8.5,-45.5"/>
<text text-anchor="start" x="22" y="-52.3" font-family="Times,serif" font-size="14.00">true</text>
<polygon fill="none" stroke="black" points="57.5,-45.5 57.5,-66.5 101.5,-66.5 101.5,-45.5 57.5,-45.5"/>
<text text-anchor="start" x="68.5" y="-52.3" font-family="Times,serif" font-size="14.00">true</text>
<polygon fill="none" stroke="black" points="101.5,-45.5 101.5,-66.5 144.5,-66.5 144.5,-45.5 101.5,-45.5"/>
<text text-anchor="start" x="110" y="-52.3" font-family="Times,serif" font-size="14.00">false</text>
<polygon fill="none" stroke="black" points="144.5,-45.5 144.5,-66.5 295.5,-66.5 295.5,-45.5 144.5,-45.5"/>
<text text-anchor="start" x="209" y="-52.3" font-family="Times,serif" font-size="14.00">true</text>
<polygon fill="lightcoral" stroke="none" points="8.5,-24.5 8.5,-45.5 57.5,-45.5 57.5,-24.5 8.5,-24.5"/>
<polygon fill="none" stroke="black" points="8.5,-24.5 8.5,-45.5 57.5,-45.5 57.5,-24.5 8.5,-24.5"/>
<text text-anchor="start" x="22" y="-31.3" font-family="Times,serif" font-size="14.00">true</text>
<polygon fill="none" stroke="black" points="57.5,-24.5 57.5,-45.5 101.5,-45.5 101.5,-24.5 57.5,-24.5"/>
<text text-anchor="start" x="66.5" y="-31.3" font-family="Times,serif" font-size="14.00">false</text>
<polygon fill="none" stroke="black" points="101.5,-24.5 101.5,-45.5 144.5,-45.5 144.5,-24.5 101.5,-24.5"/>
<text text-anchor="start" x="112" y="-31.3" font-family="Times,serif" font-size="14.00">true</text>
<polygon fill="none" stroke="black" points="144.5,-24.5 144.5,-45.5 295.5,-45.5 295.5,-24.5 144.5,-24.5"/>
<text text-anchor="start" x="209" y="-31.3" font-family="Times,serif" font-size="14.00">true</text>
<polygon fill="lightcoral" stroke="none" points="8.5,-3.5 8.5,-24.5 57.5,-24.5 57.5,-3.5 8.5,-3.5"/>
<polygon fill="none" stroke="black" points="8.5,-3.5 8.5,-24.5 57.5,-24.5 57.5,-3.5 8.5,-3.5"/>
<text text-anchor="start" x="22" y="-10.3" font-family="Times,serif" font-size="14.00">true</text>
<polygon fill="lightgreen" stroke="none" points="57.5,-3.5 57.5,-24.5 101.5,-24.5 101.5,-3.5 57.5,-3.5"/>
<polygon fill="none" stroke="black" points="57.5,-3.5 57.5,-24.5 101.5,-24.5 101.5,-3.5 57.5,-3.5"/>
<text text-anchor="start" x="66.5" y="-10.3" font-family="Times,serif" font-size="14.00">false</text>
<polygon fill="lightgreen" stroke="none" points="101.5,-3.5 101.5,-24.5 144.5,-24.5 144.5,-3.5 101.5,-3.5"/>
<polygon fill="none" stroke="black" points="101.5,-3.5 101.5,-24.5 144.5,-24.5 144.5,-3.5 101.5,-3.5"/>
<text text-anchor="start" x="110" y="-10.3" font-family="Times,serif" font-size="14.00">false</text>
<polygon fill="lightgreen" stroke="none" points="144.5,-3.5 144.5,-24.5 295.5,-24.5 295.5,-3.5 144.5,-3.5"/>
<polygon fill="none" stroke="black" points="144.5,-3.5 144.5,-24.5 295.5,-24.5 295.5,-3.5 144.5,-3.5"/>
<text text-anchor="start" x="209" y="-10.3" font-family="Times,serif" font-size="14.00">true</text>
</g>
</g>
</svg>
