<?xml version="1.0" encoding="UTF-8" standalone="no"?>
<!DOCTYPE svg PUBLIC "-//W3C//DTD SVG 1.1//EN"
 "http://www.w3.org/Graphics/SVG/1.1/DTD/svg11.dtd">
<!-- Generated by graphviz version 7.0.6 (20230106.0513)
 -->
<!-- Title: structs Pages: 1 -->
<svg width="319pt" height="205pt"
 viewBox="0.00 0.00 319.00 205.00" xmlns="http://www.w3.org/2000/svg" xmlns:xlink="http://www.w3.org/1999/xlink">
<g id="graph0" class="graph" transform="scale(1 1) rotate(0) translate(4 201)">
<title>structs</title>
<polygon fill="white" stroke="none" points="-4,4 -4,-201 315,-201 315,4 -4,4"/>
<!-- table -->
<g id="node1" class="node">
<title>table</title>
<polygon fill="none" stroke="black" points="8.5,-171.5 8.5,-192.5 61.5,-192.5 61.5,-171.5 8.5,-171.5"/>
<text text-anchor="start" x="11.5" y="-179.3" font-family="Times,serif" font-size="14.00">a &lt;= </text>
<text text-anchor="start" x="42.5" y="-179.3" font-family="Times,serif" font-size="14.00" fill="orange">&#45;1 </text>
<polygon fill="none" stroke="black" points="61.5,-171.5 61.5,-192.5 105.5,-192.5 105.5,-171.5 61.5,-171.5"/>
<text text-anchor="start" x="64.5" y="-178.3" font-family="Times,serif" font-size="14.00">b &lt;= 0</text>
<polygon fill="none" stroke="black" points="105.5,-171.5 105.5,-192.5 148.5,-192.5 148.5,-171.5 105.5,-171.5"/>
<text text-anchor="start" x="108.5" y="-178.3" font-family="Times,serif" font-size="14.00">c &lt;= 0</text>
<polygon fill="none" stroke="black" points="148.5,-171.5 148.5,-192.5 303.5,-192.5 303.5,-171.5 148.5,-171.5"/>
<text text-anchor="start" x="151.5" y="-179.3" font-family="Times,serif" font-size="14.00">a &lt;= </text>
<text text-anchor="start" x="182.5" y="-179.3" font-family="Times,serif" font-size="14.00" fill="orange">&#45;1 </text>
<text text-anchor="start" x="198.5" y="-179.3" font-family="Times,serif" font-size="14.00"> || b &lt;= 0 || c &lt;= 0</text>
<polygon fill="none" stroke="black" points="8.5,-150.5 8.5,-171.5 61.5,-171.5 61.5,-150.5 8.5,-150.5"/>
<text text-anchor="start" x="22" y="-157.3" font-family="Times,serif" font-size="14.00">false</text>
<polygon fill="none" stroke="black" points="61.5,-150.5 61.5,-171.5 105.5,-171.5 105.5,-150.5 61.5,-150.5"/>
<text text-anchor="start" x="72.5" y="-157.3" font-family="Times,serif" font-size="14.00">true</text>
<polygon fill="none" stroke="black" points="105.5,-150.5 105.5,-171.5 148.5,-171.5 148.5,-150.5 105.5,-150.5"/>
<text text-anchor="start" x="116" y="-157.3" font-family="Times,serif" font-size="14.00">true</text>
<polygon fill="none" stroke="black" points="148.5,-150.5 148.5,-171.5 303.5,-171.5 303.5,-150.5 148.5,-150.5"/>
<text text-anchor="start" x="215" y="-157.3" font-family="Times,serif" font-size="14.00">true</text>
<polygon fill="none" stroke="black" points="8.5,-129.5 8.5,-150.5 61.5,-150.5 61.5,-129.5 8.5,-129.5"/>
<text text-anchor="start" x="22" y="-136.3" font-family="Times,serif" font-size="14.00">false</text>
<polygon fill="none" stroke="black" points="61.5,-129.5 61.5,-150.5 105.5,-150.5 105.5,-129.5 61.5,-129.5"/>
<text text-anchor="start" x="72.5" y="-136.3" font-family="Times,serif" font-size="14.00">true</text>
<polygon fill="none" stroke="black" points="105.5,-129.5 105.5,-150.5 148.5,-150.5 148.5,-129.5 105.5,-129.5"/>
<text text-anchor="start" x="114" y="-136.3" font-family="Times,serif" font-size="14.00">false</text>
<polygon fill="none" stroke="black" points="148.5,-129.5 148.5,-150.5 303.5,-150.5 303.5,-129.5 148.5,-129.5"/>
<text text-anchor="start" x="215" y="-136.3" font-family="Times,serif" font-size="14.00">true</text>
<polygon fill="none" stroke="black" points="8.5,-108.5 8.5,-129.5 61.5,-129.5 61.5,-108.5 8.5,-108.5"/>
<text text-anchor="start" x="22" y="-115.3" font-family="Times,serif" font-size="14.00">false</text>
<polygon fill="none" stroke="black" points="61.5,-108.5 61.5,-129.5 105.5,-129.5 105.5,-108.5 61.5,-108.5"/>
<text text-anchor="start" x="70.5" y="-115.3" font-family="Times,serif" font-size="14.00">false</text>
<polygon fill="none" stroke="black" points="105.5,-108.5 105.5,-129.5 148.5,-129.5 148.5,-108.5 105.5,-108.5"/>
<text text-anchor="start" x="116" y="-115.3" font-family="Times,serif" font-size="14.00">true</text>
<polygon fill="none" stroke="black" points="148.5,-108.5 148.5,-129.5 303.5,-129.5 303.5,-108.5 148.5,-108.5"/>
<text text-anchor="start" x="215" y="-115.3" font-family="Times,serif" font-size="14.00">true</text>
<polygon fill="orange" stroke="none" points="8.5,-87.5 8.5,-108.5 61.5,-108.5 61.5,-87.5 8.5,-87.5"/>
<polygon fill="none" stroke="black" points="8.5,-87.5 8.5,-108.5 61.5,-108.5 61.5,-87.5 8.5,-87.5"/>
<text text-anchor="start" x="22" y="-94.3" font-family="Times,serif" font-size="14.00">false</text>
<polygon fill="lemonchiffon" stroke="none" points="61.5,-87.5 61.5,-108.5 105.5,-108.5 105.5,-87.5 61.5,-87.5"/>
<polygon fill="none" stroke="black" points="61.5,-87.5 61.5,-108.5 105.5,-108.5 105.5,-87.5 61.5,-87.5"/>
<text text-anchor="start" x="70.5" y="-94.3" font-family="Times,serif" font-size="14.00">false</text>
<polygon fill="lemonchiffon" stroke="none" points="105.5,-87.5 105.5,-108.5 148.5,-108.5 148.5,-87.5 105.5,-87.5"/>
<polygon fill="none" stroke="black" points="105.5,-87.5 105.5,-108.5 148.5,-108.5 148.5,-87.5 105.5,-87.5"/>
<text text-anchor="start" x="114" y="-94.3" font-family="Times,serif" font-size="14.00">false</text>
<polygon fill="orange" stroke="none" points="148.5,-87.5 148.5,-108.5 303.5,-108.5 303.5,-87.5 148.5,-87.5"/>
<polygon fill="none" stroke="black" points="148.5,-87.5 148.5,-108.5 303.5,-108.5 303.5,-87.5 148.5,-87.5"/>
<text text-anchor="start" x="213" y="-94.3" font-family="Times,serif" font-size="14.00">false</text>
<polygon fill="none" stroke="black" points="8.5,-66.5 8.5,-87.5 61.5,-87.5 61.5,-66.5 8.5,-66.5"/>
<text text-anchor="start" x="24" y="-73.3" font-family="Times,serif" font-size="14.00">true</text>
<polygon fill="none" stroke="black" points="61.5,-66.5 61.5,-87.5 105.5,-87.5 105.5,-66.5 61.5,-66.5"/>
<text text-anchor="start" x="72.5" y="-73.3" font-family="Times,serif" font-size="14.00">true</text>
<polygon fill="none" stroke="black" points="105.5,-66.5 105.5,-87.5 148.5,-87.5 148.5,-66.5 105.5,-66.5"/>
<text text-anchor="start" x="116" y="-73.3" font-family="Times,serif" font-size="14.00">true</text>
<polygon fill="none" stroke="black" points="148.5,-66.5 148.5,-87.5 303.5,-87.5 303.5,-66.5 148.5,-66.5"/>
<text text-anchor="start" x="215" y="-73.3" font-family="Times,serif" font-size="14.00">true</text>
<polygon fill="none" stroke="black" points="8.5,-45.5 8.5,-66.5 61.5,-66.5 61.5,-45.5 8.5,-45.5"/>
<text text-anchor="start" x="24" y="-52.3" font-family="Times,serif" font-size="14.00">true</text>
<polygon fill="none" stroke="black" points="61.5,-45.5 61.5,-66.5 105.5,-66.5 105.5,-45.5 61.5,-45.5"/>
<text text-anchor="start" x="72.5" y="-52.3" font-family="Times,serif" font-size="14.00">true</text>
<polygon fill="none" stroke="black" points="105.5,-45.5 105.5,-66.5 148.5,-66.5 148.5,-45.5 105.5,-45.5"/>
<text text-anchor="start" x="114" y="-52.3" font-family="Times,serif" font-size="14.00">false</text>
<polygon fill="none" stroke="black" points="148.5,-45.5 148.5,-66.5 303.5,-66.5 303.5,-45.5 148.5,-45.5"/>
<text text-anchor="start" x="215" y="-52.3" font-family="Times,serif" font-size="14.00">true</text>
<polygon fill="none" stroke="black" points="8.5,-24.5 8.5,-45.5 61.5,-45.5 61.5,-24.5 8.5,-24.5"/>
<text text-anchor="start" x="24" y="-31.3" font-family="Times,serif" font-size="14.00">true</text>
<polygon fill="none" stroke="black" points="61.5,-24.5 61.5,-45.5 105.5,-45.5 105.5,-24.5 61.5,-24.5"/>
<text text-anchor="start" x="70.5" y="-31.3" font-family="Times,serif" font-size="14.00">false</text>
<polygon fill="none" stroke="black" points="105.5,-24.5 105.5,-45.5 148.5,-45.5 148.5,-24.5 105.5,-24.5"/>
<text text-anchor="start" x="116" y="-31.3" font-family="Times,serif" font-size="14.00">true</text>
<polygon fill="none" stroke="black" points="148.5,-24.5 148.5,-45.5 303.5,-45.5 303.5,-24.5 148.5,-24.5"/>
<text text-anchor="start" x="215" y="-31.3" font-family="Times,serif" font-size="14.00">true</text>
<polygon fill="orange" stroke="none" points="8.5,-3.5 8.5,-24.5 61.5,-24.5 61.5,-3.5 8.5,-3.5"/>
<polygon fill="none" stroke="black" points="8.5,-3.5 8.5,-24.5 61.5,-24.5 61.5,-3.5 8.5,-3.5"/>
<text text-anchor="start" x="24" y="-10.3" font-family="Times,serif" font-size="14.00">true</text>
<polygon fill="lemonchiffon" stroke="none" points="61.5,-3.5 61.5,-24.5 105.5,-24.5 105.5,-3.5 61.5,-3.5"/>
<polygon fill="none" stroke="black" points="61.5,-3.5 61.5,-24.5 105.5,-24.5 105.5,-3.5 61.5,-3.5"/>
<text text-anchor="start" x="70.5" y="-10.3" font-family="Times,serif" font-size="14.00">false</text>
<polygon fill="lemonchiffon" stroke="none" points="105.5,-3.5 105.5,-24.5 148.5,-24.5 148.5,-3.5 105.5,-3.5"/>
<polygon fill="none" stroke="black" points="105.5,-3.5 105.5,-24.5 148.5,-24.5 148.5,-3.5 105.5,-3.5"/>
<text text-anchor="start" x="114" y="-10.3" font-family="Times,serif" font-size="14.00">false</text>
<polygon fill="orange" stroke="none" points="148.5,-3.5 148.5,-24.5 303.5,-24.5 303.5,-3.5 148.5,-3.5"/>
<polygon fill="none" stroke="black" points="148.5,-3.5 148.5,-24.5 303.5,-24.5 303.5,-3.5 148.5,-3.5"/>
<text text-anchor="start" x="215" y="-10.3" font-family="Times,serif" font-size="14.00">true</text>
</g>
</g>
</svg>
