<?xml version="1.0" encoding="UTF-8" standalone="no"?>
<!DOCTYPE svg PUBLIC "-//W3C//DTD SVG 1.1//EN"
 "http://www.w3.org/Graphics/SVG/1.1/DTD/svg11.dtd">
<!-- Generated by graphviz version 7.0.6 (20230106.0513)
 -->
<!-- Title: structs Pages: 1 -->
<svg width="309pt" height="205pt"
 viewBox="0.00 0.00 309.00 205.00" xmlns="http://www.w3.org/2000/svg" xmlns:xlink="http://www.w3.org/1999/xlink">
<g id="graph0" class="graph" transform="scale(1 1) rotate(0) translate(4 201)">
<title>structs</title>
<polygon fill="white" stroke="none" points="-4,4 -4,-201 305,-201 305,4 -4,4"/>
<!-- table -->
<g id="node1" class="node">
<title>table</title>
<polygon fill="none" stroke="black" points="8.5,-171.5 8.5,-192.5 56.5,-192.5 56.5,-171.5 8.5,-171.5"/>
<text text-anchor="start" x="11.5" y="-179.3" font-family="Times,serif" font-size="14.00">a &lt;= </text>
<text text-anchor="start" x="42.5" y="-179.3" font-family="Times,serif" font-size="14.00" fill="lightskyblue">0 </text>
<polygon fill="none" stroke="black" points="56.5,-171.5 56.5,-192.5 100.5,-192.5 100.5,-171.5 56.5,-171.5"/>
<text text-anchor="start" x="59.5" y="-178.3" font-family="Times,serif" font-size="14.00">b &lt;= 0</text>
<polygon fill="none" stroke="black" points="100.5,-171.5 100.5,-192.5 143.5,-192.5 143.5,-171.5 100.5,-171.5"/>
<text text-anchor="start" x="103.5" y="-178.3" font-family="Times,serif" font-size="14.00">c &lt;= 0</text>
<polygon fill="none" stroke="black" points="143.5,-171.5 143.5,-192.5 293.5,-192.5 293.5,-171.5 143.5,-171.5"/>
<text text-anchor="start" x="146.5" y="-179.3" font-family="Times,serif" font-size="14.00">a &lt;= </text>
<text text-anchor="start" x="177.5" y="-179.3" font-family="Times,serif" font-size="14.00" fill="lightskyblue">0 </text>
<text text-anchor="start" x="188.5" y="-179.3" font-family="Times,serif" font-size="14.00"> || b &lt;= 0 || c &lt;= 0</text>
<polygon fill="none" stroke="black" points="8.5,-150.5 8.5,-171.5 56.5,-171.5 56.5,-150.5 8.5,-150.5"/>
<text text-anchor="start" x="21.5" y="-157.3" font-family="Times,serif" font-size="14.00">true</text>
<polygon fill="none" stroke="black" points="56.5,-150.5 56.5,-171.5 100.5,-171.5 100.5,-150.5 56.5,-150.5"/>
<text text-anchor="start" x="67.5" y="-157.3" font-family="Times,serif" font-size="14.00">true</text>
<polygon fill="none" stroke="black" points="100.5,-150.5 100.5,-171.5 143.5,-171.5 143.5,-150.5 100.5,-150.5"/>
<text text-anchor="start" x="111" y="-157.3" font-family="Times,serif" font-size="14.00">true</text>
<polygon fill="none" stroke="black" points="143.5,-150.5 143.5,-171.5 293.5,-171.5 293.5,-150.5 143.5,-150.5"/>
<text text-anchor="start" x="207.5" y="-157.3" font-family="Times,serif" font-size="14.00">true</text>
<polygon fill="none" stroke="black" points="8.5,-129.5 8.5,-150.5 56.5,-150.5 56.5,-129.5 8.5,-129.5"/>
<text text-anchor="start" x="21.5" y="-136.3" font-family="Times,serif" font-size="14.00">true</text>
<polygon fill="none" stroke="black" points="56.5,-129.5 56.5,-150.5 100.5,-150.5 100.5,-129.5 56.5,-129.5"/>
<text text-anchor="start" x="67.5" y="-136.3" font-family="Times,serif" font-size="14.00">true</text>
<polygon fill="none" stroke="black" points="100.5,-129.5 100.5,-150.5 143.5,-150.5 143.5,-129.5 100.5,-129.5"/>
<text text-anchor="start" x="109" y="-136.3" font-family="Times,serif" font-size="14.00">false</text>
<polygon fill="none" stroke="black" points="143.5,-129.5 143.5,-150.5 293.5,-150.5 293.5,-129.5 143.5,-129.5"/>
<text text-anchor="start" x="207.5" y="-136.3" font-family="Times,serif" font-size="14.00">true</text>
<polygon fill="none" stroke="black" points="8.5,-108.5 8.5,-129.5 56.5,-129.5 56.5,-108.5 8.5,-108.5"/>
<text text-anchor="start" x="21.5" y="-115.3" font-family="Times,serif" font-size="14.00">true</text>
<polygon fill="none" stroke="black" points="56.5,-108.5 56.5,-129.5 100.5,-129.5 100.5,-108.5 56.5,-108.5"/>
<text text-anchor="start" x="65.5" y="-115.3" font-family="Times,serif" font-size="14.00">false</text>
<polygon fill="none" stroke="black" points="100.5,-108.5 100.5,-129.5 143.5,-129.5 143.5,-108.5 100.5,-108.5"/>
<text text-anchor="start" x="111" y="-115.3" font-family="Times,serif" font-size="14.00">true</text>
<polygon fill="none" stroke="black" points="143.5,-108.5 143.5,-129.5 293.5,-129.5 293.5,-108.5 143.5,-108.5"/>
<text text-anchor="start" x="207.5" y="-115.3" font-family="Times,serif" font-size="14.00">true</text>
<polygon fill="lightskyblue" stroke="none" points="8.5,-87.5 8.5,-108.5 56.5,-108.5 56.5,-87.5 8.5,-87.5"/>
<polygon fill="none" stroke="black" points="8.5,-87.5 8.5,-108.5 56.5,-108.5 56.5,-87.5 8.5,-87.5"/>
<text text-anchor="start" x="21.5" y="-94.3" font-family="Times,serif" font-size="14.00">true</text>
<polygon fill="lemonchiffon" stroke="none" points="56.5,-87.5 56.5,-108.5 100.5,-108.5 100.5,-87.5 56.5,-87.5"/>
<polygon fill="none" stroke="black" points="56.5,-87.5 56.5,-108.5 100.5,-108.5 100.5,-87.5 56.5,-87.5"/>
<text text-anchor="start" x="65.5" y="-94.3" font-family="Times,serif" font-size="14.00">false</text>
<polygon fill="lemonchiffon" stroke="none" points="100.5,-87.5 100.5,-108.5 143.5,-108.5 143.5,-87.5 100.5,-87.5"/>
<polygon fill="none" stroke="black" points="100.5,-87.5 100.5,-108.5 143.5,-108.5 143.5,-87.5 100.5,-87.5"/>
<text text-anchor="start" x="109" y="-94.3" font-family="Times,serif" font-size="14.00">false</text>
<polygon fill="lightskyblue" stroke="none" points="143.5,-87.5 143.5,-108.5 293.5,-108.5 293.5,-87.5 143.5,-87.5"/>
<polygon fill="none" stroke="black" points="143.5,-87.5 143.5,-108.5 293.5,-108.5 293.5,-87.5 143.5,-87.5"/>
<text text-anchor="start" x="207.5" y="-94.3" font-family="Times,serif" font-size="14.00">true</text>
<polygon fill="none" stroke="black" points="8.5,-66.5 8.5,-87.5 56.5,-87.5 56.5,-66.5 8.5,-66.5"/>
<text text-anchor="start" x="19.5" y="-73.3" font-family="Times,serif" font-size="14.00">false</text>
<polygon fill="none" stroke="black" points="56.5,-66.5 56.5,-87.5 100.5,-87.5 100.5,-66.5 56.5,-66.5"/>
<text text-anchor="start" x="67.5" y="-73.3" font-family="Times,serif" font-size="14.00">true</text>
<polygon fill="none" stroke="black" points="100.5,-66.5 100.5,-87.5 143.5,-87.5 143.5,-66.5 100.5,-66.5"/>
<text text-anchor="start" x="111" y="-73.3" font-family="Times,serif" font-size="14.00">true</text>
<polygon fill="none" stroke="black" points="143.5,-66.5 143.5,-87.5 293.5,-87.5 293.5,-66.5 143.5,-66.5"/>
<text text-anchor="start" x="207.5" y="-73.3" font-family="Times,serif" font-size="14.00">true</text>
<polygon fill="none" stroke="black" points="8.5,-45.5 8.5,-66.5 56.5,-66.5 56.5,-45.5 8.5,-45.5"/>
<text text-anchor="start" x="19.5" y="-52.3" font-family="Times,serif" font-size="14.00">false</text>
<polygon fill="none" stroke="black" points="56.5,-45.5 56.5,-66.5 100.5,-66.5 100.5,-45.5 56.5,-45.5"/>
<text text-anchor="start" x="67.5" y="-52.3" font-family="Times,serif" font-size="14.00">true</text>
<polygon fill="none" stroke="black" points="100.5,-45.5 100.5,-66.5 143.5,-66.5 143.5,-45.5 100.5,-45.5"/>
<text text-anchor="start" x="109" y="-52.3" font-family="Times,serif" font-size="14.00">false</text>
<polygon fill="none" stroke="black" points="143.5,-45.5 143.5,-66.5 293.5,-66.5 293.5,-45.5 143.5,-45.5"/>
<text text-anchor="start" x="207.5" y="-52.3" font-family="Times,serif" font-size="14.00">true</text>
<polygon fill="none" stroke="black" points="8.5,-24.5 8.5,-45.5 56.5,-45.5 56.5,-24.5 8.5,-24.5"/>
<text text-anchor="start" x="19.5" y="-31.3" font-family="Times,serif" font-size="14.00">false</text>
<polygon fill="none" stroke="black" points="56.5,-24.5 56.5,-45.5 100.5,-45.5 100.5,-24.5 56.5,-24.5"/>
<text text-anchor="start" x="65.5" y="-31.3" font-family="Times,serif" font-size="14.00">false</text>
<polygon fill="none" stroke="black" points="100.5,-24.5 100.5,-45.5 143.5,-45.5 143.5,-24.5 100.5,-24.5"/>
<text text-anchor="start" x="111" y="-31.3" font-family="Times,serif" font-size="14.00">true</text>
<polygon fill="none" stroke="black" points="143.5,-24.5 143.5,-45.5 293.5,-45.5 293.5,-24.5 143.5,-24.5"/>
<text text-anchor="start" x="207.5" y="-31.3" font-family="Times,serif" font-size="14.00">true</text>
<polygon fill="lightskyblue" stroke="none" points="8.5,-3.5 8.5,-24.5 56.5,-24.5 56.5,-3.5 8.5,-3.5"/>
<polygon fill="none" stroke="black" points="8.5,-3.5 8.5,-24.5 56.5,-24.5 56.5,-3.5 8.5,-3.5"/>
<text text-anchor="start" x="19.5" y="-10.3" font-family="Times,serif" font-size="14.00">false</text>
<polygon fill="lemonchiffon" stroke="none" points="56.5,-3.5 56.5,-24.5 100.5,-24.5 100.5,-3.5 56.5,-3.5"/>
<polygon fill="none" stroke="black" points="56.5,-3.5 56.5,-24.5 100.5,-24.5 100.5,-3.5 56.5,-3.5"/>
<text text-anchor="start" x="65.5" y="-10.3" font-family="Times,serif" font-size="14.00">false</text>
<polygon fill="lemonchiffon" stroke="none" points="100.5,-3.5 100.5,-24.5 143.5,-24.5 143.5,-3.5 100.5,-3.5"/>
<polygon fill="none" stroke="black" points="100.5,-3.5 100.5,-24.5 143.5,-24.5 143.5,-3.5 100.5,-3.5"/>
<text text-anchor="start" x="109" y="-10.3" font-family="Times,serif" font-size="14.00">false</text>
<polygon fill="lightskyblue" stroke="none" points="143.5,-3.5 143.5,-24.5 293.5,-24.5 293.5,-3.5 143.5,-3.5"/>
<polygon fill="none" stroke="black" points="143.5,-3.5 143.5,-24.5 293.5,-24.5 293.5,-3.5 143.5,-3.5"/>
<text text-anchor="start" x="205.5" y="-10.3" font-family="Times,serif" font-size="14.00">false</text>
</g>
</g>
</svg>
