<?xml version="1.0" encoding="UTF-8" standalone="no"?>
<!DOCTYPE svg PUBLIC "-//W3C//DTD SVG 1.1//EN"
 "http://www.w3.org/Graphics/SVG/1.1/DTD/svg11.dtd">
<!-- Generated by graphviz version 7.0.6 (20230106.0513)
 -->
<!-- Title: structs Pages: 1 -->
<svg width="301pt" height="205pt"
 viewBox="0.00 0.00 301.00 205.00" xmlns="http://www.w3.org/2000/svg" xmlns:xlink="http://www.w3.org/1999/xlink">
<g id="graph0" class="graph" transform="scale(1 1) rotate(0) translate(4 201)">
<title>structs</title>
<polygon fill="white" stroke="none" points="-4,4 -4,-201 297,-201 297,4 -4,4"/>
<!-- table -->
<g id="node1" class="node">
<title>table</title>
<polygon fill="none" stroke="black" points="8.5,-171.5 8.5,-192.5 52.5,-192.5 52.5,-171.5 8.5,-171.5"/>
<text text-anchor="start" x="11.5" y="-179.3" font-family="Times,serif" font-size="14.00">a &lt;= </text>
<text text-anchor="start" x="42.5" y="-179.3" font-family="Times,serif" font-size="14.00" fill="lightskyblue">0</text>
<polygon fill="none" stroke="black" points="52.5,-171.5 52.5,-192.5 96.5,-192.5 96.5,-171.5 52.5,-171.5"/>
<text text-anchor="start" x="55.5" y="-178.3" font-family="Times,serif" font-size="14.00">b &lt;= 0</text>
<polygon fill="none" stroke="black" points="96.5,-171.5 96.5,-192.5 139.5,-192.5 139.5,-171.5 96.5,-171.5"/>
<text text-anchor="start" x="99.5" y="-178.3" font-family="Times,serif" font-size="14.00">c &lt;= 0</text>
<polygon fill="none" stroke="black" points="139.5,-171.5 139.5,-192.5 285.5,-192.5 285.5,-171.5 139.5,-171.5"/>
<text text-anchor="start" x="142.5" y="-179.3" font-family="Times,serif" font-size="14.00">a &lt;= </text>
<text text-anchor="start" x="173.5" y="-179.3" font-family="Times,serif" font-size="14.00" fill="lightskyblue">0</text>
<text text-anchor="start" x="180.5" y="-179.3" font-family="Times,serif" font-size="14.00"> || b &lt;= 0 || c &lt;= 0</text>
<polygon fill="lightskyblue" stroke="none" points="8.5,-150.5 8.5,-171.5 52.5,-171.5 52.5,-150.5 8.5,-150.5"/>
<polygon fill="none" stroke="black" points="8.5,-150.5 8.5,-171.5 52.5,-171.5 52.5,-150.5 8.5,-150.5"/>
<text text-anchor="start" x="19.5" y="-157.3" font-family="Times,serif" font-size="14.00">true</text>
<polygon fill="none" stroke="black" points="52.5,-150.5 52.5,-171.5 96.5,-171.5 96.5,-150.5 52.5,-150.5"/>
<text text-anchor="start" x="63.5" y="-157.3" font-family="Times,serif" font-size="14.00">true</text>
<polygon fill="none" stroke="black" points="96.5,-150.5 96.5,-171.5 139.5,-171.5 139.5,-150.5 96.5,-150.5"/>
<text text-anchor="start" x="107" y="-157.3" font-family="Times,serif" font-size="14.00">true</text>
<polygon fill="none" stroke="black" points="139.5,-150.5 139.5,-171.5 285.5,-171.5 285.5,-150.5 139.5,-150.5"/>
<text text-anchor="start" x="201.5" y="-157.3" font-family="Times,serif" font-size="14.00">true</text>
<polygon fill="lightskyblue" stroke="none" points="8.5,-129.5 8.5,-150.5 52.5,-150.5 52.5,-129.5 8.5,-129.5"/>
<polygon fill="none" stroke="black" points="8.5,-129.5 8.5,-150.5 52.5,-150.5 52.5,-129.5 8.5,-129.5"/>
<text text-anchor="start" x="19.5" y="-136.3" font-family="Times,serif" font-size="14.00">true</text>
<polygon fill="none" stroke="black" points="52.5,-129.5 52.5,-150.5 96.5,-150.5 96.5,-129.5 52.5,-129.5"/>
<text text-anchor="start" x="63.5" y="-136.3" font-family="Times,serif" font-size="14.00">true</text>
<polygon fill="none" stroke="black" points="96.5,-129.5 96.5,-150.5 139.5,-150.5 139.5,-129.5 96.5,-129.5"/>
<text text-anchor="start" x="105" y="-136.3" font-family="Times,serif" font-size="14.00">false</text>
<polygon fill="none" stroke="black" points="139.5,-129.5 139.5,-150.5 285.5,-150.5 285.5,-129.5 139.5,-129.5"/>
<text text-anchor="start" x="201.5" y="-136.3" font-family="Times,serif" font-size="14.00">true</text>
<polygon fill="lightskyblue" stroke="none" points="8.5,-108.5 8.5,-129.5 52.5,-129.5 52.5,-108.5 8.5,-108.5"/>
<polygon fill="none" stroke="black" points="8.5,-108.5 8.5,-129.5 52.5,-129.5 52.5,-108.5 8.5,-108.5"/>
<text text-anchor="start" x="19.5" y="-115.3" font-family="Times,serif" font-size="14.00">true</text>
<polygon fill="none" stroke="black" points="52.5,-108.5 52.5,-129.5 96.5,-129.5 96.5,-108.5 52.5,-108.5"/>
<text text-anchor="start" x="61.5" y="-115.3" font-family="Times,serif" font-size="14.00">false</text>
<polygon fill="none" stroke="black" points="96.5,-108.5 96.5,-129.5 139.5,-129.5 139.5,-108.5 96.5,-108.5"/>
<text text-anchor="start" x="107" y="-115.3" font-family="Times,serif" font-size="14.00">true</text>
<polygon fill="none" stroke="black" points="139.5,-108.5 139.5,-129.5 285.5,-129.5 285.5,-108.5 139.5,-108.5"/>
<text text-anchor="start" x="201.5" y="-115.3" font-family="Times,serif" font-size="14.00">true</text>
<polygon fill="lightskyblue" stroke="none" points="8.5,-87.5 8.5,-108.5 52.5,-108.5 52.5,-87.5 8.5,-87.5"/>
<polygon fill="none" stroke="black" points="8.5,-87.5 8.5,-108.5 52.5,-108.5 52.5,-87.5 8.5,-87.5"/>
<text text-anchor="start" x="19.5" y="-94.3" font-family="Times,serif" font-size="14.00">true</text>
<polygon fill="lightgreen" stroke="none" points="52.5,-87.5 52.5,-108.5 96.5,-108.5 96.5,-87.5 52.5,-87.5"/>
<polygon fill="none" stroke="black" points="52.5,-87.5 52.5,-108.5 96.5,-108.5 96.5,-87.5 52.5,-87.5"/>
<text text-anchor="start" x="61.5" y="-94.3" font-family="Times,serif" font-size="14.00">false</text>
<polygon fill="lightgreen" stroke="none" points="96.5,-87.5 96.5,-108.5 139.5,-108.5 139.5,-87.5 96.5,-87.5"/>
<polygon fill="none" stroke="black" points="96.5,-87.5 96.5,-108.5 139.5,-108.5 139.5,-87.5 96.5,-87.5"/>
<text text-anchor="start" x="105" y="-94.3" font-family="Times,serif" font-size="14.00">false</text>
<polygon fill="lightgreen" stroke="none" points="139.5,-87.5 139.5,-108.5 285.5,-108.5 285.5,-87.5 139.5,-87.5"/>
<polygon fill="none" stroke="black" points="139.5,-87.5 139.5,-108.5 285.5,-108.5 285.5,-87.5 139.5,-87.5"/>
<text text-anchor="start" x="201.5" y="-94.3" font-family="Times,serif" font-size="14.00">true</text>
<polygon fill="lightskyblue" stroke="none" points="8.5,-66.5 8.5,-87.5 52.5,-87.5 52.5,-66.5 8.5,-66.5"/>
<polygon fill="none" stroke="black" points="8.5,-66.5 8.5,-87.5 52.5,-87.5 52.5,-66.5 8.5,-66.5"/>
<text text-anchor="start" x="17.5" y="-73.3" font-family="Times,serif" font-size="14.00">false</text>
<polygon fill="none" stroke="black" points="52.5,-66.5 52.5,-87.5 96.5,-87.5 96.5,-66.5 52.5,-66.5"/>
<text text-anchor="start" x="63.5" y="-73.3" font-family="Times,serif" font-size="14.00">true</text>
<polygon fill="none" stroke="black" points="96.5,-66.5 96.5,-87.5 139.5,-87.5 139.5,-66.5 96.5,-66.5"/>
<text text-anchor="start" x="107" y="-73.3" font-family="Times,serif" font-size="14.00">true</text>
<polygon fill="none" stroke="black" points="139.5,-66.5 139.5,-87.5 285.5,-87.5 285.5,-66.5 139.5,-66.5"/>
<text text-anchor="start" x="201.5" y="-73.3" font-family="Times,serif" font-size="14.00">true</text>
<polygon fill="lightskyblue" stroke="none" points="8.5,-45.5 8.5,-66.5 52.5,-66.5 52.5,-45.5 8.5,-45.5"/>
<polygon fill="none" stroke="black" points="8.5,-45.5 8.5,-66.5 52.5,-66.5 52.5,-45.5 8.5,-45.5"/>
<text text-anchor="start" x="17.5" y="-52.3" font-family="Times,serif" font-size="14.00">false</text>
<polygon fill="none" stroke="black" points="52.5,-45.5 52.5,-66.5 96.5,-66.5 96.5,-45.5 52.5,-45.5"/>
<text text-anchor="start" x="63.5" y="-52.3" font-family="Times,serif" font-size="14.00">true</text>
<polygon fill="none" stroke="black" points="96.5,-45.5 96.5,-66.5 139.5,-66.5 139.5,-45.5 96.5,-45.5"/>
<text text-anchor="start" x="105" y="-52.3" font-family="Times,serif" font-size="14.00">false</text>
<polygon fill="none" stroke="black" points="139.5,-45.5 139.5,-66.5 285.5,-66.5 285.5,-45.5 139.5,-45.5"/>
<text text-anchor="start" x="201.5" y="-52.3" font-family="Times,serif" font-size="14.00">true</text>
<polygon fill="lightskyblue" stroke="none" points="8.5,-24.5 8.5,-45.5 52.5,-45.5 52.5,-24.5 8.5,-24.5"/>
<polygon fill="none" stroke="black" points="8.5,-24.5 8.5,-45.5 52.5,-45.5 52.5,-24.5 8.5,-24.5"/>
<text text-anchor="start" x="17.5" y="-31.3" font-family="Times,serif" font-size="14.00">false</text>
<polygon fill="none" stroke="black" points="52.5,-24.5 52.5,-45.5 96.5,-45.5 96.5,-24.5 52.5,-24.5"/>
<text text-anchor="start" x="61.5" y="-31.3" font-family="Times,serif" font-size="14.00">false</text>
<polygon fill="none" stroke="black" points="96.5,-24.5 96.5,-45.5 139.5,-45.5 139.5,-24.5 96.5,-24.5"/>
<text text-anchor="start" x="107" y="-31.3" font-family="Times,serif" font-size="14.00">true</text>
<polygon fill="none" stroke="black" points="139.5,-24.5 139.5,-45.5 285.5,-45.5 285.5,-24.5 139.5,-24.5"/>
<text text-anchor="start" x="201.5" y="-31.3" font-family="Times,serif" font-size="14.00">true</text>
<polygon fill="lightskyblue" stroke="none" points="8.5,-3.5 8.5,-24.5 52.5,-24.5 52.5,-3.5 8.5,-3.5"/>
<polygon fill="none" stroke="black" points="8.5,-3.5 8.5,-24.5 52.5,-24.5 52.5,-3.5 8.5,-3.5"/>
<text text-anchor="start" x="17.5" y="-10.3" font-family="Times,serif" font-size="14.00">false</text>
<polygon fill="lightgreen" stroke="none" points="52.5,-3.5 52.5,-24.5 96.5,-24.5 96.5,-3.5 52.5,-3.5"/>
<polygon fill="none" stroke="black" points="52.5,-3.5 52.5,-24.5 96.5,-24.5 96.5,-3.5 52.5,-3.5"/>
<text text-anchor="start" x="61.5" y="-10.3" font-family="Times,serif" font-size="14.00">false</text>
<polygon fill="lightgreen" stroke="none" points="96.5,-3.5 96.5,-24.5 139.5,-24.5 139.5,-3.5 96.5,-3.5"/>
<polygon fill="none" stroke="black" points="96.5,-3.5 96.5,-24.5 139.5,-24.5 139.5,-3.5 96.5,-3.5"/>
<text text-anchor="start" x="105" y="-10.3" font-family="Times,serif" font-size="14.00">false</text>
<polygon fill="lightgreen" stroke="none" points="139.5,-3.5 139.5,-24.5 285.5,-24.5 285.5,-3.5 139.5,-3.5"/>
<polygon fill="none" stroke="black" points="139.5,-3.5 139.5,-24.5 285.5,-24.5 285.5,-3.5 139.5,-3.5"/>
<text text-anchor="start" x="199.5" y="-10.3" font-family="Times,serif" font-size="14.00">false</text>
</g>
</g>
</svg>
