<?xml version="1.0" encoding="UTF-8" standalone="no"?>
<!DOCTYPE svg PUBLIC "-//W3C//DTD SVG 1.1//EN"
 "http://www.w3.org/Graphics/SVG/1.1/DTD/svg11.dtd">
<!-- Generated by graphviz version 7.0.6 (20230106.0513)
 -->
<!-- Title: structs Pages: 1 -->
<svg width="426pt" height="205pt"
 viewBox="0.00 0.00 426.00 205.00" xmlns="http://www.w3.org/2000/svg" xmlns:xlink="http://www.w3.org/1999/xlink">
<g id="graph0" class="graph" transform="scale(1 1) rotate(0) translate(4 201)">
<title>structs</title>
<polygon fill="white" stroke="none" points="-4,4 -4,-201 422,-201 422,4 -4,4"/>
<!-- table -->
<g id="node1" class="node">
<title>table</title>
<polygon fill="none" stroke="black" points="8,-171.5 8,-192.5 73,-192.5 73,-171.5 8,-171.5"/>
<text text-anchor="start" x="11" y="-178.3" font-family="Times,serif" font-size="14.00">a + b &lt;= c</text>
<polygon fill="none" stroke="black" points="73,-171.5 73,-192.5 137,-192.5 137,-171.5 73,-171.5"/>
<text text-anchor="start" x="76" y="-179.3" font-family="Times,serif" font-size="14.00">a </text>
<text text-anchor="start" x="86" y="-179.3" font-family="Times,serif" font-size="14.00" fill="orange">* </text>
<text text-anchor="start" x="97" y="-179.3" font-family="Times,serif" font-size="14.00">c &lt;= b</text>
<polygon fill="none" stroke="black" points="137,-171.5 137,-192.5 202,-192.5 202,-171.5 137,-171.5"/>
<text text-anchor="start" x="140" y="-178.3" font-family="Times,serif" font-size="14.00">b + c &lt;= a</text>
<polygon fill="none" stroke="black" points="202,-171.5 202,-192.5 410,-192.5 410,-171.5 202,-171.5"/>
<text text-anchor="start" x="205" y="-179.3" font-family="Times,serif" font-size="14.00">a + b &lt;= c || a </text>
<text text-anchor="start" x="287" y="-179.3" font-family="Times,serif" font-size="14.00" fill="orange">* </text>
<text text-anchor="start" x="298" y="-179.3" font-family="Times,serif" font-size="14.00">c &lt;= b || b + c &lt;= a</text>
<polygon fill="none" stroke="black" points="8,-150.5 8,-171.5 73,-171.5 73,-150.5 8,-150.5"/>
<text text-anchor="start" x="29.5" y="-157.3" font-family="Times,serif" font-size="14.00">true</text>
<polygon fill="none" stroke="black" points="73,-150.5 73,-171.5 137,-171.5 137,-150.5 73,-150.5"/>
<text text-anchor="start" x="92" y="-157.3" font-family="Times,serif" font-size="14.00">false</text>
<polygon fill="none" stroke="black" points="137,-150.5 137,-171.5 202,-171.5 202,-150.5 137,-150.5"/>
<text text-anchor="start" x="158.5" y="-157.3" font-family="Times,serif" font-size="14.00">true</text>
<polygon fill="none" stroke="black" points="202,-150.5 202,-171.5 410,-171.5 410,-150.5 202,-150.5"/>
<text text-anchor="start" x="295" y="-157.3" font-family="Times,serif" font-size="14.00">true</text>
<polygon fill="none" stroke="black" points="8,-129.5 8,-150.5 73,-150.5 73,-129.5 8,-129.5"/>
<text text-anchor="start" x="29.5" y="-136.3" font-family="Times,serif" font-size="14.00">true</text>
<polygon fill="none" stroke="black" points="73,-129.5 73,-150.5 137,-150.5 137,-129.5 73,-129.5"/>
<text text-anchor="start" x="92" y="-136.3" font-family="Times,serif" font-size="14.00">false</text>
<polygon fill="none" stroke="black" points="137,-129.5 137,-150.5 202,-150.5 202,-129.5 137,-129.5"/>
<text text-anchor="start" x="156.5" y="-136.3" font-family="Times,serif" font-size="14.00">false</text>
<polygon fill="none" stroke="black" points="202,-129.5 202,-150.5 410,-150.5 410,-129.5 202,-129.5"/>
<text text-anchor="start" x="295" y="-136.3" font-family="Times,serif" font-size="14.00">true</text>
<polygon fill="none" stroke="black" points="8,-108.5 8,-129.5 73,-129.5 73,-108.5 8,-108.5"/>
<text text-anchor="start" x="29.5" y="-115.3" font-family="Times,serif" font-size="14.00">true</text>
<polygon fill="none" stroke="black" points="73,-108.5 73,-129.5 137,-129.5 137,-108.5 73,-108.5"/>
<text text-anchor="start" x="94" y="-115.3" font-family="Times,serif" font-size="14.00">true</text>
<polygon fill="none" stroke="black" points="137,-108.5 137,-129.5 202,-129.5 202,-108.5 137,-108.5"/>
<text text-anchor="start" x="158.5" y="-115.3" font-family="Times,serif" font-size="14.00">true</text>
<polygon fill="none" stroke="black" points="202,-108.5 202,-129.5 410,-129.5 410,-108.5 202,-108.5"/>
<text text-anchor="start" x="295" y="-115.3" font-family="Times,serif" font-size="14.00">true</text>
<polygon fill="none" stroke="black" points="8,-87.5 8,-108.5 73,-108.5 73,-87.5 8,-87.5"/>
<text text-anchor="start" x="29.5" y="-94.3" font-family="Times,serif" font-size="14.00">true</text>
<polygon fill="none" stroke="black" points="73,-87.5 73,-108.5 137,-108.5 137,-87.5 73,-87.5"/>
<text text-anchor="start" x="94" y="-94.3" font-family="Times,serif" font-size="14.00">true</text>
<polygon fill="none" stroke="black" points="137,-87.5 137,-108.5 202,-108.5 202,-87.5 137,-87.5"/>
<text text-anchor="start" x="156.5" y="-94.3" font-family="Times,serif" font-size="14.00">false</text>
<polygon fill="none" stroke="black" points="202,-87.5 202,-108.5 410,-108.5 410,-87.5 202,-87.5"/>
<text text-anchor="start" x="295" y="-94.3" font-family="Times,serif" font-size="14.00">true</text>
<polygon fill="none" stroke="black" points="8,-66.5 8,-87.5 73,-87.5 73,-66.5 8,-66.5"/>
<text text-anchor="start" x="27.5" y="-73.3" font-family="Times,serif" font-size="14.00">false</text>
<polygon fill="none" stroke="black" points="73,-66.5 73,-87.5 137,-87.5 137,-66.5 73,-66.5"/>
<text text-anchor="start" x="92" y="-73.3" font-family="Times,serif" font-size="14.00">false</text>
<polygon fill="none" stroke="black" points="137,-66.5 137,-87.5 202,-87.5 202,-66.5 137,-66.5"/>
<text text-anchor="start" x="158.5" y="-73.3" font-family="Times,serif" font-size="14.00">true</text>
<polygon fill="none" stroke="black" points="202,-66.5 202,-87.5 410,-87.5 410,-66.5 202,-66.5"/>
<text text-anchor="start" x="295" y="-73.3" font-family="Times,serif" font-size="14.00">true</text>
<polygon fill="lemonchiffon" stroke="none" points="8,-45.5 8,-66.5 73,-66.5 73,-45.5 8,-45.5"/>
<polygon fill="none" stroke="black" points="8,-45.5 8,-66.5 73,-66.5 73,-45.5 8,-45.5"/>
<text text-anchor="start" x="27.5" y="-52.3" font-family="Times,serif" font-size="14.00">false</text>
<polygon fill="orange" stroke="none" points="73,-45.5 73,-66.5 137,-66.5 137,-45.5 73,-45.5"/>
<polygon fill="none" stroke="black" points="73,-45.5 73,-66.5 137,-66.5 137,-45.5 73,-45.5"/>
<text text-anchor="start" x="92" y="-52.3" font-family="Times,serif" font-size="14.00">false</text>
<polygon fill="lemonchiffon" stroke="none" points="137,-45.5 137,-66.5 202,-66.5 202,-45.5 137,-45.5"/>
<polygon fill="none" stroke="black" points="137,-45.5 137,-66.5 202,-66.5 202,-45.5 137,-45.5"/>
<text text-anchor="start" x="156.5" y="-52.3" font-family="Times,serif" font-size="14.00">false</text>
<polygon fill="orange" stroke="none" points="202,-45.5 202,-66.5 410,-66.5 410,-45.5 202,-45.5"/>
<polygon fill="none" stroke="black" points="202,-45.5 202,-66.5 410,-66.5 410,-45.5 202,-45.5"/>
<text text-anchor="start" x="293" y="-52.3" font-family="Times,serif" font-size="14.00">false</text>
<polygon fill="none" stroke="black" points="8,-24.5 8,-45.5 73,-45.5 73,-24.5 8,-24.5"/>
<text text-anchor="start" x="27.5" y="-31.3" font-family="Times,serif" font-size="14.00">false</text>
<polygon fill="none" stroke="black" points="73,-24.5 73,-45.5 137,-45.5 137,-24.5 73,-24.5"/>
<text text-anchor="start" x="94" y="-31.3" font-family="Times,serif" font-size="14.00">true</text>
<polygon fill="none" stroke="black" points="137,-24.5 137,-45.5 202,-45.5 202,-24.5 137,-24.5"/>
<text text-anchor="start" x="158.5" y="-31.3" font-family="Times,serif" font-size="14.00">true</text>
<polygon fill="none" stroke="black" points="202,-24.5 202,-45.5 410,-45.5 410,-24.5 202,-24.5"/>
<text text-anchor="start" x="295" y="-31.3" font-family="Times,serif" font-size="14.00">true</text>
<polygon fill="lemonchiffon" stroke="none" points="8,-3.5 8,-24.5 73,-24.5 73,-3.5 8,-3.5"/>
<polygon fill="none" stroke="black" points="8,-3.5 8,-24.5 73,-24.5 73,-3.5 8,-3.5"/>
<text text-anchor="start" x="27.5" y="-10.3" font-family="Times,serif" font-size="14.00">false</text>
<polygon fill="orange" stroke="none" points="73,-3.5 73,-24.5 137,-24.5 137,-3.5 73,-3.5"/>
<polygon fill="none" stroke="black" points="73,-3.5 73,-24.5 137,-24.5 137,-3.5 73,-3.5"/>
<text text-anchor="start" x="94" y="-10.3" font-family="Times,serif" font-size="14.00">true</text>
<polygon fill="lemonchiffon" stroke="none" points="137,-3.5 137,-24.5 202,-24.5 202,-3.5 137,-3.5"/>
<polygon fill="none" stroke="black" points="137,-3.5 137,-24.5 202,-24.5 202,-3.5 137,-3.5"/>
<text text-anchor="start" x="156.5" y="-10.3" font-family="Times,serif" font-size="14.00">false</text>
<polygon fill="orange" stroke="none" points="202,-3.5 202,-24.5 410,-24.5 410,-3.5 202,-3.5"/>
<polygon fill="none" stroke="black" points="202,-3.5 202,-24.5 410,-24.5 410,-3.5 202,-3.5"/>
<text text-anchor="start" x="295" y="-10.3" font-family="Times,serif" font-size="14.00">true</text>
</g>
</g>
</svg>
