<?xml version="1.0" encoding="UTF-8" standalone="no"?>
<!DOCTYPE svg PUBLIC "-//W3C//DTD SVG 1.1//EN"
 "http://www.w3.org/Graphics/SVG/1.1/DTD/svg11.dtd">
<!-- Generated by graphviz version 7.0.6 (20230106.0513)
 -->
<!-- Title: structs Pages: 1 -->
<svg width="296pt" height="121pt"
 viewBox="0.00 0.00 296.00 121.00" xmlns="http://www.w3.org/2000/svg" xmlns:xlink="http://www.w3.org/1999/xlink">
<g id="graph0" class="graph" transform="scale(1 1) rotate(0) translate(4 117)">
<title>structs</title>
<polygon fill="white" stroke="none" points="-4,4 -4,-117 292,-117 292,4 -4,4"/>
<!-- table -->
<g id="node1" class="node">
<title>table</title>
<polygon fill="none" stroke="black" points="8,-87.5 8,-108.5 70,-108.5 70,-87.5 8,-87.5"/>
<text text-anchor="start" x="11" y="-94.3" font-family="Times,serif" font-size="14.00">trian == 2</text>
<polygon fill="none" stroke="black" points="70,-87.5 70,-108.5 132,-108.5 132,-87.5 70,-87.5"/>
<text text-anchor="start" x="73" y="-95.3" font-family="Times,serif" font-size="14.00">a + c </text>
<text text-anchor="start" x="105" y="-95.3" font-family="Times,serif" font-size="14.00" fill="lightskyblue">&gt; </text>
<text text-anchor="start" x="118" y="-95.3" font-family="Times,serif" font-size="14.00"> b</text>
<polygon fill="none" stroke="black" points="132,-87.5 132,-108.5 280,-108.5 280,-87.5 132,-87.5"/>
<text text-anchor="start" x="135" y="-95.3" font-family="Times,serif" font-size="14.00">trian == 2 &amp;&amp; a + c </text>
<text text-anchor="start" x="253" y="-95.3" font-family="Times,serif" font-size="14.00" fill="lightskyblue">&gt; </text>
<text text-anchor="start" x="266" y="-95.3" font-family="Times,serif" font-size="14.00"> b</text>
<polygon fill="lemonchiffon" stroke="none" points="8,-66.5 8,-87.5 70,-87.5 70,-66.5 8,-66.5"/>
<polygon fill="none" stroke="black" points="8,-66.5 8,-87.5 70,-87.5 70,-66.5 8,-66.5"/>
<text text-anchor="start" x="28" y="-73.3" font-family="Times,serif" font-size="14.00">true</text>
<polygon fill="lightskyblue" stroke="none" points="70,-66.5 70,-87.5 132,-87.5 132,-66.5 70,-66.5"/>
<polygon fill="none" stroke="black" points="70,-66.5 70,-87.5 132,-87.5 132,-66.5 70,-66.5"/>
<text text-anchor="start" x="90" y="-73.3" font-family="Times,serif" font-size="14.00">true</text>
<polygon fill="lightskyblue" stroke="none" points="132,-66.5 132,-87.5 280,-87.5 280,-66.5 132,-66.5"/>
<polygon fill="none" stroke="black" points="132,-66.5 132,-87.5 280,-87.5 280,-66.5 132,-66.5"/>
<text text-anchor="start" x="195" y="-73.3" font-family="Times,serif" font-size="14.00">true</text>
<polygon fill="lemonchiffon" stroke="none" points="8,-45.5 8,-66.5 70,-66.5 70,-45.5 8,-45.5"/>
<polygon fill="none" stroke="black" points="8,-45.5 8,-66.5 70,-66.5 70,-45.5 8,-45.5"/>
<text text-anchor="start" x="28" y="-52.3" font-family="Times,serif" font-size="14.00">true</text>
<polygon fill="lightskyblue" stroke="none" points="70,-45.5 70,-66.5 132,-66.5 132,-45.5 70,-45.5"/>
<polygon fill="none" stroke="black" points="70,-45.5 70,-66.5 132,-66.5 132,-45.5 70,-45.5"/>
<text text-anchor="start" x="88" y="-52.3" font-family="Times,serif" font-size="14.00">false</text>
<polygon fill="lightskyblue" stroke="none" points="132,-45.5 132,-66.5 280,-66.5 280,-45.5 132,-45.5"/>
<polygon fill="none" stroke="black" points="132,-45.5 132,-66.5 280,-66.5 280,-45.5 132,-45.5"/>
<text text-anchor="start" x="193" y="-52.3" font-family="Times,serif" font-size="14.00">false</text>
<polygon fill="none" stroke="black" points="8,-24.5 8,-45.5 70,-45.5 70,-24.5 8,-24.5"/>
<text text-anchor="start" x="26" y="-31.3" font-family="Times,serif" font-size="14.00">false</text>
<polygon fill="none" stroke="black" points="70,-24.5 70,-45.5 132,-45.5 132,-24.5 70,-24.5"/>
<text text-anchor="start" x="90" y="-31.3" font-family="Times,serif" font-size="14.00">true</text>
<polygon fill="none" stroke="black" points="132,-24.5 132,-45.5 280,-45.5 280,-24.5 132,-24.5"/>
<text text-anchor="start" x="193" y="-31.3" font-family="Times,serif" font-size="14.00">false</text>
<polygon fill="none" stroke="black" points="8,-3.5 8,-24.5 70,-24.5 70,-3.5 8,-3.5"/>
<text text-anchor="start" x="26" y="-10.3" font-family="Times,serif" font-size="14.00">false</text>
<polygon fill="none" stroke="black" points="70,-3.5 70,-24.5 132,-24.5 132,-3.5 70,-3.5"/>
<text text-anchor="start" x="88" y="-10.3" font-family="Times,serif" font-size="14.00">false</text>
<polygon fill="none" stroke="black" points="132,-3.5 132,-24.5 280,-24.5 280,-3.5 132,-3.5"/>
<text text-anchor="start" x="193" y="-10.3" font-family="Times,serif" font-size="14.00">false</text>
</g>
</g>
</svg>
