<?xml version="1.0" encoding="UTF-8" standalone="no"?>
<!DOCTYPE svg PUBLIC "-//W3C//DTD SVG 1.1//EN"
 "http://www.w3.org/Graphics/SVG/1.1/DTD/svg11.dtd">
<!-- Generated by graphviz version 7.0.6 (20230106.0513)
 -->
<!-- Title: structs Pages: 1 -->
<svg width="318pt" height="205pt"
 viewBox="0.00 0.00 318.00 205.00" xmlns="http://www.w3.org/2000/svg" xmlns:xlink="http://www.w3.org/1999/xlink">
<g id="graph0" class="graph" transform="scale(1 1) rotate(0) translate(4 201)">
<title>structs</title>
<polygon fill="white" stroke="none" points="-4,4 -4,-201 314,-201 314,4 -4,4"/>
<!-- table -->
<g id="node1" class="node">
<title>table</title>
<polygon fill="none" stroke="black" points="8,-171.5 8,-192.5 51,-192.5 51,-171.5 8,-171.5"/>
<text text-anchor="start" x="11" y="-178.3" font-family="Times,serif" font-size="14.00">a &lt;= 0</text>
<polygon fill="none" stroke="black" points="51,-171.5 51,-192.5 104,-192.5 104,-171.5 51,-171.5"/>
<text text-anchor="start" x="54" y="-179.3" font-family="Times,serif" font-size="14.00">b &lt;= </text>
<text text-anchor="start" x="85" y="-179.3" font-family="Times,serif" font-size="14.00" fill="orange">&#45;1 </text>
<polygon fill="none" stroke="black" points="104,-171.5 104,-192.5 147,-192.5 147,-171.5 104,-171.5"/>
<text text-anchor="start" x="107" y="-178.3" font-family="Times,serif" font-size="14.00">c &lt;= 0</text>
<polygon fill="none" stroke="black" points="147,-171.5 147,-192.5 302,-192.5 302,-171.5 147,-171.5"/>
<text text-anchor="start" x="150" y="-179.3" font-family="Times,serif" font-size="14.00">a &lt;= 0 || b &lt;= </text>
<text text-anchor="start" x="232" y="-179.3" font-family="Times,serif" font-size="14.00" fill="orange">&#45;1 </text>
<text text-anchor="start" x="248" y="-179.3" font-family="Times,serif" font-size="14.00"> || c &lt;= 0</text>
<polygon fill="none" stroke="black" points="8,-150.5 8,-171.5 51,-171.5 51,-150.5 8,-150.5"/>
<text text-anchor="start" x="18.5" y="-157.3" font-family="Times,serif" font-size="14.00">true</text>
<polygon fill="none" stroke="black" points="51,-150.5 51,-171.5 104,-171.5 104,-150.5 51,-150.5"/>
<text text-anchor="start" x="64.5" y="-157.3" font-family="Times,serif" font-size="14.00">false</text>
<polygon fill="none" stroke="black" points="104,-150.5 104,-171.5 147,-171.5 147,-150.5 104,-150.5"/>
<text text-anchor="start" x="114.5" y="-157.3" font-family="Times,serif" font-size="14.00">true</text>
<polygon fill="none" stroke="black" points="147,-150.5 147,-171.5 302,-171.5 302,-150.5 147,-150.5"/>
<text text-anchor="start" x="213.5" y="-157.3" font-family="Times,serif" font-size="14.00">true</text>
<polygon fill="none" stroke="black" points="8,-129.5 8,-150.5 51,-150.5 51,-129.5 8,-129.5"/>
<text text-anchor="start" x="18.5" y="-136.3" font-family="Times,serif" font-size="14.00">true</text>
<polygon fill="none" stroke="black" points="51,-129.5 51,-150.5 104,-150.5 104,-129.5 51,-129.5"/>
<text text-anchor="start" x="64.5" y="-136.3" font-family="Times,serif" font-size="14.00">false</text>
<polygon fill="none" stroke="black" points="104,-129.5 104,-150.5 147,-150.5 147,-129.5 104,-129.5"/>
<text text-anchor="start" x="112.5" y="-136.3" font-family="Times,serif" font-size="14.00">false</text>
<polygon fill="none" stroke="black" points="147,-129.5 147,-150.5 302,-150.5 302,-129.5 147,-129.5"/>
<text text-anchor="start" x="213.5" y="-136.3" font-family="Times,serif" font-size="14.00">true</text>
<polygon fill="none" stroke="black" points="8,-108.5 8,-129.5 51,-129.5 51,-108.5 8,-108.5"/>
<text text-anchor="start" x="18.5" y="-115.3" font-family="Times,serif" font-size="14.00">true</text>
<polygon fill="none" stroke="black" points="51,-108.5 51,-129.5 104,-129.5 104,-108.5 51,-108.5"/>
<text text-anchor="start" x="66.5" y="-115.3" font-family="Times,serif" font-size="14.00">true</text>
<polygon fill="none" stroke="black" points="104,-108.5 104,-129.5 147,-129.5 147,-108.5 104,-108.5"/>
<text text-anchor="start" x="114.5" y="-115.3" font-family="Times,serif" font-size="14.00">true</text>
<polygon fill="none" stroke="black" points="147,-108.5 147,-129.5 302,-129.5 302,-108.5 147,-108.5"/>
<text text-anchor="start" x="213.5" y="-115.3" font-family="Times,serif" font-size="14.00">true</text>
<polygon fill="none" stroke="black" points="8,-87.5 8,-108.5 51,-108.5 51,-87.5 8,-87.5"/>
<text text-anchor="start" x="18.5" y="-94.3" font-family="Times,serif" font-size="14.00">true</text>
<polygon fill="none" stroke="black" points="51,-87.5 51,-108.5 104,-108.5 104,-87.5 51,-87.5"/>
<text text-anchor="start" x="66.5" y="-94.3" font-family="Times,serif" font-size="14.00">true</text>
<polygon fill="none" stroke="black" points="104,-87.5 104,-108.5 147,-108.5 147,-87.5 104,-87.5"/>
<text text-anchor="start" x="112.5" y="-94.3" font-family="Times,serif" font-size="14.00">false</text>
<polygon fill="none" stroke="black" points="147,-87.5 147,-108.5 302,-108.5 302,-87.5 147,-87.5"/>
<text text-anchor="start" x="213.5" y="-94.3" font-family="Times,serif" font-size="14.00">true</text>
<polygon fill="none" stroke="black" points="8,-66.5 8,-87.5 51,-87.5 51,-66.5 8,-66.5"/>
<text text-anchor="start" x="16.5" y="-73.3" font-family="Times,serif" font-size="14.00">false</text>
<polygon fill="none" stroke="black" points="51,-66.5 51,-87.5 104,-87.5 104,-66.5 51,-66.5"/>
<text text-anchor="start" x="64.5" y="-73.3" font-family="Times,serif" font-size="14.00">false</text>
<polygon fill="none" stroke="black" points="104,-66.5 104,-87.5 147,-87.5 147,-66.5 104,-66.5"/>
<text text-anchor="start" x="114.5" y="-73.3" font-family="Times,serif" font-size="14.00">true</text>
<polygon fill="none" stroke="black" points="147,-66.5 147,-87.5 302,-87.5 302,-66.5 147,-66.5"/>
<text text-anchor="start" x="213.5" y="-73.3" font-family="Times,serif" font-size="14.00">true</text>
<polygon fill="lemonchiffon" stroke="none" points="8,-45.5 8,-66.5 51,-66.5 51,-45.5 8,-45.5"/>
<polygon fill="none" stroke="black" points="8,-45.5 8,-66.5 51,-66.5 51,-45.5 8,-45.5"/>
<text text-anchor="start" x="16.5" y="-52.3" font-family="Times,serif" font-size="14.00">false</text>
<polygon fill="orange" stroke="none" points="51,-45.5 51,-66.5 104,-66.5 104,-45.5 51,-45.5"/>
<polygon fill="none" stroke="black" points="51,-45.5 51,-66.5 104,-66.5 104,-45.5 51,-45.5"/>
<text text-anchor="start" x="64.5" y="-52.3" font-family="Times,serif" font-size="14.00">false</text>
<polygon fill="lemonchiffon" stroke="none" points="104,-45.5 104,-66.5 147,-66.5 147,-45.5 104,-45.5"/>
<polygon fill="none" stroke="black" points="104,-45.5 104,-66.5 147,-66.5 147,-45.5 104,-45.5"/>
<text text-anchor="start" x="112.5" y="-52.3" font-family="Times,serif" font-size="14.00">false</text>
<polygon fill="orange" stroke="none" points="147,-45.5 147,-66.5 302,-66.5 302,-45.5 147,-45.5"/>
<polygon fill="none" stroke="black" points="147,-45.5 147,-66.5 302,-66.5 302,-45.5 147,-45.5"/>
<text text-anchor="start" x="211.5" y="-52.3" font-family="Times,serif" font-size="14.00">false</text>
<polygon fill="none" stroke="black" points="8,-24.5 8,-45.5 51,-45.5 51,-24.5 8,-24.5"/>
<text text-anchor="start" x="16.5" y="-31.3" font-family="Times,serif" font-size="14.00">false</text>
<polygon fill="none" stroke="black" points="51,-24.5 51,-45.5 104,-45.5 104,-24.5 51,-24.5"/>
<text text-anchor="start" x="66.5" y="-31.3" font-family="Times,serif" font-size="14.00">true</text>
<polygon fill="none" stroke="black" points="104,-24.5 104,-45.5 147,-45.5 147,-24.5 104,-24.5"/>
<text text-anchor="start" x="114.5" y="-31.3" font-family="Times,serif" font-size="14.00">true</text>
<polygon fill="none" stroke="black" points="147,-24.5 147,-45.5 302,-45.5 302,-24.5 147,-24.5"/>
<text text-anchor="start" x="213.5" y="-31.3" font-family="Times,serif" font-size="14.00">true</text>
<polygon fill="lemonchiffon" stroke="none" points="8,-3.5 8,-24.5 51,-24.5 51,-3.5 8,-3.5"/>
<polygon fill="none" stroke="black" points="8,-3.5 8,-24.5 51,-24.5 51,-3.5 8,-3.5"/>
<text text-anchor="start" x="16.5" y="-10.3" font-family="Times,serif" font-size="14.00">false</text>
<polygon fill="orange" stroke="none" points="51,-3.5 51,-24.5 104,-24.5 104,-3.5 51,-3.5"/>
<polygon fill="none" stroke="black" points="51,-3.5 51,-24.5 104,-24.5 104,-3.5 51,-3.5"/>
<text text-anchor="start" x="66.5" y="-10.3" font-family="Times,serif" font-size="14.00">true</text>
<polygon fill="lemonchiffon" stroke="none" points="104,-3.5 104,-24.5 147,-24.5 147,-3.5 104,-3.5"/>
<polygon fill="none" stroke="black" points="104,-3.5 104,-24.5 147,-24.5 147,-3.5 104,-3.5"/>
<text text-anchor="start" x="112.5" y="-10.3" font-family="Times,serif" font-size="14.00">false</text>
<polygon fill="orange" stroke="none" points="147,-3.5 147,-24.5 302,-24.5 302,-3.5 147,-3.5"/>
<polygon fill="none" stroke="black" points="147,-3.5 147,-24.5 302,-24.5 302,-3.5 147,-3.5"/>
<text text-anchor="start" x="213.5" y="-10.3" font-family="Times,serif" font-size="14.00">true</text>
</g>
</g>
</svg>
