<?xml version="1.0" encoding="UTF-8" standalone="no"?>
<!DOCTYPE svg PUBLIC "-//W3C//DTD SVG 1.1//EN"
 "http://www.w3.org/Graphics/SVG/1.1/DTD/svg11.dtd">
<!-- Generated by graphviz version 7.0.6 (20230106.0513)
 -->
<!-- Title: structs Pages: 1 -->
<svg width="308pt" height="205pt"
 viewBox="0.00 0.00 308.00 205.00" xmlns="http://www.w3.org/2000/svg" xmlns:xlink="http://www.w3.org/1999/xlink">
<g id="graph0" class="graph" transform="scale(1 1) rotate(0) translate(4 201)">
<title>structs</title>
<polygon fill="white" stroke="none" points="-4,4 -4,-201 304,-201 304,4 -4,4"/>
<!-- table -->
<g id="node1" class="node">
<title>table</title>
<polygon fill="none" stroke="black" points="8,-171.5 8,-192.5 51,-192.5 51,-171.5 8,-171.5"/>
<text text-anchor="start" x="11" y="-178.3" font-family="Times,serif" font-size="14.00">a &lt;= 0</text>
<polygon fill="none" stroke="black" points="51,-171.5 51,-192.5 99,-192.5 99,-171.5 51,-171.5"/>
<text text-anchor="start" x="54" y="-179.3" font-family="Times,serif" font-size="14.00">b &lt;= </text>
<text text-anchor="start" x="85" y="-179.3" font-family="Times,serif" font-size="14.00" fill="lightskyblue">0 </text>
<polygon fill="none" stroke="black" points="99,-171.5 99,-192.5 142,-192.5 142,-171.5 99,-171.5"/>
<text text-anchor="start" x="102" y="-178.3" font-family="Times,serif" font-size="14.00">c &lt;= 0</text>
<polygon fill="none" stroke="black" points="142,-171.5 142,-192.5 292,-192.5 292,-171.5 142,-171.5"/>
<text text-anchor="start" x="145" y="-179.3" font-family="Times,serif" font-size="14.00">a &lt;= 0 || b &lt;= </text>
<text text-anchor="start" x="227" y="-179.3" font-family="Times,serif" font-size="14.00" fill="lightskyblue">0 </text>
<text text-anchor="start" x="238" y="-179.3" font-family="Times,serif" font-size="14.00"> || c &lt;= 0</text>
<polygon fill="none" stroke="black" points="8,-150.5 8,-171.5 51,-171.5 51,-150.5 8,-150.5"/>
<text text-anchor="start" x="18.5" y="-157.3" font-family="Times,serif" font-size="14.00">true</text>
<polygon fill="none" stroke="black" points="51,-150.5 51,-171.5 99,-171.5 99,-150.5 51,-150.5"/>
<text text-anchor="start" x="64" y="-157.3" font-family="Times,serif" font-size="14.00">true</text>
<polygon fill="none" stroke="black" points="99,-150.5 99,-171.5 142,-171.5 142,-150.5 99,-150.5"/>
<text text-anchor="start" x="109.5" y="-157.3" font-family="Times,serif" font-size="14.00">true</text>
<polygon fill="none" stroke="black" points="142,-150.5 142,-171.5 292,-171.5 292,-150.5 142,-150.5"/>
<text text-anchor="start" x="206" y="-157.3" font-family="Times,serif" font-size="14.00">true</text>
<polygon fill="none" stroke="black" points="8,-129.5 8,-150.5 51,-150.5 51,-129.5 8,-129.5"/>
<text text-anchor="start" x="18.5" y="-136.3" font-family="Times,serif" font-size="14.00">true</text>
<polygon fill="none" stroke="black" points="51,-129.5 51,-150.5 99,-150.5 99,-129.5 51,-129.5"/>
<text text-anchor="start" x="64" y="-136.3" font-family="Times,serif" font-size="14.00">true</text>
<polygon fill="none" stroke="black" points="99,-129.5 99,-150.5 142,-150.5 142,-129.5 99,-129.5"/>
<text text-anchor="start" x="107.5" y="-136.3" font-family="Times,serif" font-size="14.00">false</text>
<polygon fill="none" stroke="black" points="142,-129.5 142,-150.5 292,-150.5 292,-129.5 142,-129.5"/>
<text text-anchor="start" x="206" y="-136.3" font-family="Times,serif" font-size="14.00">true</text>
<polygon fill="none" stroke="black" points="8,-108.5 8,-129.5 51,-129.5 51,-108.5 8,-108.5"/>
<text text-anchor="start" x="18.5" y="-115.3" font-family="Times,serif" font-size="14.00">true</text>
<polygon fill="none" stroke="black" points="51,-108.5 51,-129.5 99,-129.5 99,-108.5 51,-108.5"/>
<text text-anchor="start" x="62" y="-115.3" font-family="Times,serif" font-size="14.00">false</text>
<polygon fill="none" stroke="black" points="99,-108.5 99,-129.5 142,-129.5 142,-108.5 99,-108.5"/>
<text text-anchor="start" x="109.5" y="-115.3" font-family="Times,serif" font-size="14.00">true</text>
<polygon fill="none" stroke="black" points="142,-108.5 142,-129.5 292,-129.5 292,-108.5 142,-108.5"/>
<text text-anchor="start" x="206" y="-115.3" font-family="Times,serif" font-size="14.00">true</text>
<polygon fill="none" stroke="black" points="8,-87.5 8,-108.5 51,-108.5 51,-87.5 8,-87.5"/>
<text text-anchor="start" x="18.5" y="-94.3" font-family="Times,serif" font-size="14.00">true</text>
<polygon fill="none" stroke="black" points="51,-87.5 51,-108.5 99,-108.5 99,-87.5 51,-87.5"/>
<text text-anchor="start" x="62" y="-94.3" font-family="Times,serif" font-size="14.00">false</text>
<polygon fill="none" stroke="black" points="99,-87.5 99,-108.5 142,-108.5 142,-87.5 99,-87.5"/>
<text text-anchor="start" x="107.5" y="-94.3" font-family="Times,serif" font-size="14.00">false</text>
<polygon fill="none" stroke="black" points="142,-87.5 142,-108.5 292,-108.5 292,-87.5 142,-87.5"/>
<text text-anchor="start" x="206" y="-94.3" font-family="Times,serif" font-size="14.00">true</text>
<polygon fill="none" stroke="black" points="8,-66.5 8,-87.5 51,-87.5 51,-66.5 8,-66.5"/>
<text text-anchor="start" x="16.5" y="-73.3" font-family="Times,serif" font-size="14.00">false</text>
<polygon fill="none" stroke="black" points="51,-66.5 51,-87.5 99,-87.5 99,-66.5 51,-66.5"/>
<text text-anchor="start" x="64" y="-73.3" font-family="Times,serif" font-size="14.00">true</text>
<polygon fill="none" stroke="black" points="99,-66.5 99,-87.5 142,-87.5 142,-66.5 99,-66.5"/>
<text text-anchor="start" x="109.5" y="-73.3" font-family="Times,serif" font-size="14.00">true</text>
<polygon fill="none" stroke="black" points="142,-66.5 142,-87.5 292,-87.5 292,-66.5 142,-66.5"/>
<text text-anchor="start" x="206" y="-73.3" font-family="Times,serif" font-size="14.00">true</text>
<polygon fill="lemonchiffon" stroke="none" points="8,-45.5 8,-66.5 51,-66.5 51,-45.5 8,-45.5"/>
<polygon fill="none" stroke="black" points="8,-45.5 8,-66.5 51,-66.5 51,-45.5 8,-45.5"/>
<text text-anchor="start" x="16.5" y="-52.3" font-family="Times,serif" font-size="14.00">false</text>
<polygon fill="lightskyblue" stroke="none" points="51,-45.5 51,-66.5 99,-66.5 99,-45.5 51,-45.5"/>
<polygon fill="none" stroke="black" points="51,-45.5 51,-66.5 99,-66.5 99,-45.5 51,-45.5"/>
<text text-anchor="start" x="64" y="-52.3" font-family="Times,serif" font-size="14.00">true</text>
<polygon fill="lemonchiffon" stroke="none" points="99,-45.5 99,-66.5 142,-66.5 142,-45.5 99,-45.5"/>
<polygon fill="none" stroke="black" points="99,-45.5 99,-66.5 142,-66.5 142,-45.5 99,-45.5"/>
<text text-anchor="start" x="107.5" y="-52.3" font-family="Times,serif" font-size="14.00">false</text>
<polygon fill="lightskyblue" stroke="none" points="142,-45.5 142,-66.5 292,-66.5 292,-45.5 142,-45.5"/>
<polygon fill="none" stroke="black" points="142,-45.5 142,-66.5 292,-66.5 292,-45.5 142,-45.5"/>
<text text-anchor="start" x="206" y="-52.3" font-family="Times,serif" font-size="14.00">true</text>
<polygon fill="none" stroke="black" points="8,-24.5 8,-45.5 51,-45.5 51,-24.5 8,-24.5"/>
<text text-anchor="start" x="16.5" y="-31.3" font-family="Times,serif" font-size="14.00">false</text>
<polygon fill="none" stroke="black" points="51,-24.5 51,-45.5 99,-45.5 99,-24.5 51,-24.5"/>
<text text-anchor="start" x="62" y="-31.3" font-family="Times,serif" font-size="14.00">false</text>
<polygon fill="none" stroke="black" points="99,-24.5 99,-45.5 142,-45.5 142,-24.5 99,-24.5"/>
<text text-anchor="start" x="109.5" y="-31.3" font-family="Times,serif" font-size="14.00">true</text>
<polygon fill="none" stroke="black" points="142,-24.5 142,-45.5 292,-45.5 292,-24.5 142,-24.5"/>
<text text-anchor="start" x="206" y="-31.3" font-family="Times,serif" font-size="14.00">true</text>
<polygon fill="lemonchiffon" stroke="none" points="8,-3.5 8,-24.5 51,-24.5 51,-3.5 8,-3.5"/>
<polygon fill="none" stroke="black" points="8,-3.5 8,-24.5 51,-24.5 51,-3.5 8,-3.5"/>
<text text-anchor="start" x="16.5" y="-10.3" font-family="Times,serif" font-size="14.00">false</text>
<polygon fill="lightskyblue" stroke="none" points="51,-3.5 51,-24.5 99,-24.5 99,-3.5 51,-3.5"/>
<polygon fill="none" stroke="black" points="51,-3.5 51,-24.5 99,-24.5 99,-3.5 51,-3.5"/>
<text text-anchor="start" x="62" y="-10.3" font-family="Times,serif" font-size="14.00">false</text>
<polygon fill="lemonchiffon" stroke="none" points="99,-3.5 99,-24.5 142,-24.5 142,-3.5 99,-3.5"/>
<polygon fill="none" stroke="black" points="99,-3.5 99,-24.5 142,-24.5 142,-3.5 99,-3.5"/>
<text text-anchor="start" x="107.5" y="-10.3" font-family="Times,serif" font-size="14.00">false</text>
<polygon fill="lightskyblue" stroke="none" points="142,-3.5 142,-24.5 292,-24.5 292,-3.5 142,-3.5"/>
<polygon fill="none" stroke="black" points="142,-3.5 142,-24.5 292,-24.5 292,-3.5 142,-3.5"/>
<text text-anchor="start" x="204" y="-10.3" font-family="Times,serif" font-size="14.00">false</text>
</g>
</g>
</svg>
