<?xml version="1.0" encoding="UTF-8" standalone="no"?>
<!DOCTYPE svg PUBLIC "-//W3C//DTD SVG 1.1//EN"
 "http://www.w3.org/Graphics/SVG/1.1/DTD/svg11.dtd">
<!-- Generated by graphviz version 7.0.6 (20230106.0513)
 -->
<!-- Title: structs Pages: 1 -->
<svg width="295pt" height="121pt"
 viewBox="0.00 0.00 295.00 121.00" xmlns="http://www.w3.org/2000/svg" xmlns:xlink="http://www.w3.org/1999/xlink">
<g id="graph0" class="graph" transform="scale(1 1) rotate(0) translate(4 117)">
<title>structs</title>
<polygon fill="white" stroke="none" points="-4,4 -4,-117 291,-117 291,4 -4,4"/>
<!-- table -->
<g id="node1" class="node">
<title>table</title>
<polygon fill="none" stroke="black" points="8.5,-87.5 8.5,-108.5 75.5,-108.5 75.5,-87.5 8.5,-87.5"/>
<text text-anchor="start" x="11.5" y="-95.3" font-family="Times,serif" font-size="14.00">trian </text>
<text text-anchor="start" x="40.5" y="-95.3" font-family="Times,serif" font-size="14.00" fill="orange">&gt;= </text>
<text text-anchor="start" x="61.5" y="-95.3" font-family="Times,serif" font-size="14.00"> 3</text>
<polygon fill="none" stroke="black" points="75.5,-87.5 75.5,-108.5 132.5,-108.5 132.5,-87.5 75.5,-87.5"/>
<text text-anchor="start" x="78.5" y="-94.3" font-family="Times,serif" font-size="14.00">b + c &gt; a</text>
<polygon fill="none" stroke="black" points="132.5,-87.5 132.5,-108.5 279.5,-108.5 279.5,-87.5 132.5,-87.5"/>
<text text-anchor="start" x="135.5" y="-95.3" font-family="Times,serif" font-size="14.00">trian </text>
<text text-anchor="start" x="164.5" y="-95.3" font-family="Times,serif" font-size="14.00" fill="orange">&gt;= </text>
<text text-anchor="start" x="185.5" y="-95.3" font-family="Times,serif" font-size="14.00"> 3 &amp;&amp; b + c &gt; a</text>
<polygon fill="orange" stroke="none" points="8.5,-66.5 8.5,-87.5 75.5,-87.5 75.5,-66.5 8.5,-66.5"/>
<polygon fill="none" stroke="black" points="8.5,-66.5 8.5,-87.5 75.5,-87.5 75.5,-66.5 8.5,-66.5"/>
<text text-anchor="start" x="29" y="-73.3" font-family="Times,serif" font-size="14.00">false</text>
<polygon fill="lemonchiffon" stroke="none" points="75.5,-66.5 75.5,-87.5 132.5,-87.5 132.5,-66.5 75.5,-66.5"/>
<polygon fill="none" stroke="black" points="75.5,-66.5 75.5,-87.5 132.5,-87.5 132.5,-66.5 75.5,-66.5"/>
<text text-anchor="start" x="93" y="-73.3" font-family="Times,serif" font-size="14.00">true</text>
<polygon fill="orange" stroke="none" points="132.5,-66.5 132.5,-87.5 279.5,-87.5 279.5,-66.5 132.5,-66.5"/>
<polygon fill="none" stroke="black" points="132.5,-66.5 132.5,-87.5 279.5,-87.5 279.5,-66.5 132.5,-66.5"/>
<text text-anchor="start" x="193" y="-73.3" font-family="Times,serif" font-size="14.00">false</text>
<polygon fill="none" stroke="black" points="8.5,-45.5 8.5,-66.5 75.5,-66.5 75.5,-45.5 8.5,-45.5"/>
<text text-anchor="start" x="29" y="-52.3" font-family="Times,serif" font-size="14.00">false</text>
<polygon fill="none" stroke="black" points="75.5,-45.5 75.5,-66.5 132.5,-66.5 132.5,-45.5 75.5,-45.5"/>
<text text-anchor="start" x="91" y="-52.3" font-family="Times,serif" font-size="14.00">false</text>
<polygon fill="none" stroke="black" points="132.5,-45.5 132.5,-66.5 279.5,-66.5 279.5,-45.5 132.5,-45.5"/>
<text text-anchor="start" x="193" y="-52.3" font-family="Times,serif" font-size="14.00">false</text>
<polygon fill="orange" stroke="none" points="8.5,-24.5 8.5,-45.5 75.5,-45.5 75.5,-24.5 8.5,-24.5"/>
<polygon fill="none" stroke="black" points="8.5,-24.5 8.5,-45.5 75.5,-45.5 75.5,-24.5 8.5,-24.5"/>
<text text-anchor="start" x="31" y="-31.3" font-family="Times,serif" font-size="14.00">true</text>
<polygon fill="lemonchiffon" stroke="none" points="75.5,-24.5 75.5,-45.5 132.5,-45.5 132.5,-24.5 75.5,-24.5"/>
<polygon fill="none" stroke="black" points="75.5,-24.5 75.5,-45.5 132.5,-45.5 132.5,-24.5 75.5,-24.5"/>
<text text-anchor="start" x="93" y="-31.3" font-family="Times,serif" font-size="14.00">true</text>
<polygon fill="orange" stroke="none" points="132.5,-24.5 132.5,-45.5 279.5,-45.5 279.5,-24.5 132.5,-24.5"/>
<polygon fill="none" stroke="black" points="132.5,-24.5 132.5,-45.5 279.5,-45.5 279.5,-24.5 132.5,-24.5"/>
<text text-anchor="start" x="195" y="-31.3" font-family="Times,serif" font-size="14.00">true</text>
<polygon fill="none" stroke="black" points="8.5,-3.5 8.5,-24.5 75.5,-24.5 75.5,-3.5 8.5,-3.5"/>
<text text-anchor="start" x="31" y="-10.3" font-family="Times,serif" font-size="14.00">true</text>
<polygon fill="none" stroke="black" points="75.5,-3.5 75.5,-24.5 132.5,-24.5 132.5,-3.5 75.5,-3.5"/>
<text text-anchor="start" x="91" y="-10.3" font-family="Times,serif" font-size="14.00">false</text>
<polygon fill="none" stroke="black" points="132.5,-3.5 132.5,-24.5 279.5,-24.5 279.5,-3.5 132.5,-3.5"/>
<text text-anchor="start" x="193" y="-10.3" font-family="Times,serif" font-size="14.00">false</text>
</g>
</g>
</svg>
