<?xml version="1.0" encoding="UTF-8" standalone="no"?>
<!DOCTYPE svg PUBLIC "-//W3C//DTD SVG 1.1//EN"
 "http://www.w3.org/Graphics/SVG/1.1/DTD/svg11.dtd">
<!-- Generated by graphviz version 7.0.6 (20230106.0513)
 -->
<!-- Title: structs Pages: 1 -->
<svg width="308pt" height="205pt"
 viewBox="0.00 0.00 308.00 205.00" xmlns="http://www.w3.org/2000/svg" xmlns:xlink="http://www.w3.org/1999/xlink">
<g id="graph0" class="graph" transform="scale(1 1) rotate(0) translate(4 201)">
<title>structs</title>
<polygon fill="white" stroke="none" points="-4,4 -4,-201 304,-201 304,4 -4,4"/>
<!-- table -->
<g id="node1" class="node">
<title>table</title>
<polygon fill="none" stroke="black" points="8,-171.5 8,-192.5 51,-192.5 51,-171.5 8,-171.5"/>
<text text-anchor="start" x="11" y="-178.3" font-family="Times,serif" font-size="14.00">a &lt;= 0</text>
<polygon fill="none" stroke="black" points="51,-171.5 51,-192.5 100,-192.5 100,-171.5 51,-171.5"/>
<text text-anchor="start" x="54" y="-179.3" font-family="Times,serif" font-size="14.00">b </text>
<text text-anchor="start" x="65" y="-179.3" font-family="Times,serif" font-size="14.00" fill="lightblue">&lt;= </text>
<text text-anchor="start" x="86" y="-179.3" font-family="Times,serif" font-size="14.00"> 0</text>
<polygon fill="none" stroke="black" points="100,-171.5 100,-192.5 143,-192.5 143,-171.5 100,-171.5"/>
<text text-anchor="start" x="103" y="-178.3" font-family="Times,serif" font-size="14.00">c &lt;= 0</text>
<polygon fill="none" stroke="black" points="143,-171.5 143,-192.5 292,-192.5 292,-171.5 143,-171.5"/>
<text text-anchor="start" x="146" y="-179.3" font-family="Times,serif" font-size="14.00">a &lt;= 0 || b </text>
<text text-anchor="start" x="207" y="-179.3" font-family="Times,serif" font-size="14.00" fill="lightblue">&lt;= </text>
<text text-anchor="start" x="228" y="-179.3" font-family="Times,serif" font-size="14.00"> 0 || c &lt;= 0</text>
<polygon fill="none" stroke="black" points="8,-150.5 8,-171.5 51,-171.5 51,-150.5 8,-150.5"/>
<text text-anchor="start" x="18.5" y="-157.3" font-family="Times,serif" font-size="14.00">true</text>
<polygon fill="none" stroke="black" points="51,-150.5 51,-171.5 100,-171.5 100,-150.5 51,-150.5"/>
<text text-anchor="start" x="64.5" y="-157.3" font-family="Times,serif" font-size="14.00">true</text>
<polygon fill="none" stroke="black" points="100,-150.5 100,-171.5 143,-171.5 143,-150.5 100,-150.5"/>
<text text-anchor="start" x="110.5" y="-157.3" font-family="Times,serif" font-size="14.00">true</text>
<polygon fill="none" stroke="black" points="143,-150.5 143,-171.5 292,-171.5 292,-150.5 143,-150.5"/>
<text text-anchor="start" x="206.5" y="-157.3" font-family="Times,serif" font-size="14.00">true</text>
<polygon fill="none" stroke="black" points="8,-129.5 8,-150.5 51,-150.5 51,-129.5 8,-129.5"/>
<text text-anchor="start" x="18.5" y="-136.3" font-family="Times,serif" font-size="14.00">true</text>
<polygon fill="none" stroke="black" points="51,-129.5 51,-150.5 100,-150.5 100,-129.5 51,-129.5"/>
<text text-anchor="start" x="64.5" y="-136.3" font-family="Times,serif" font-size="14.00">true</text>
<polygon fill="none" stroke="black" points="100,-129.5 100,-150.5 143,-150.5 143,-129.5 100,-129.5"/>
<text text-anchor="start" x="108.5" y="-136.3" font-family="Times,serif" font-size="14.00">false</text>
<polygon fill="none" stroke="black" points="143,-129.5 143,-150.5 292,-150.5 292,-129.5 143,-129.5"/>
<text text-anchor="start" x="206.5" y="-136.3" font-family="Times,serif" font-size="14.00">true</text>
<polygon fill="none" stroke="black" points="8,-108.5 8,-129.5 51,-129.5 51,-108.5 8,-108.5"/>
<text text-anchor="start" x="18.5" y="-115.3" font-family="Times,serif" font-size="14.00">true</text>
<polygon fill="none" stroke="black" points="51,-108.5 51,-129.5 100,-129.5 100,-108.5 51,-108.5"/>
<text text-anchor="start" x="62.5" y="-115.3" font-family="Times,serif" font-size="14.00">false</text>
<polygon fill="none" stroke="black" points="100,-108.5 100,-129.5 143,-129.5 143,-108.5 100,-108.5"/>
<text text-anchor="start" x="110.5" y="-115.3" font-family="Times,serif" font-size="14.00">true</text>
<polygon fill="none" stroke="black" points="143,-108.5 143,-129.5 292,-129.5 292,-108.5 143,-108.5"/>
<text text-anchor="start" x="206.5" y="-115.3" font-family="Times,serif" font-size="14.00">true</text>
<polygon fill="none" stroke="black" points="8,-87.5 8,-108.5 51,-108.5 51,-87.5 8,-87.5"/>
<text text-anchor="start" x="18.5" y="-94.3" font-family="Times,serif" font-size="14.00">true</text>
<polygon fill="none" stroke="black" points="51,-87.5 51,-108.5 100,-108.5 100,-87.5 51,-87.5"/>
<text text-anchor="start" x="62.5" y="-94.3" font-family="Times,serif" font-size="14.00">false</text>
<polygon fill="none" stroke="black" points="100,-87.5 100,-108.5 143,-108.5 143,-87.5 100,-87.5"/>
<text text-anchor="start" x="108.5" y="-94.3" font-family="Times,serif" font-size="14.00">false</text>
<polygon fill="none" stroke="black" points="143,-87.5 143,-108.5 292,-108.5 292,-87.5 143,-87.5"/>
<text text-anchor="start" x="206.5" y="-94.3" font-family="Times,serif" font-size="14.00">true</text>
<polygon fill="none" stroke="black" points="8,-66.5 8,-87.5 51,-87.5 51,-66.5 8,-66.5"/>
<text text-anchor="start" x="16.5" y="-73.3" font-family="Times,serif" font-size="14.00">false</text>
<polygon fill="none" stroke="black" points="51,-66.5 51,-87.5 100,-87.5 100,-66.5 51,-66.5"/>
<text text-anchor="start" x="64.5" y="-73.3" font-family="Times,serif" font-size="14.00">true</text>
<polygon fill="none" stroke="black" points="100,-66.5 100,-87.5 143,-87.5 143,-66.5 100,-66.5"/>
<text text-anchor="start" x="110.5" y="-73.3" font-family="Times,serif" font-size="14.00">true</text>
<polygon fill="none" stroke="black" points="143,-66.5 143,-87.5 292,-87.5 292,-66.5 143,-66.5"/>
<text text-anchor="start" x="206.5" y="-73.3" font-family="Times,serif" font-size="14.00">true</text>
<polygon fill="lemonchiffon" stroke="none" points="8,-45.5 8,-66.5 51,-66.5 51,-45.5 8,-45.5"/>
<polygon fill="none" stroke="black" points="8,-45.5 8,-66.5 51,-66.5 51,-45.5 8,-45.5"/>
<text text-anchor="start" x="16.5" y="-52.3" font-family="Times,serif" font-size="14.00">false</text>
<polygon fill="lightskyblue" stroke="none" points="51,-45.5 51,-66.5 100,-66.5 100,-45.5 51,-45.5"/>
<polygon fill="none" stroke="black" points="51,-45.5 51,-66.5 100,-66.5 100,-45.5 51,-45.5"/>
<text text-anchor="start" x="64.5" y="-52.3" font-family="Times,serif" font-size="14.00">true</text>
<polygon fill="lemonchiffon" stroke="none" points="100,-45.5 100,-66.5 143,-66.5 143,-45.5 100,-45.5"/>
<polygon fill="none" stroke="black" points="100,-45.5 100,-66.5 143,-66.5 143,-45.5 100,-45.5"/>
<text text-anchor="start" x="108.5" y="-52.3" font-family="Times,serif" font-size="14.00">false</text>
<polygon fill="lightskyblue" stroke="none" points="143,-45.5 143,-66.5 292,-66.5 292,-45.5 143,-45.5"/>
<polygon fill="none" stroke="black" points="143,-45.5 143,-66.5 292,-66.5 292,-45.5 143,-45.5"/>
<text text-anchor="start" x="206.5" y="-52.3" font-family="Times,serif" font-size="14.00">true</text>
<polygon fill="none" stroke="black" points="8,-24.5 8,-45.5 51,-45.5 51,-24.5 8,-24.5"/>
<text text-anchor="start" x="16.5" y="-31.3" font-family="Times,serif" font-size="14.00">false</text>
<polygon fill="none" stroke="black" points="51,-24.5 51,-45.5 100,-45.5 100,-24.5 51,-24.5"/>
<text text-anchor="start" x="62.5" y="-31.3" font-family="Times,serif" font-size="14.00">false</text>
<polygon fill="none" stroke="black" points="100,-24.5 100,-45.5 143,-45.5 143,-24.5 100,-24.5"/>
<text text-anchor="start" x="110.5" y="-31.3" font-family="Times,serif" font-size="14.00">true</text>
<polygon fill="none" stroke="black" points="143,-24.5 143,-45.5 292,-45.5 292,-24.5 143,-24.5"/>
<text text-anchor="start" x="206.5" y="-31.3" font-family="Times,serif" font-size="14.00">true</text>
<polygon fill="lemonchiffon" stroke="none" points="8,-3.5 8,-24.5 51,-24.5 51,-3.5 8,-3.5"/>
<polygon fill="none" stroke="black" points="8,-3.5 8,-24.5 51,-24.5 51,-3.5 8,-3.5"/>
<text text-anchor="start" x="16.5" y="-10.3" font-family="Times,serif" font-size="14.00">false</text>
<polygon fill="lightskyblue" stroke="none" points="51,-3.5 51,-24.5 100,-24.5 100,-3.5 51,-3.5"/>
<polygon fill="none" stroke="black" points="51,-3.5 51,-24.5 100,-24.5 100,-3.5 51,-3.5"/>
<text text-anchor="start" x="62.5" y="-10.3" font-family="Times,serif" font-size="14.00">false</text>
<polygon fill="lemonchiffon" stroke="none" points="100,-3.5 100,-24.5 143,-24.5 143,-3.5 100,-3.5"/>
<polygon fill="none" stroke="black" points="100,-3.5 100,-24.5 143,-24.5 143,-3.5 100,-3.5"/>
<text text-anchor="start" x="108.5" y="-10.3" font-family="Times,serif" font-size="14.00">false</text>
<polygon fill="lightskyblue" stroke="none" points="143,-3.5 143,-24.5 292,-24.5 292,-3.5 143,-3.5"/>
<polygon fill="none" stroke="black" points="143,-3.5 143,-24.5 292,-24.5 292,-3.5 143,-3.5"/>
<text text-anchor="start" x="204.5" y="-10.3" font-family="Times,serif" font-size="14.00">false</text>
</g>
</g>
</svg>
