<?xml version="1.0" encoding="UTF-8" standalone="no"?>
<!DOCTYPE svg PUBLIC "-//W3C//DTD SVG 1.1//EN"
 "http://www.w3.org/Graphics/SVG/1.1/DTD/svg11.dtd">
<!-- Generated by graphviz version 7.0.6 (20230106.0513)
 -->
<!-- Title: structs Pages: 1 -->
<svg width="292pt" height="205pt"
 viewBox="0.00 0.00 292.00 205.00" xmlns="http://www.w3.org/2000/svg" xmlns:xlink="http://www.w3.org/1999/xlink">
<g id="graph0" class="graph" transform="scale(1 1) rotate(0) translate(4 201)">
<title>structs</title>
<polygon fill="white" stroke="none" points="-4,4 -4,-201 288,-201 288,4 -4,4"/>
<!-- table -->
<g id="node1" class="node">
<title>table</title>
<polygon fill="none" stroke="black" points="8,-171.5 8,-192.5 51,-192.5 51,-171.5 8,-171.5"/>
<text text-anchor="start" x="11" y="-178.3" font-family="Times,serif" font-size="14.00">a &lt;= 0</text>
<polygon fill="none" stroke="black" points="51,-171.5 51,-192.5 92,-192.5 92,-171.5 51,-171.5"/>
<text text-anchor="start" x="54" y="-179.3" font-family="Times,serif" font-size="14.00">b </text>
<text text-anchor="start" x="65" y="-179.3" font-family="Times,serif" font-size="14.00" fill="orange">&lt; </text>
<text text-anchor="start" x="78" y="-179.3" font-family="Times,serif" font-size="14.00"> 0</text>
<polygon fill="none" stroke="black" points="92,-171.5 92,-192.5 135,-192.5 135,-171.5 92,-171.5"/>
<text text-anchor="start" x="95" y="-178.3" font-family="Times,serif" font-size="14.00">c &lt;= 0</text>
<polygon fill="none" stroke="black" points="135,-171.5 135,-192.5 276,-192.5 276,-171.5 135,-171.5"/>
<text text-anchor="start" x="138" y="-179.3" font-family="Times,serif" font-size="14.00">a &lt;= 0 || b </text>
<text text-anchor="start" x="199" y="-179.3" font-family="Times,serif" font-size="14.00" fill="orange">&lt; </text>
<text text-anchor="start" x="212" y="-179.3" font-family="Times,serif" font-size="14.00"> 0 || c &lt;= 0</text>
<polygon fill="none" stroke="black" points="8,-150.5 8,-171.5 51,-171.5 51,-150.5 8,-150.5"/>
<text text-anchor="start" x="18.5" y="-157.3" font-family="Times,serif" font-size="14.00">true</text>
<polygon fill="none" stroke="black" points="51,-150.5 51,-171.5 92,-171.5 92,-150.5 51,-150.5"/>
<text text-anchor="start" x="58.5" y="-157.3" font-family="Times,serif" font-size="14.00">false</text>
<polygon fill="none" stroke="black" points="92,-150.5 92,-171.5 135,-171.5 135,-150.5 92,-150.5"/>
<text text-anchor="start" x="102.5" y="-157.3" font-family="Times,serif" font-size="14.00">true</text>
<polygon fill="none" stroke="black" points="135,-150.5 135,-171.5 276,-171.5 276,-150.5 135,-150.5"/>
<text text-anchor="start" x="194.5" y="-157.3" font-family="Times,serif" font-size="14.00">true</text>
<polygon fill="none" stroke="black" points="8,-129.5 8,-150.5 51,-150.5 51,-129.5 8,-129.5"/>
<text text-anchor="start" x="18.5" y="-136.3" font-family="Times,serif" font-size="14.00">true</text>
<polygon fill="none" stroke="black" points="51,-129.5 51,-150.5 92,-150.5 92,-129.5 51,-129.5"/>
<text text-anchor="start" x="58.5" y="-136.3" font-family="Times,serif" font-size="14.00">false</text>
<polygon fill="none" stroke="black" points="92,-129.5 92,-150.5 135,-150.5 135,-129.5 92,-129.5"/>
<text text-anchor="start" x="100.5" y="-136.3" font-family="Times,serif" font-size="14.00">false</text>
<polygon fill="none" stroke="black" points="135,-129.5 135,-150.5 276,-150.5 276,-129.5 135,-129.5"/>
<text text-anchor="start" x="194.5" y="-136.3" font-family="Times,serif" font-size="14.00">true</text>
<polygon fill="none" stroke="black" points="8,-108.5 8,-129.5 51,-129.5 51,-108.5 8,-108.5"/>
<text text-anchor="start" x="18.5" y="-115.3" font-family="Times,serif" font-size="14.00">true</text>
<polygon fill="none" stroke="black" points="51,-108.5 51,-129.5 92,-129.5 92,-108.5 51,-108.5"/>
<text text-anchor="start" x="60.5" y="-115.3" font-family="Times,serif" font-size="14.00">true</text>
<polygon fill="none" stroke="black" points="92,-108.5 92,-129.5 135,-129.5 135,-108.5 92,-108.5"/>
<text text-anchor="start" x="102.5" y="-115.3" font-family="Times,serif" font-size="14.00">true</text>
<polygon fill="none" stroke="black" points="135,-108.5 135,-129.5 276,-129.5 276,-108.5 135,-108.5"/>
<text text-anchor="start" x="194.5" y="-115.3" font-family="Times,serif" font-size="14.00">true</text>
<polygon fill="none" stroke="black" points="8,-87.5 8,-108.5 51,-108.5 51,-87.5 8,-87.5"/>
<text text-anchor="start" x="18.5" y="-94.3" font-family="Times,serif" font-size="14.00">true</text>
<polygon fill="none" stroke="black" points="51,-87.5 51,-108.5 92,-108.5 92,-87.5 51,-87.5"/>
<text text-anchor="start" x="60.5" y="-94.3" font-family="Times,serif" font-size="14.00">true</text>
<polygon fill="none" stroke="black" points="92,-87.5 92,-108.5 135,-108.5 135,-87.5 92,-87.5"/>
<text text-anchor="start" x="100.5" y="-94.3" font-family="Times,serif" font-size="14.00">false</text>
<polygon fill="none" stroke="black" points="135,-87.5 135,-108.5 276,-108.5 276,-87.5 135,-87.5"/>
<text text-anchor="start" x="194.5" y="-94.3" font-family="Times,serif" font-size="14.00">true</text>
<polygon fill="none" stroke="black" points="8,-66.5 8,-87.5 51,-87.5 51,-66.5 8,-66.5"/>
<text text-anchor="start" x="16.5" y="-73.3" font-family="Times,serif" font-size="14.00">false</text>
<polygon fill="none" stroke="black" points="51,-66.5 51,-87.5 92,-87.5 92,-66.5 51,-66.5"/>
<text text-anchor="start" x="58.5" y="-73.3" font-family="Times,serif" font-size="14.00">false</text>
<polygon fill="none" stroke="black" points="92,-66.5 92,-87.5 135,-87.5 135,-66.5 92,-66.5"/>
<text text-anchor="start" x="102.5" y="-73.3" font-family="Times,serif" font-size="14.00">true</text>
<polygon fill="none" stroke="black" points="135,-66.5 135,-87.5 276,-87.5 276,-66.5 135,-66.5"/>
<text text-anchor="start" x="194.5" y="-73.3" font-family="Times,serif" font-size="14.00">true</text>
<polygon fill="lemonchiffon" stroke="none" points="8,-45.5 8,-66.5 51,-66.5 51,-45.5 8,-45.5"/>
<polygon fill="none" stroke="black" points="8,-45.5 8,-66.5 51,-66.5 51,-45.5 8,-45.5"/>
<text text-anchor="start" x="16.5" y="-52.3" font-family="Times,serif" font-size="14.00">false</text>
<polygon fill="orange" stroke="none" points="51,-45.5 51,-66.5 92,-66.5 92,-45.5 51,-45.5"/>
<polygon fill="none" stroke="black" points="51,-45.5 51,-66.5 92,-66.5 92,-45.5 51,-45.5"/>
<text text-anchor="start" x="58.5" y="-52.3" font-family="Times,serif" font-size="14.00">false</text>
<polygon fill="lemonchiffon" stroke="none" points="92,-45.5 92,-66.5 135,-66.5 135,-45.5 92,-45.5"/>
<polygon fill="none" stroke="black" points="92,-45.5 92,-66.5 135,-66.5 135,-45.5 92,-45.5"/>
<text text-anchor="start" x="100.5" y="-52.3" font-family="Times,serif" font-size="14.00">false</text>
<polygon fill="orange" stroke="none" points="135,-45.5 135,-66.5 276,-66.5 276,-45.5 135,-45.5"/>
<polygon fill="none" stroke="black" points="135,-45.5 135,-66.5 276,-66.5 276,-45.5 135,-45.5"/>
<text text-anchor="start" x="192.5" y="-52.3" font-family="Times,serif" font-size="14.00">false</text>
<polygon fill="none" stroke="black" points="8,-24.5 8,-45.5 51,-45.5 51,-24.5 8,-24.5"/>
<text text-anchor="start" x="16.5" y="-31.3" font-family="Times,serif" font-size="14.00">false</text>
<polygon fill="none" stroke="black" points="51,-24.5 51,-45.5 92,-45.5 92,-24.5 51,-24.5"/>
<text text-anchor="start" x="60.5" y="-31.3" font-family="Times,serif" font-size="14.00">true</text>
<polygon fill="none" stroke="black" points="92,-24.5 92,-45.5 135,-45.5 135,-24.5 92,-24.5"/>
<text text-anchor="start" x="102.5" y="-31.3" font-family="Times,serif" font-size="14.00">true</text>
<polygon fill="none" stroke="black" points="135,-24.5 135,-45.5 276,-45.5 276,-24.5 135,-24.5"/>
<text text-anchor="start" x="194.5" y="-31.3" font-family="Times,serif" font-size="14.00">true</text>
<polygon fill="lemonchiffon" stroke="none" points="8,-3.5 8,-24.5 51,-24.5 51,-3.5 8,-3.5"/>
<polygon fill="none" stroke="black" points="8,-3.5 8,-24.5 51,-24.5 51,-3.5 8,-3.5"/>
<text text-anchor="start" x="16.5" y="-10.3" font-family="Times,serif" font-size="14.00">false</text>
<polygon fill="orange" stroke="none" points="51,-3.5 51,-24.5 92,-24.5 92,-3.5 51,-3.5"/>
<polygon fill="none" stroke="black" points="51,-3.5 51,-24.5 92,-24.5 92,-3.5 51,-3.5"/>
<text text-anchor="start" x="60.5" y="-10.3" font-family="Times,serif" font-size="14.00">true</text>
<polygon fill="lemonchiffon" stroke="none" points="92,-3.5 92,-24.5 135,-24.5 135,-3.5 92,-3.5"/>
<polygon fill="none" stroke="black" points="92,-3.5 92,-24.5 135,-24.5 135,-3.5 92,-3.5"/>
<text text-anchor="start" x="100.5" y="-10.3" font-family="Times,serif" font-size="14.00">false</text>
<polygon fill="orange" stroke="none" points="135,-3.5 135,-24.5 276,-24.5 276,-3.5 135,-3.5"/>
<polygon fill="none" stroke="black" points="135,-3.5 135,-24.5 276,-24.5 276,-3.5 135,-3.5"/>
<text text-anchor="start" x="194.5" y="-10.3" font-family="Times,serif" font-size="14.00">true</text>
</g>
</g>
</svg>
