<?xml version="1.0" encoding="UTF-8" standalone="no"?>
<!DOCTYPE svg PUBLIC "-//W3C//DTD SVG 1.1//EN"
 "http://www.w3.org/Graphics/SVG/1.1/DTD/svg11.dtd">
<!-- Generated by graphviz version 7.0.6 (20230106.0513)
 -->
<!-- Title: structs Pages: 1 -->
<svg width="291pt" height="121pt"
 viewBox="0.00 0.00 291.00 121.00" xmlns="http://www.w3.org/2000/svg" xmlns:xlink="http://www.w3.org/1999/xlink">
<g id="graph0" class="graph" transform="scale(1 1) rotate(0) translate(4 117)">
<title>structs</title>
<polygon fill="white" stroke="none" points="-4,4 -4,-117 287,-117 287,4 -4,4"/>
<!-- table -->
<g id="node1" class="node">
<title>table</title>
<polygon fill="none" stroke="black" points="8.5,-87.5 8.5,-108.5 70.5,-108.5 70.5,-87.5 8.5,-87.5"/>
<text text-anchor="start" x="11.5" y="-94.3" font-family="Times,serif" font-size="14.00">trian == 2</text>
<polygon fill="none" stroke="black" points="70.5,-87.5 70.5,-108.5 127.5,-108.5 127.5,-87.5 70.5,-87.5"/>
<text text-anchor="start" x="73.5" y="-94.3" font-family="Times,serif" font-size="14.00">a + c &gt; b</text>
<polygon fill="none" stroke="black" points="127.5,-87.5 127.5,-108.5 275.5,-108.5 275.5,-87.5 127.5,-87.5"/>
<text text-anchor="start" x="130.5" y="-95.3" font-family="Times,serif" font-size="14.00">trian == 2 </text>
<text text-anchor="start" x="190.5" y="-95.3" font-family="Times,serif" font-size="14.00" fill="lightskyblue">&amp;&amp; </text>
<text text-anchor="start" x="217.5" y="-95.3" font-family="Times,serif" font-size="14.00"> a + c &gt; b</text>
<polygon fill="none" stroke="black" points="8.5,-66.5 8.5,-87.5 70.5,-87.5 70.5,-66.5 8.5,-66.5"/>
<text text-anchor="start" x="28.5" y="-73.3" font-family="Times,serif" font-size="14.00">true</text>
<polygon fill="none" stroke="black" points="70.5,-66.5 70.5,-87.5 127.5,-87.5 127.5,-66.5 70.5,-66.5"/>
<text text-anchor="start" x="88" y="-73.3" font-family="Times,serif" font-size="14.00">true</text>
<polygon fill="none" stroke="black" points="127.5,-66.5 127.5,-87.5 275.5,-87.5 275.5,-66.5 127.5,-66.5"/>
<text text-anchor="start" x="190.5" y="-73.3" font-family="Times,serif" font-size="14.00">true</text>
<polygon fill="none" stroke="black" points="8.5,-45.5 8.5,-66.5 70.5,-66.5 70.5,-45.5 8.5,-45.5"/>
<text text-anchor="start" x="28.5" y="-52.3" font-family="Times,serif" font-size="14.00">true</text>
<polygon fill="none" stroke="black" points="70.5,-45.5 70.5,-66.5 127.5,-66.5 127.5,-45.5 70.5,-45.5"/>
<text text-anchor="start" x="86" y="-52.3" font-family="Times,serif" font-size="14.00">false</text>
<polygon fill="none" stroke="black" points="127.5,-45.5 127.5,-66.5 275.5,-66.5 275.5,-45.5 127.5,-45.5"/>
<text text-anchor="start" x="188.5" y="-52.3" font-family="Times,serif" font-size="14.00">false</text>
<polygon fill="none" stroke="black" points="8.5,-24.5 8.5,-45.5 70.5,-45.5 70.5,-24.5 8.5,-24.5"/>
<text text-anchor="start" x="26.5" y="-31.3" font-family="Times,serif" font-size="14.00">false</text>
<polygon fill="none" stroke="black" points="70.5,-24.5 70.5,-45.5 127.5,-45.5 127.5,-24.5 70.5,-24.5"/>
<text text-anchor="start" x="88" y="-31.3" font-family="Times,serif" font-size="14.00">true</text>
<polygon fill="none" stroke="black" points="127.5,-24.5 127.5,-45.5 275.5,-45.5 275.5,-24.5 127.5,-24.5"/>
<text text-anchor="start" x="188.5" y="-31.3" font-family="Times,serif" font-size="14.00">false</text>
<polygon fill="lemonchiffon" stroke="none" points="8.5,-3.5 8.5,-24.5 70.5,-24.5 70.5,-3.5 8.5,-3.5"/>
<polygon fill="none" stroke="black" points="8.5,-3.5 8.5,-24.5 70.5,-24.5 70.5,-3.5 8.5,-3.5"/>
<text text-anchor="start" x="26.5" y="-10.3" font-family="Times,serif" font-size="14.00">false</text>
<polygon fill="lemonchiffon" stroke="none" points="70.5,-3.5 70.5,-24.5 127.5,-24.5 127.5,-3.5 70.5,-3.5"/>
<polygon fill="none" stroke="black" points="70.5,-3.5 70.5,-24.5 127.5,-24.5 127.5,-3.5 70.5,-3.5"/>
<text text-anchor="start" x="86" y="-10.3" font-family="Times,serif" font-size="14.00">false</text>
<polygon fill="lightskyblue" stroke="none" points="127.5,-3.5 127.5,-24.5 275.5,-24.5 275.5,-3.5 127.5,-3.5"/>
<polygon fill="none" stroke="black" points="127.5,-3.5 127.5,-24.5 275.5,-24.5 275.5,-3.5 127.5,-3.5"/>
<text text-anchor="start" x="188.5" y="-10.3" font-family="Times,serif" font-size="14.00">false</text>
</g>
</g>
</svg>
